/* XPM */
static char *_0363391e8d34759db5ec996b07750d30Sx07oWw4n9ymPbp[] = {
/* columns rows colors chars-per-pixel */
"64 64 198 2 ",
"   c #2C261B",
".  c #2F291D",
"X  c #342B1E",
"o  c #3B2E1E",
"O  c #39311F",
"+  c #362E21",
"@  c #392F22",
"#  c #373122",
"$  c #3C3224",
"%  c #3F3827",
"&  c #4A321F",
"*  c #433525",
"=  c #4A3624",
"-  c #453926",
";  c #4B3A26",
":  c #423628",
">  c #493728",
",  c #453A29",
"<  c #4B3D2A",
"1  c #573722",
"2  c #533B26",
"3  c #5B3D25",
"4  c #523E2A",
"5  c #583F29",
"6  c #603F25",
"7  c #4F4026",
"8  c #4D412D",
"9  c #544026",
"0  c #5B4226",
"q  c #54432D",
"w  c #5A452D",
"e  c #57482E",
"r  c #5C492E",
"t  c #4F4331",
"y  c #544531",
"u  c #5A4731",
"i  c #564933",
"p  c #5C4B33",
"a  c #5B4D39",
"s  c #5E5136",
"d  c #5E523A",
"f  c #664526",
"g  c #664927",
"h  c #65462C",
"j  c #634A2F",
"k  c #6B4C2E",
"l  c #754625",
"z  c #7A4624",
"x  c #7E4925",
"c  c #724E2D",
"v  c #7E4C2C",
"b  c #7A512E",
"n  c #634D33",
"m  c #6A4E33",
"M  c #634E39",
"N  c #684E38",
"B  c #734E33",
"V  c #655135",
"C  c #6B5336",
"Z  c #655837",
"A  c #6C5937",
"S  c #64543A",
"D  c #6B553A",
"F  c #66593C",
"G  c #6C5A3D",
"H  c #735435",
"J  c #7B5534",
"K  c #755936",
"L  c #7D5A36",
"P  c #73563A",
"I  c #795539",
"U  c #735B3C",
"Y  c #7B5C3C",
"T  c #6E603E",
"R  c #75613E",
"E  c #7B613E",
"W  c #645641",
"Q  c #6E5741",
"!  c #675A41",
"~  c #6D5D42",
"^  c #735D41",
"/  c #7D5E40",
"(  c #7B5E42",
")  c #715D49",
"_  c #7A5F48",
"`  c #6E6143",
"'  c #756241",
"]  c #756243",
"[  c #7A6242",
"{  c #7C6240",
"}  c #7E6541",
"|  c #7B6343",
" . c #7C6B43",
".. c #7B6945",
"X. c #776249",
"o. c #7A644B",
"O. c #7D6649",
"+. c #7E6A49",
"@. c #8C4B27",
"#. c #834D2B",
"$. c #8C4D29",
"%. c #964E2A",
"&. c #85552E",
"*. c #8F512C",
"=. c #8B5A2E",
"-. c #93502A",
";. c #98512B",
":. c #945D2D",
">. c #835733",
",. c #835B33",
"<. c #8B5D35",
"1. c #805F3D",
"2. c #835E3B",
"3. c #8A5E3A",
"4. c #905F34",
"5. c #95602F",
"6. c #866137",
"7. c #8B6136",
"8. c #81603B",
"9. c #81613E",
"0. c #81613E",
"q. c #85653E",
"w. c #83613D",
"e. c #88643D",
"r. c #8B633C",
"t. c #8C693D",
"y. c #946437",
"u. c #9B6535",
"i. c #92653B",
"p. c #93693E",
"a. c #9B6A3D",
"s. c #A36632",
"d. c #A86C35",
"f. c #A26C3C",
"g. c #A3703F",
"h. c #AC773B",
"j. c #A9723B",
"k. c #815E41",
"l. c #846340",
"z. c #856342",
"x. c #816441",
"c. c #816742",
"v. c #816542",
"b. c #856442",
"n. c #836345",
"m. c #836443",
"M. c #8F6340",
"N. c #8A6747",
"B. c #8B6643",
"V. c #826A47",
"C. c #856A45",
"Z. c #846946",
"A. c #8C6A45",
"S. c #846749",
"D. c #836649",
"F. c #89674A",
"G. c #836A4A",
"H. c #8B6C4B",
"J. c #916541",
"K. c #956B43",
"L. c #946B43",
"P. c #9A6E42",
"I. c #906A48",
"U. c #926D4B",
"Y. c #986E48",
"T. c #85714B",
"R. c #8E714D",
"E. c #967143",
"W. c #9E7144",
"Q. c #93724C",
"!. c #99734B",
"~. c #95784F",
"^. c #856E51",
"/. c #8A6D51",
"(. c #926F51",
"). c #8B7152",
"_. c #947453",
"`. c #9A7551",
"'. c #947955",
"]. c #9C7A55",
"[. c #92775B",
"{. c #997758",
"}. c #9D7B5A",
"|. c #A27243",
" X c #A87743",
".X c #A27649",
"XX c #A0794C",
"oX c #A37751",
"OX c #A37A55",
"+X c #A07E58",
"@X c #9F8155",
"#X c #9C825D",
"$X c #A98957",
"%X c #A5835C",
"&X c #A8815A",
"*X c #AC895F",
"=X c #A78560",
"-X c #AB8860",
/* pixels */
"= 3 = * $ X $ * - , - * - - $ $ $ + $ % : , , , , - * , < 1 2 , 1 3 * X $ * , $ $ # , - * $ * O $ $ * 8 < q q q e q - * ; 2 2 * ",
"; i.p.l.[ R A U V G U { R G G E U ^ ' Z.U [ H.k.c.S.H.l./ z.I z.K.h.E.z.I ,.>.Y E 0.K K L Y 2.e.8.C.V.q.E A K q.U ^ U U w.c.C = ",
"5 w.r } V.' E [ F G s S S p p n i e e n G C e r w e r r w q 4 y p n U C n n j r y 8 q q ; 7 ; 4 w e 9 q e V D H H C w w 0 G r * ",
"= 1.w U U P F F S u G n.S.I.r.S.X.o.Y n.^ ) ^ ) ) V m L P ( N u n U U ( U U C F V p P N.A.N.Y F n p p 0 0 q j P w.C.B.0.R  .w O ",
"* U 4 c.q q e < t < 8 q y 4 q < % * > < t < 8 8 4 u B B u u M h q w q y y u i e q < q y y q 8 8 q e u e u u q y ; 8 - 8 ' E c $ ",
", G 9 A.- $ # X # $ # # O # @ + X X + + @ % $ % $ $ @ $ * * * * = = o X @ @ $ @ . . @ + @ + o X X + $ * % > , , * * $ S ..R g $ ",
"q F V c.< - @ $ $ 8 , - 8 , * u $ X @ - f u * * $ < u M Q i a @ ; 4 * , 4 q i i q r i y * X < i r n 3 m n < n i ; * * V R 3.H - ",
"< H P Y , - $ 8 - p q < d < 5 D - $ $ p v M 7 e < N N ( /._ N * w n < q n Y Q F p C G p , @ e e J P 4 Y H.n 1.P e 8 $ p r >.I - ",
"i 8.C A < y $ 8 - C q q V e n V < > q r P Y r A 2 / I D.}.^.k.< N n 4 w H 1.^ ] V E [ A 8 > e p >.O.0 Y !.C E +.n y * p r =.D > ",
"q H n j 8 < % < < V q y V e C n < > q 4 U z.w.E B I k.k.{.{./ , D n w n P Y ^ T A ,.G S 8 * y r r.] r w.Z.P U A.p u $ q r r.M = ",
"8 C p q y < % < 8 p y 8 V 8 w.q i - P r n.z.Y C.3.I k.N.(.}.n., C N p w H c.B.V.R 8.~ S < * e k l.+.j A.c.F H G.p y , p w N.D - ",
"8 K q q y 8 % < i r i p V p A q u * I 5 m 3.H w.2.Y k.F.F.+XF., C p n n U U Z.| P ,.R S 8 - p r l.| H Y Z.U D | n 8 * n h Y n : ",
"* E e q w : % < q p n e S V V e w $ m 4 H <.4 >.I U U I.{./.Y., D i n n 2.U ~ ..E ,.~ F q $ A F z.^ J l.C.[ D } q t $ V n Y V % ",
"$ V.q q q # - 4 j m m n S U C e w + n 4 m Y 4 Y m Y I `._.H.{.: N N C e e.U ..c.R 7.~ G i % ~ ~ L { J z.H.^ V Z.p < $ S G H n @ ",
"$ w.9 e q $ - 4 F k w p M H C n y + q 4 m Y e z.B Y N OX)./.U.* M u F q e.( | [ L 1.' G y $ ! ~ A Y C Y c.U S l.M , @ G A n n @ ",
"O E q n e $ * 3 H J m p n 2.n n e @ < q U P ; ( m 2.m oX{.F.O.$ y q D n 2.n.[ U Y E | ^ a + ~ G V B.n { [ ' r 1.M 4 . F ! n B @ ",
"$ w.; F < $ ; w H r M C P 2.p C 8 + q n P Y ; U n A J Y.%X^ D.@ q u P C ,.Y ^ U i.t.V.G y # G ~ n y.C Y ] [ S z.V y X F S s v @ ",
"o L - 1.4 $ ; = P q M k C Y n w.q @ q n C Y w [ s n >.Y.%X^ N.: < r m B p.C U D f.K.T.G p * G ` A f.L Y _ C.S w.C q + D ! V *.o ",
"O Y - B.< $ - - V y e H <.P p B.q @ p n C n < n.A y I K.{.' Y $ i i m D 2.P U P |.P.R.A i + ' T A f.Y U ] c.G / n y @ ] ~ V *.# ",
"$ L < z.y * = ; m e w m r.C p z.y @ n U I m q / G q M U ]...M $ 8 r u C P P 1.J 2.H.G.U r O | E A u.y.w.| ' S ( M q + ' F A #.@ ",
"* H j n.q * - 4 2.q V C 1.D q N.8 @ 2 E J M 8 w.U q U D (.| G : < j u P 1.U r.I N.S.Z.R n $ | R V 5.a.6.| A F U ^ q # ] R V x $ ",
"$ P < P 8 # < ; Y 0 <.m k.F p U y $ 4 Z.J V p Y A q G P H.D./ $ e p u P w.Y K.2.z.S.| R p $ ] G ] =.p.<.H.( ^ U ] y # G S G l # ",
"O Y , p , @ < w C q y.n 1.V p a < X = [ P k H w.V p n ( _.(._.$ e j M P 2.D K.Y / Q.[ R e + G U E L t.7.A.D +.Y D.y + G F R h + ",
"# Y 8 V < @ - r n e m n U C M G y X q U C V ( m N i M k.F.}.{.@ n n n P I F J.Y Y R...G e # G G q.V.R 6.Z.n [ H ( < X S A U n $ ",
"- Y p C y $ > j n U w H [ n _ C y @ w 2.H n w.r 2.p n ( J.{./., r m V P U D r.U Y '...^ p % ] ~ R q.E E w.V S.H _ , # ! ! T n @ ",
"* L j M u $ , n q Y ; m / n U F p # 6 e.M V Y n 2.y D Y N.OX_.@ h P m P w.Y B.Y q.`...^ p % ] ~ T E 6.U E A | C / < + G G ~ r # ",
"* >.0 F u * , V p ^ 0 m ^ F G U u @ 2 I p H m w U a G Y Y =X}.* m D D H P E z.R 2.R.c.[ V : [ [ R K E U [ G | P [ < @ ] G A e $ ",
"$ Y n U i @ = n w } e n ] V S ^ i @ 2 H M Y P h H n G [ D +X%X@ n C D D k Y S.G Y /.....F @ ] | R R H U Z.F Z.E Y < @ Q ^ C e @ ",
"@ 1.V U 8 X < n e z.q n | A P ( u X ; B C G n C F Y F O.2.+X}.@ j G U D A ^ c.] Y '.~ ` s # ` +.R E A A T.C A.{ U q X ~ ] G p @ ",
"* J.G P 9 o = q q G q n O.n ^ U q o 2 m P ^ j U V Z.G ' I -XOX* m U U C G E V.' U R.G ..a $ ] ..T V.V U  .H C.{ D 8 $ ` ` T n $ ",
"1 j.j D e 1 * y e U q m ( n ^ G w = 3 D n [ u G n Q.D +.U *X!.2 n U G F z.{ +.| Y R.] ] d - ..]  .E L C.T.Y t.| H y = ~ ] G p = ",
"1 L.e n q = - y q Y < j U n ( C y = 4 U J n.8 U Y |.U G.D &X!.; S U U n P U ....J ~.o.] S = ` ] ] E 8.t.U.l.P.H.N 4 - ~ ` ] r * ",
"- z.q p n - , y q U q u P n ~ p m @ 4 U C | q G P a.n./.^ ].A.> D U ( p ( U +.' A Y.U T.d * ` +. .A E E Q.P |.~.A 8 * ^ X.T q $ ",
"= w.; n p < - y 4 A M p P n G P p * 2 G n ..s V P N._./.[ `._.> N P C p { C R.] U H.| ] s , ` ]  .V ,.E  .P  XE.Y i * ! ` ` q - ",
"2 z.q H y 2 < q 4 C C p U P N ^ i = q S p | V G P 2.}./.O.A.!.4 P ^ P n R U R.V.V Z.] ' d = F ..C.P b E ..L |.Z.H i - F G E 0 - ",
"- Y 4 P w - < y q m N q D ^ h / u : y S p [ y N { P +XS.[.H.].> D I c.m r.U R.T.U H.' } p % p ] t.K 6.E.V.j |.Z.P y * p T 2.e * ",
", { q 2.J > < m q n ^ 5 n Q B k.I $ M u V H.u S U P `.(.}.S.{., U Y ,.m 7.Y H.T.R U.q.| y % S ] y.p.L E.~.A W...C y % d G 7.b % ",
"@ H.q C N $ y ( w p P u n D.I N P + C m a D.q G | P F.(.{.D.H.$ m N J I 1.U V.V.P w.C.E i % V ^ y.t.=.W.@XY P.T.H u @ p ! 6.J # ",
", Z.2 n i : y k.< u a u h k.Q W i $ i C P D.w ~ / ( H.( /._ /.$ u p J I Y Y E } | E L.| i @ G ^ A A.,..X~.P A.V.C 4 @ N F C P # ",
", c.p W y > 4 Q r C N q n Q ( Q i $ y D D S.p ^ V.U H.C D.k.P , D C L D D E Y Z.Z.H T.U y * F G k T.H E.$XR p.A.D < $ a p n P # ",
"< | w ) < , < W 8 M V q p ^ P ) t : y a D D.j _ F.! G.V C.o./ : n 1.H D m Y P k.C.F C.( i % F W n A.E B..XU { l.D < $ S S n P % ",
"< Z.r ) < , < ^ r n m < P N P ( < : i D D ^.j ( D.^ R.V H.( N.< u 3.P N F | Y w.O.H S.G y : G F V z.c.Z.A.U U B.Q 4 : S a p N $ ",
", } V ~ < , > ~ q C n 4 _ a N ) 4 : < ) P C.u G ~ ] ).A ).c.n., ; I H D D _ t.w.H.L |.D i * G ` j w.A.C.C.Y U l.( 4 : Q F p m $ ",
"% ' G ~ < $ , D p B n r _ u M ) t $ t ) ^ H.n ~ F ] o.D ).| D @ 2 H P ^ ~ ~ i.Y `.J.P.P i % U ] V E A. .A.P V.A.D.4 @ D G C u @ ",
"* +.p k.< : < ^ < U e j / y n k.< : q _ P c.M ] W G.G.M n.Z.M $ ; >.P D C ~ A.H U.p.W.G s % R G A E Z.^ V.n [ N.n.< $ V F V p + ",
"$ ' p c., $ < ^ < ^ 4 w Q M N /.< @ i Q M | p ^ d F.o.] ( O.M $ 2 >.D Q V o./ I W.A.A.U i # G G G Y V.[ V.n U / n., + F ! V p + ",
"$ ] y o.: $ , _ e d 4 r D D n o.: + u ) S V.p ~ a ] o.V.O.V.V + e H C C P [ _ n A.Z.Q.C i + G ~ P { V.| C.D { U ( , + F F n N + ",
"$ ] p o.% # 8 S q W < p ^ ^ M o.$ + M ' S T.C [ i X.D.~ F.D.H.$ ; k C D N ( U F r.B.R.G i $ ^ ` V J.c.S./.C !./ [ : + D ! p J . ",
"% ' M V.< # i ! i a q w ( V n H.4 @ Q [ P G.Y ^ V | ( ( [ O.{.@ 4 n P C P G ^ P a.i.~.F y # G ~ V u.A.r.V.C H.2.D.< + S ! p *.X ",
"% G p J.4 : 4 d S W 4 e ^ D P J.y $ Q ] p +.7.U n S.` o.^ D.U.$ f L Y r 2./ U G a.a.R.U a # ^ R A d.P.Y.G.C C.Y F.: $ G G V ;.# ",
"- R V A.y * > a W S 4 u 7.N S N.y @ V _ e ~ U ..n /./ o.D.D.F.@ h J k.n Y P U P P.L.~.V p * ^ G V s.7.c.+.A { P O.- $ G V V %.@ ",
"$ [ S S.8 * = p W S w m 3.M u F.y $ M V.B D U | n | o.^._ /./.$ w >.I p n ( z.I 2.H.H.G p * ' U G u.a.B.H.D { Y S.* * U G V #.* ",
"- E F c.y % ; n a D ; p / V y S.y # q C.P n A U V D _ /./ /.[.$ j J ^ j N ^ 3.H z.S.c.G S @ +.' A :.|.t.F.I w.Y | < # ] U F x $ ",
"% R S ~ 8 # * p a V < u P a p ^ 8 $ 4 S.C Y 2.D n n Q ^.N.[./.% j N ~ M m ( i.P k.S./ G i $ ^ G G :.|.i.H.L w.H D., O ` V G z $ ",
"- A F i , % % a y U - j D i a i 8 # - C.n 8.Y K n p ^ D.O.[.}.% q D S p n / r.U U H.P ^ y $ G S U b j.a.A.r.7.3.c., $ F Z A 0 $ ",
", V F F < : $ i q ~ - p Q a a D < $ q } V E G d m i M ( / [.).$ w D V p p C 3.P P V.U ~ y % F S T c a.P.C.7.w.Y ( : $ F V R 0 O ",
"* F ] S 8 $ $ t < P - h S i M p 8 + - P j D p a q y y n I D.~ + 4 n u e j H I p m [ D M t + d i s f i.7.U m H H ^ * $ F F F 0 o ",
"O V E S p # # , > i O , y , y < %   = n * u 8 < < > t q u Q a X < h , 8 e h j q e V i t %   y 8 8 2 H n M q r h u + + G V F 0 # ",
"# G ] A y . X # $ # + # X @ + + + X + # X $ $ + $ # + % @ > % # = = X X @ + @ @ @ X # $ X $ @ + # + $ $ $ - $ , * * + ^ G Z ; X ",
"$ R | ~ y ~ F Z S W ~ ~ G ~ F a S S S S F p M S p a M i a a ! ` W ~ ^ ! Q ^ Q ! F F ^ ] G U D S G F A V r r e n y F S F U A 9 # ",
"O c.] ` T F V d S S s A D V S d F S d s F S d d S F G F Z ~ ` ] ~ ! ~ [ ^ U V F A V S ] P F G S G G A V r h r j r '  .] ` Z 9 X ",
"& q.T F Z Z d d Z F S n n p s p q n V p p r p p M V L 6.L E ] T ~ A G F F Z F A U E A F A n F p p j H E Y w.r.=.7.7.V.E  .T 0 O ",
"0 r 7 q 7 ; 9 9 q 2 l z #.@.-.$.B p p y p p n B m N c c w w q q i p n n w e n r n h l #.v $.-.&.B n n n n N N P Y H g c 0 0 e = ",
"& & X X X O X $ $ $ # $ # # # # + . + + @ $ $ $ $ @ X % # * - * * & @ + + @ @ @ + X o $ # o X @ @ + @ * % * , > , - # $ $ * * * "
};
