/* XPM */
static char *d2FsbF81XzQ_[] = {
/* columns rows colors chars-per-pixel */
"64 64 172 2 ",
"   c #272522",
".  c #2A2927",
"X  c #2E2C29",
"o  c #312E2B",
"O  c #34322E",
"+  c #39352E",
"@  c #3A382F",
"#  c #363431",
"$  c #393632",
"%  c #3D3A35",
"&  c #3F3C38",
"*  c #423D35",
"=  c #413E3A",
"-  c #454037",
";  c #4D4237",
":  c #45423C",
">  c #49453D",
",  c #4D493E",
"<  c #53493F",
"1  c #61513F",
"2  c #474440",
"3  c #4A4641",
"4  c #4D4A44",
"5  c #4F4C48",
"6  c #524D45",
"7  c #524E49",
"8  c #565247",
"9  c #5A5244",
"0  c #56524C",
"q  c #5A544D",
"w  c #5E594E",
"e  c #575450",
"r  c #5B5651",
"t  c #5E5A53",
"y  c #645343",
"u  c #62574F",
"i  c #625A4E",
"p  c #6F5E4D",
"a  c #625C54",
"s  c #635E58",
"d  c #71614F",
"f  c #666055",
"g  c #696156",
"h  c #66615B",
"j  c #6A645D",
"k  c #6E695E",
"l  c #736457",
"z  c #796A56",
"x  c #716659",
"c  c #726B5E",
"v  c #7A6D5C",
"b  c #7C705C",
"n  c #6B6660",
"m  c #6E6962",
"M  c #726D65",
"N  c #7C6F61",
"B  c #746E68",
"V  c #767165",
"C  c #7A7266",
"Z  c #767169",
"A  c #7A746C",
"S  c #7E796E",
"D  c #7C7670",
"F  c #7E7971",
"G  c #827464",
"H  c #847966",
"J  c #8B7D67",
"K  c #80776B",
"L  c #827B6D",
"P  c #897D6C",
"I  c #837D73",
"U  c #8A7F74",
"Y  c #857F78",
"T  c #87806F",
"R  c #8D836E",
"E  c #91836E",
"W  c #868175",
"Q  c #8A8375",
"!  c #8E8977",
"~  c #868179",
"^  c #8B857B",
"/  c #8F897F",
"(  c #8F8A7F",
")  c #8D887C",
"_  c #8E897D",
"`  c #938A75",
"'  c #90877B",
"]  c #90887F",
"[  c #908B7E",
"{  c #938D7F",
"}  c #928B7D",
"|  c #97907F",
" . c #8D8682",
".. c #8F8880",
"X. c #8E8981",
"o. c #918A80",
"O. c #938B80",
"+. c #938B82",
"@. c #918D80",
"#. c #908C81",
"$. c #928C80",
"%. c #938C80",
"&. c #938D83",
"*. c #948F82",
"=. c #938F87",
"-. c #958E84",
";. c #968F85",
":. c #948D87",
">. c #938D82",
",. c #988F84",
"<. c #958F8A",
"1. c #949083",
"2. c #959083",
"3. c #969182",
"4. c #959184",
"5. c #979184",
"6. c #969185",
"7. c #979386",
"8. c #969185",
"9. c #989087",
"0. c #9A9287",
"q. c #9A9487",
"w. c #999385",
"e. c #969189",
"r. c #969189",
"t. c #989189",
"y. c #999388",
"u. c #9B938B",
"i. c #999588",
"p. c #9A9588",
"a. c #9A9488",
"s. c #9B968A",
"d. c #9C9588",
"f. c #9C9788",
"g. c #9C978B",
"h. c #9A938D",
"j. c #9B978E",
"k. c #9D978C",
"l. c #9E978E",
"z. c #9B958B",
"x. c #9D998B",
"c. c #9C988B",
"v. c #9D9A8D",
"b. c #9F9A8C",
"n. c #9E9B8D",
"m. c #9F9B8D",
"M. c #9E9A8F",
"N. c #9E998D",
"B. c #9C9691",
"V. c #9F9A91",
"C. c #9E9A91",
"Z. c #A09B8D",
"A. c #A19A8E",
"S. c #A19D91",
"D. c #A39F94",
"F. c #A49F94",
"G. c #A29D93",
"H. c #A4A094",
"J. c #A5A296",
"K. c #A6A196",
"L. c #A8A396",
"P. c #A7A299",
"I. c #AAA49A",
"U. c #AAA59A",
"Y. c #ACA89C",
"T. c #ACA99D",
"R. c #B1AB9E",
"E. c #AFABA1",
"W. c #B1ADA2",
"Q. c #B5B1A6",
"!. c #B5B1A9",
"~. c #B9B4AA",
/* pixels */
", < * * , t j A 8 - , s M V A Z F A S A W A I W W Z W | a V V S V C S c k i w 6 6 4 6 9 q q a u s a a q : , 7 3 , 8 8 f x g 8 , ",
"0 M V S ) S ! ! T V V ! T W 4.[ @.1.4.) [ ! ( [ v.[ i.[ W ^ 7.4.Q 4.) ! C S c f u u u s s K ..U K K K U C C k A A V S W | ! V f ",
"k W S f t e t s t t a s s m ^ 7.i.v.v.v.J.! 7.i.i.Q J.( v.7.n.1.v.4.I A Z I S M n a h M K U ~  .U ^ Z B M Z c M m k V k C y.{ V ",
"M ( F % @ O O o o @ O O 0 D =.j.i.i.v.n.c.c.4.^ A a a 0 0 Y T.[ S.i.t @ O > 0 j M B K A U U <. .U =.j 7 @ % % * - % - $ 3 q.d.K ",
"S =. .7 = % $ $ # % % e Y j.X.j.i.i.| 4.S j 5 2 8 t 6 * : [ J.7.H.I.F 4 3 : + O % 3 n D ] +.l.u.h.;.l.M.j - = * : * * > 0 M.9.{ ",
"A j.<.m r e r : % 2 M ~ S j.~ 1.i.[ h e 0 7 t n M m t O = ^ =.v.S.J.I.A Z j t 3 = * o 2 s  .A.<.A.] u.d.H.A j t 0 q > * V | 2.5.",
"B  .B.F m m e : 3 I <.) Z E.=.) ~ t e t m h n m h M 4 & 5 #.n.7.3.f.M.Z m n s f a 5 = # * = j Y l.O.9.A.d.;.u.Z M t = < ^ ' 5.} ",
"A =.=.X.j r * 5 ) K.+.<.P.!.=.n n Z V n A M D m m j 3 & e E.J.U.H.7.H.D Z Z M S K Z I M 5 = * 7 ^ u.Q K.A.G.S.A.m = X a d.Z.! ' ",
"A I F W [ 0 5 ~ B.+. .l.P.F n B D Y h m Z s A n j 4 3 > n M.M.Y.H.n.H.A m m A D Z F I Z M n 2 = > A <.F.F.A.] S.U 6 3 U ,.' ^ 9.",
"0 A e.) d.) ~ P.F.G.e.h.D t m Z Z M h s n n n n j - $ 3 I l.e.P.L.L.J.i.M A A Z m Z h m M Z a 3 * : s ^ G.9.Q 7.P.u.,.A.U G Q a ",
"O Z M.M.L.H.^ Z F.B.h.Z s M D B B Y A n A A B h 0 % # h <.G.) ^ M.L.S.T.Z Z F F D D M D n M s s q 3 * 6 ' S.u.+.P.L.G.F.K Q a o ",
"X : Z G.q.{ =.Y ~ ~ ..M D Z D D A ^ Y Z D D B t 0 % 3 F C.C.K.7.x.R.7.n... .~ ~ Y D M B n B Y Y Y s 4 6 s ,.O.A.G.W.F.A.P B > o ",
"O # 4 A | ! B.C.^ i...M B F I Y ^  .D A Y D M t 6 * t e.h.h.e.G.n.i.7.L.>.^ Y ) I D m A D A Y D m a r n ^ ^ 9.F.9.A.O.' Q q q 7 ",
"= O r ~ H.i.G.H.X...~ / I m D F D ~ m Z Y Z j 5 6 8 ( ( =.C.e.7.i.! M.H.) W A I D F A m n r q q A M ..G.l.u.G.d.9.,.,.,.] q 0 7 ",
"O : ~ 7.H.q.E.C.X.W +...I / C.B.=.7.F D F m a 3 4 a ( ) ) P.e.s A | L.>.M.W Z I ) F m t u D ..G.A.u.G.A.A.O.u.F.Q ) A.A.' m t 6 ",
". w =.P.G.7.B.C.e.) ..e.=.~ h.P.j.D.D.c.D 0 7 : , ( M.) +.<.W : q ( 7.i.Y.1.W Z Z m 7 n Y +.G.I.F.A.u.:.U [ u.P.] d.F.A.' I t 2 ",
"O A ~ C.C.( A I X.=. .C.B.e. .J.B.C.^ v.1.t 2 = V L.I.>.j.I s & > V ! L.L.M.Z.F Z 7 s A.l.[ 1.v.A.A.9.A.:.I n 7 s <.A.A.U } s * ",
"7 !  .B.( A t : 2 n D D ~ X. . .j.#.1.#.1.D : 5 2.H.Y.H.C.D s 0 : 3 ^ M.{ Z.>.[ j a ] P.Y.M.~ U.9...Z j e 5 = * 5 j ..G.U ,.U = ",
"i ! ~ B.j.Z a e 4 = 5 2 2 t s B Y X.v.7.W F t F b.G./ >.h.M m h 0 % h Q 1.y.^ I B L O.W.F.&.Z D n B U I B B t 5 = % B U L { ,.M ",
"8 W X.j.C.V M Z M n e 2 O : : = r I 7.A I ^ S U.M.&.^ +.Z m a M t - + A W K.d.>.M.F.=.d.^ u.r h K D B h m B n t = * 7 Z Q ' G U ",
"a e.B.D ~ Y m F F A A M A m r 5 % 4 F ^ i.^ / E.u.M.M.F e 5 5 e w :   3 M.P.i.=.E.Y.S ..v.~ Y Z K Y B B n M t e 3 o % Z K Q P C ",
"h Y =.Y B A Y m n M Z s h Z h s 0 4 Z C.7.i.) 1.u.B.I e r t t t 0 w $ X m M.i.7.G.G.M...=.Z A M B n n B h n s h j % # 0 ! H Q v ",
"m ~ Y B Z n Z Z D Z B D D m m f 4 4 A K.^ ..A 7.l.A. .I r a B B m m 5 = m C.y.7.U.H.>.F F M M j M n B Y D B s t n 6 O : L E H C ",
"B D A A Z A A m h m m B A s j 4 : Z P.C./ ) 1.j.<.B. .G.B.n M n m 7 e A Q C.1.X.H.C.=.! v.Y M n t B D  .D B s h h 7 o + B ` J v ",
"B F 1.A Z A m Z Z D D M Z 4 = 4 m i.E.1.i.C.7.X.v.E.E.B...^ ^ M h t W #.) ) ( ( 4.#.^ J.J.~ Z B B A ~ Y F Z s m t t # + a J J p ",
"s Z D m h m m m A A m 0 : : h A W 1.H.) j.7.7.Z e.H.U.e.&.I ) e t W i.C.F ( 7.M.=.v.j.J.J.1.7.7.^ m D A ^ ~ m A M M 3 # 6 H v c ",
"h m n n m h t m t 0 3 : h X.M.7.) / i.F ) F = O 4 h ^ ) ^ M.) I 1.M.C.U.1.i.M s 7 V v.D.i.S.D.#.Y Y A m D Y S B n h : + : b v G ",
"Z D n s t M r w 4 4 Z W i.C.i.M.7.^ =.i.A = O X @ O : S ^ I ) ) X.D.S.i.1.r 0 f 4 % e ( =.v.M.#.#.7.v.@.D I D j m h : * $ l z G ",
"D Z 5 4 4 t t A ) G.i.M.C.i.1.y.j.7.=.A 7 : & 4 % O X 0 / W I 7.A >.( F e h j t r & o - Z ) n.J.=.E.P.j.1.^ C.^ A Z w * # g b G ",
"~ ~ m  .<.G.2.y.1.i. .H.) 1.L.C.K.l.M m q 0 4 0 0 q $ & Z U. .F.>.X.W m h h t t 0 0 & o # 0 F n.i.T.!.j.J.) ( 1.M.u.I.I x C G P ",
"Y C.F F.~ G.K.W j.>.1.1.i.M.E.=.F m M M 4 2 = 5 7 h 3 X e D.F.B.1.M.i.h t t 0 r t m e 4 % % - t W 7.!.=.X.X.i.) 7.W l.d.P E E R ",
"Z <.G.~ =.y.L.S ..) U.U.X.~ S Z M Z M M h n t r 0 t 0 # 5 Z C.B.h.7.X.j h r f r t s r r s 0 : & = e W =.U.E.e.>.V C.y.9.Q ` R R ",
"F e.X.F E.D.v.U.i.^ v.J.W.D.S Y m M Z A h n h 0 e n r # 0 ^ Z D G.J.A h t r 0 0 0 j m n e r 0 % # & 0 A J.E.1.#.W ) W W T ` b | ",
"Z Y A Z D.i.i.1.X.v.S.S.S.W ^ S.A M M h n h r t t s 0 O h A Z W ~ <.^ Z M V n m m Z I Z f t > % h F I W ) X.) B.W.^ =.S L ! v C ",
"I B A Z ~ X.v.D.( 1.S.I =.S @.^ ( e.M t h r 0 0 0 r 5 . V W X.^ ) P.B.D n t h n m m M m t 5 a ( e.i.[ ^ M.U.X.U.e.X.S ) L ` T | ",
"D I 5 % # 3 t r V X.( W A #.) 1.v.7.j.W j s a t s 0 % 4 F Q ( ^ D +.+.I r 0 h h j h r - t X.v.U.U.S.c.S e.B.e.J.e.F m g j L | | ",
"Z Y m 7 4 2 & : 5 r t m S j.X.W ^ v.1.v.I h 0 8 0 * & A 7.J.W X.A =.^ e.Z t t h h w : s O.Y.A.R.L.L.M.=.P.B.~ M h t 7 @ , Q T T ",
"D +.Z F W m B j r 6 = : e D v.^ Z #.( D.j.e.M e 3 5 S W #.T.Q i.^ e.G.e.U.V 0 V f 3 s M.} A.,.L.L.T.H.W h m m n s s 4 @ 2 4.! Q ",
"B X.M B W M D A h B h e % = k ~ W Q 1.M.J.U.#.h V 4.J.x.[ W ( M m e.J.j.E.e.i.W C A L ' A P } G.Y.Q m j F F n m s m 5 @ 8 4.! T ",
"D F Y F F D Z m m A M t & % O 5 A ^ S.C.S.S.#.v.7.[ n.S.J.W j o = Z Z ^ E.E.U.U.R.[ d.,.I K O.] V M A m F D B Z n s : - j | L ! ",
"M Y B M Z B m B Z M h M s h 3 O # t X.M.y.U.C.v.4.T 4.f.U.W e O $ 3 m >.!.J.W.~.W.4.! #.d.&.S j A I I m I X.D n n t % 4 W n.R T ",
"M I F m Z Z j B A M M A M j h 2 O : W M.X.T.i.U.S.L.J.[ M t t 0 % $ 3 h ^ 7.W.c.W.! ! 7.h.Z S D F D D A Y e.Y M B e > e x.L.| ! ",
"M ~ X.F A I S k M j V Z M j s 5 # h #.W j U.1.1.x.n.i.I M f M m h 2 O = 7 A f.i.E.W T / D I S I Y A Y ~ A C. .F Z 0 3 h J.f.f.| ",
"M F Y I h j M Z M Z Z Z m k t $ 2 A #.^ A >.C.J.U.n.4.A S W A A m Z 3 % f L.H.E.| | Q ^ +.I Y  .#.=.e.X.X.C.C.X.M , $ ^ b.! H.! ",
"j Z  .X.I h A m A Z M t t 7 = 4 m Q W W ( T W i.S.L.n.L.D D D s m 5 o 5 ..1.( 4.( J.A.Q.I.L I ~ <.Y X.^ A j.e.X.0 % , { R.| | | ",
"Z D j.C.~ Z M j s h e : 4 = t Z 1.( Q Z S j t I i.H.T.T./ D D h r $ $ B ^ ^ [ ) [ ! Y.b.2.' L B  .D I Y Z ) F D , * I Z.R.` | | ",
"n ~ ) B.C.C.m r 6 6 r t Z ~ X.J.i.( ) ) A = % h X.i.T.) L.Z m t 2 = s  .i.I ) 7.S 4.n.~.Q F.Q Q [ Y F F W / S 0 + f } L.Z.! x.0 ",
"5 A F M.U.W.m t ^ j.#.Y M.C.i.i.S.M.#.S > 4 : % a Q 3.H.T.) j 4 $ e X.C.C.i.Z g % S b.f.Q R.9.{ Q.J.( ~ ( ( A q , / ! Z.Z.f.S % ",
"# t ^ e.S.i.J.P.W.D.2.Q M.H.C.i.( 1.W 6 5 4 % % = V ( M.L.>.I 5 $ M e.^ U.j.F 3 O 7 Z ^ Q A.T.9.!.L.W | 5.b.b.q.! Z.5.Z.d.Z.j * ",
"O $ F e.) ~ j.J.U.=.y.7.K.L.U.j.) m f 0 h t e % # t ^ 1.9.+...= 5 7.d.I B.e.M t * $ = n A &.u.l.L.i.( M.! ' K.9.y.Z.Z.Y.! G j : ",
"$ o e  .~ Y D.E.E.1.7.q.d.^ Z f w r f q 6 0 0 5 % : Z ) ;.+.^ j B +.Q W M.^ A A j 7 3 % 7 j Z <.B.Y ! I.A.2.L.^ I &.&.T.A.s s q ",
"& # 0 A Y A C.D.T.x.L Z h m m n j j M t r t 0 n 0 $ r ^ u...' &.+.I L A M.m M M M k h u e 4 5 e 0 0 n I ^ &.d.^ S Q A.Y.A.q p q ",
"X 2 D A ) X.=.( I.Z.j k h m n m n m F h n n A B r : 3 Z E.O.9.;.^ <.} L B n M M M B I D Y M n t 0 : 3 e A P.M.[ K C O.I.` P u 6 ",
"O n Z ~ e.@.X.~ A.&.F.B a m j m Z Z A F M B Z n s % # t I.T.9.d.S.=.Q ^ M Z B D Z M Y ~ Y F  .F M 3 $ q K } Q 9.^ K +...P J G 6 ",
"5 M A #.!.^ X.C.;.,.R.R.B s M Z M D Z D n B M M m 5 O 7 Z F.&.G.u.Q ^ ' B Z n M n A F M I D Z D 0 2 7 Z +.&.' M ;.U B U A.p p u ",
"B m Z ^ Z = h ^ Z.d.Z.9.Q m Z m M M D m M M B m M 0 % $ ^ Q d.,.' P.S.K h n M n n n n M n B M 0 : s 7.S Z M G I u 3 * u J 1 l G ",
"s m B D 2 $ o 0 ^ ,.u.U 9.U U e q h m a t h n u j s & O Z M.4.| } C L Z M Z M m m n h m Z n 3 3 B ,.L C G M B Z B = o $ j y p x ",
"A S I a 5 3 O # 6 S [ ) L L C Z g j s q s h s s h s : # k [ T c B N j m s a n n n n n e 7 3 t ^ C C M S I U I Z I a = $ 7 y p G ",
"B Q U a q 0 = O X 3 j x c U C g g a t 8 0 7 e a t t 5 : w S a V C C j 0 a e s n a e % # 7 j c j g i a B t M I D A M e & = g l U ",
"s N B 7 5 5 3 3 % $ = t k c M a g c a i n e e 7 e t 0 & & m w v C C k j s 5 2 : & = 3 a n Z s p a i M c t f M s e 7 7 = $ u v l ",
"a c g : 5 3 5 3 5 = $ + 0 h j g f C c u c g c a s s r = : h c C N x s 6 2 3 3 3 q q a g g S i f 8 g j w e e 5 7 5 7 7 = $ s l l ",
"8 u u 0 a a 0 0 7 7 = : : a k a f M c i c x f 9 q a K a q g c C c j j s s s u q 9 8 9 a g c < i 6 a 7 h h a s n j m n j a B u m ",
"< 6 6 9 9 j j u a x 9 a j g g M M k k a w q < < 9 u 7 4 9 i 9 x f i x M a 8 4 0 0 6 9 8 i i ; , 6 0 a q a p u a q s a 0 u p u u ",
"* 6 , 6 9 g 0 6 6 9 > 6 6 u 9 k f 9 u 9 3 ; * * = = * + @ - - - , 9 7 u 9 , 6 , , 6 - - - < - - - ; 6 8 u 4 4 ; * = = * = 1 * * "
};
