/* XPM */
static char *_3305ecd0f814fbdf567928b4f6644e2klIkHKhPwwZJ7VT2[] = {
/* columns rows colors chars-per-pixel */
"64 64 190 2 ",
"   c #2E291C",
".  c #32271B",
"X  c #342B1E",
"o  c #3B2C1D",
"O  c #3A301F",
"+  c #362E21",
"@  c #3A2E21",
"#  c #363022",
"$  c #3C3223",
"%  c #43311F",
"&  c #433524",
"*  c #4A3524",
"=  c #453827",
"-  c #4B3A26",
";  c #433728",
":  c #483728",
">  c #453A29",
",  c #4B3D2B",
"<  c #533C26",
"1  c #593D25",
"2  c #523E2A",
"3  c #623F26",
"4  c #4C412D",
"5  c #54432C",
"6  c #5A462D",
"7  c #554A2D",
"8  c #5C492E",
"9  c #554631",
"0  c #5A4730",
"q  c #574931",
"w  c #5C4B32",
"e  c #5C4E38",
"r  c #5E5033",
"t  c #5E5239",
"y  c #62462D",
"u  c #634B2E",
"i  c #6A4C2D",
"p  c #734C2C",
"a  c #794C2D",
"s  c #75532E",
"d  c #7B512C",
"f  c #634D33",
"g  c #6A4E32",
"h  c #614E38",
"j  c #734F30",
"k  c #794D31",
"l  c #655135",
"z  c #6B5235",
"x  c #6C5936",
"c  c #65543A",
"v  c #6C553A",
"b  c #66593C",
"n  c #6C5A3C",
"m  c #735435",
"M  c #7B5534",
"N  c #745936",
"B  c #7C5A36",
"V  c #725639",
"C  c #795739",
"Z  c #745B3C",
"A  c #7B5C3C",
"S  c #6E613E",
"D  c #75613E",
"F  c #7A613E",
"G  c #6D5C41",
"H  c #735E41",
"J  c #7A5E41",
"K  c #6F6142",
"L  c #746243",
"P  c #7C6343",
"I  c #7D6945",
"U  c #756448",
"Y  c #7D6649",
"T  c #756948",
"R  c #7C6949",
"E  c #84552C",
"W  c #8C532B",
"Q  c #8D5A2D",
"!  c #9E552C",
"~  c #935B2E",
"^  c #995E2E",
"/  c #825632",
"(  c #825A35",
")  c #8B5D34",
"_  c #835E3B",
"`  c #8A5F3A",
"'  c #905E33",
"]  c #8F6135",
"[  c #84623E",
"{  c #8C623C",
"}  c #956031",
"|  c #9B6434",
" . c #956238",
".. c #976639",
"X. c #93653C",
"o. c #99663A",
"O. c #94683D",
"+. c #97683F",
"@. c #9A6B3E",
"#. c #9C6A3D",
"$. c #9C6A3D",
"%. c #A26D3E",
"&. c #A7703E",
"*. c #825E42",
"=. c #885F40",
"-. c #816342",
";. c #876342",
":. c #816442",
">. c #836643",
",. c #826647",
"<. c #846447",
"1. c #836444",
"2. c #896440",
"3. c #8A6542",
"4. c #816947",
"5. c #846844",
"6. c #856B47",
"7. c #836946",
"8. c #896C47",
"9. c #8B6A45",
"0. c #806548",
"q. c #846649",
"w. c #8B6749",
"e. c #896748",
"r. c #826949",
"t. c #876C49",
"y. c #846B4A",
"u. c #886A49",
"i. c #8E6948",
"p. c #896C48",
"a. c #886B4D",
"s. c #8B6C4C",
"d. c #956F46",
"f. c #936A43",
"g. c #9B6C42",
"h. c #906B49",
"j. c #936D4B",
"k. c #87704C",
"l. c #85714D",
"z. c #8B7049",
"x. c #89704C",
"c. c #8D734F",
"v. c #8B744F",
"b. c #8C724D",
"n. c #937249",
"m. c #93704F",
"M. c #92734C",
"N. c #9A744C",
"B. c #9B7C4E",
"V. c #826D50",
"C. c #8B6D51",
"Z. c #906F50",
"A. c #857550",
"S. c #8C7352",
"D. c #8B7A51",
"F. c #927454",
"G. c #9A7451",
"H. c #947C56",
"J. c #957A55",
"K. c #9B7B54",
"L. c #917658",
"P. c #967B5A",
"I. c #9C7C5A",
"U. c #A0744E",
"Y. c #A17752",
"T. c #A27C55",
"R. c #A17C58",
"E. c #9D825C",
"W. c #A5825C",
"Q. c #A9835A",
"!. c #AB885E",
"~. c #9D8362",
"^. c #9C8769",
"/. c #9F896C",
"(. c #9E8A72",
"). c #A28564",
"_. c #A28965",
"`. c #A68D6B",
"'. c #A48B6C",
"]. c #A88D6A",
"[. c #A88D6D",
"{. c #A88E6E",
"}. c #A98E6D",
"|. c #A18D73",
" X c #A88F70",
".X c #A69176",
"XX c #AA9274",
"oX c #AC9578",
"OX c #B1997A",
"+X c #B49D81",
/* pixels */
"$ t.u.z R v n.#.l >.n s f x S 4 @ R K c 3.8 b L v z v n 5 v v : $ [.h.v Y Z  .V v z l 4 L i V X $ 8.8 n f g 6 5 L 6 l 5 M 5 6 & ",
"% s.,.i z.B d.#.u K V s z S b > $ K n n I f D 6.A w f Z 0 w f - & [.i.n Y a.*.c c l 5 7 L 7 n o & 6.f n l V 6 l v 6 r f ) 5 6 < ",
"* I u.z c.m >...i K n i l S G $ * U n c H 0 P 4.) z n V 6 v v & * [.J H P C.C z f f r w D 8 l X & I V f v Z q l z 6 w r _ 2 6 < ",
"@ 4.P f S.A L O.8 S { d l K K 4 # K L c F f L 4.` m V B y V V & % '.*.q.J j.z H w f 8 4 n q l + $ Z V - Z n 5 f z 7 w t :.6 6 - ",
"@ A K Z z.N H { l t.[ a F D S $ $ T G D [ l P I { g f V 8 z C - = {.A H.<.w.g G z 9 q w P 9 f + O x [ 4 v n 5 w f q 8 l V 2 6 , ",
"$ Z L Z N.B I { z z.{ d s D S 4 # L G Z F l I I :.u Z A f f g - + ].J I.u.1.g h l q f 5 F p h $ O f f.5 v v 6 c V q 6 w z y 4 ; ",
"= n K L p.x P :.l t.f.p F [ D > $ H G P [ x L L 1.i A m f 9 v - & _.Y P.e.*.h f z 5 r 8 P W f $ = x 5.6 w n 6 f x 0 0 e f z , , ",
"= v K L b.l P 3.l B.{ 6 ,.[ 7 $ & c v H A x L L i.j ;.C 6 5 x - ; P.a.I.;.G C y N 4 l 8 Z Q z $ & V [ y w G 9 w V 2 l q Z z < 5 ",
"= F L L S.z 6.Z z d.B 7 Y E 0 ; = l Z P F l L L P g 3.V y 9 z , , ~.C.W.a.J =.y V 1 z u F C u = , V N g l Z q 6 Z < e q L V 6 5 ",
"& x D D N.f >.V l P A 5 H _ 8 $ ; l b Z ( N L Z J 6 ;.V f w z 2 : ^.S.G.*.J C 9 i M D 9.>.L w & = L r A w c 9 7 l q q q n z < 5 ",
"$ B D P k.w ,.v l F A u P [ 8 = ; z c n B D [ 6.3.w ;.g f h h 2 , ~.K.s.*.=.C f p ( 6.F ;.,.5 9 = >.5 >.4 x 5 e f w q q z 0 , 5 ",
"$ B Z c.,.l P f l P F g Z A 5 & $ l w n ( x I 6.I f J v y h h 2 ; ~.R.a.e.H C j p [ [ m ) g 6 5 ; <.w n 8 n f c f w 9 6 z 6 6 4 ",
"# A A f.P 0 P f z ,.A M H Z w > # n l n { F L H J f Z _ f f 0 , &  XZ.P.j.V v g p B ) 5 ` m 5 2 ; 8.8 l v G w 0 f f 0 7 v 6 6 > ",
"# Z m 4.Z f :.l n I A s V m l 4 @ P c n B V q.H Y w V 2.8 v 0 , $ XXq.Z.G.V A g m u Z 5 [ z < , $ 5.w Z A n l m m z f 0 v 7 f ; ",
"# z z I L v P w l L V f N l b , # L l n C N Z I H z J ;.0 v 0 ; $ |.a.C.Y.f B g 6 z 1.6 P V 6 = & I z V C l l f m V f i V 6 0 = ",
"X m >.u.I l _ w Z H V 8 B 8 c 4 X U v J L B Z H n V >.C w v w $ + /.<.J.U.g C f w z A < C C w $ + I f v ;.v f z B [ i y m 6 0 # ",
"X Z v J ,.v B h H G V l ] w c , X L c P [ X.n Z c v C ` z v 5 $ $ '.H R.N.M l n 0 l D - F V 0 & & R H w 3.V z z l B u g _ < 6 & ",
"+ P n H i.x :.l J G m m | l n 4 X L v 4.O...c C m z g X.g g w $ @ _.H W.d.) f m 5 l P < [ V l = $ :.3.c <.A m c 6 V 6 l ( - 6 & ",
"@ 1.G c i.f A f Z n z m ~ l b , + Z l ,.f.g.V v u i V C V f 9 ; $ H.L I.d.j 5 V 6 x P 5 z x z , @ P d.l Z  .V w q n 5 f g 5 6 & ",
"+ 1.Z c <.n Z e n Z B ) ' l x 4 # A n R 1.*.j _ 8 f V A V 0 w $ @ c.Y I.Z v 9 Z 6 D ,.< x B F , X y.j.w V +.V f 7 A 5 f z - 6 & ",
"@ ,.H c <.L Z c l Z ( ` Q c n 9 @ I H L 1._ V ` f i V C V e f $ & J.P i.c H 0 Z 5 D [ 5 l ( 6.& & I j.w V <.C v 6 { 8 8 m 6 5 * ",
"@ P G c P ,.V c v >.E { E n r 4 # N n H J J C f.f M F [ V 0 f $ @ E.4.C.C Z 0 P 7 x [ 8 z ( 8.= = P L c n >.x { 6 5.6 l B 4 5 - ",
"X Z n c P q.V L w >./ [ m N c 4 + N n n i.C m ` 0 z h ;.V 0 y & $  XF.s.J c w B 4 l [ x x N 8.o # D w l v { w  .6 D f l ( 4 6 # ",
"@ 6.H n A <.m Z 8 A B x Z N l 4 X z v H a.J _ =.u f v C v f f & $ oXP.i.*.f f :.v v N P z Z A & # P H c n >.v z l x z u l 5 6 & ",
"X t.P L Z J g A 0 A m z B n c 4 @ Z n K s.A v =.g w V V A f f - & |.I.2.A f 0 F z [ 8 [ l x ;.& $ 4.Z P v P A 8 A z x l 6 f f & ",
"+ y.y.J Z *.g Z l v l B x b l 4 $ P n G C.B J { i f C F V f V * ; .XT.:.*.v w L x [ i A z f { * $ z.Z J z ,.m 5 t.8 N l i u 6 ; ",
"@ R Y y.J :.V L l Z V N z x n 4 $ v.n L s.A Z _ m i V m z V v - ; oX).;.L n l L n A 6 V V l [ & $ c.Z L n F C 8 4.w D w u f y = ",
"+ y.Y P A :.V P f L l l n n H 4 @ t.n L y.m G A ~ 0 V x v h z & @ +XR.v ,.L z 4.V N x V F v M $ $ v.I G n y.v 0 k.f V 8 6 z 5 $ ",
". V.y.A P A Z 3.f P l l Z x U 4 + L G b y.A n I ] f Z v v v z , @ OXW.[ I n 4.,.z n v m V N M $ # I y.A D u.v 6 6.9 Z z 5 n f o ",
"o l.a.V P C A A x L z l Z n b 4 X R G c y.m H I C f Z V v n Z , * oX!.A L v ,.P v l Z f P V g & & [ P >.n t.l 6 n w c g u n j % ",
"* l.c.z 1.V Z B z P A m Z n G 4 * R L G a.C I Y ;.f P J z Z Z ; < {.!.V P n z.L n v G w R l x - % 8.Z ,.z ,.z 5 J f f c g z ! y ",
"* t.s.l Y g i.{ A { [ N x n K 4 * P L G h.m L P [ f Z Z f L v , * _.Q.v S.Z %.:.F F Z 5 t.( F & < 6.z P z A z 5 P 8 c 0 N 5 k 1 ",
"$ p.u.z U Z n.$.g 5.V m l G U 4 $ y.L n 8.z n y.Z V n J 0 C G 2 & XXR.n a.<.%.Z Z n n 7 k.m F $ = c.l I g A f 6 L 0 c w ( 6 8 - ",
"% u.q.g u.B f.%.z U N s 8 K G , $ U L H 6.l U b.;.f v P h G H , , {.j.L C.S.i.Z Z Z w r l.z Z & = M.N D x A f v D f c l { 4 6 < ",
"& y.:.z C.M <...i L Z m l P G , - L G n 6.8 I z.X.x Z Z y G J 2 * ].3.y.a.I.[ D v Z v x I v n ; - c.5.z C P f V v 6 r v C 0 0 2 ",
"& I I v S.V P +.u I 9.d x B G ; $ L H H ;.l R s.3.g C 2.j A J , , {.3.S.q.K.V P c Z x 0 I w c ; & M.F u L Z f H g w z c f 6 0 , ",
"$ H U H u.m L { l b.<.s _ ) G ; $ U H I ;.V I y.J z C { v / V 2 = {.q.E.Z.G.V H v D c w z.n 8 4 = B.` M q.v f P z w ;.v w 0 8 , ",
"+ Y y.q.8.C y.X.m M.O.d _ M c ; # U n :.J m I I v f V C C k f : # XX,.I.j.s.A L v F D 6 p.c s 5 O E.V C f.f 0 Z f f i.n 9 0 l $ ",
"@ P R u.P V P >.z z.f.d J G G 4 @ H J h.V H H A j g A V C / w : $ _.H C.P u.J P z [ L 6 t.Z Z > O z.V J i.f y f h 6 N.Z 6 5 w ; ",
"$ L L M.J n ,.;.z K.3.f H G t $ $ G G a.v Y r.C m g H v v / h : ; I.J <.z b.V Z g 8.J f S.n Z ; > 6.K P 1.v 0 n V y ,.V y w l , ",
"$ Y R u.P G ;.C v N._ z P f t > $ U G J h q.J C v f J v v V *.* ; I.P r.l t.n 4.V z.L g c.Z r ; = P 0.J P h 0 v v 9 U f 3 g w , ",
"$ P R a.P J *.c v P J Z A f t , $ G c *.V Y *.A J 0 J n z V ( ; ; ~.J q.w p.Z H.z ,.J z M.v n = = H Y C H C < V g f q.n 6 f z , ",
"$ y.R y.=.>.P n m I F P C 0 n , ; U G g.m <.*.3.J 6 H v v C j @ ; ~.1.y.g C.L P.Z K L u t.v Y @ ; J J G v 1.6 z A c Y c 5 v 9 : ",
"# A.C.N.3.u.>.1.f ,.Z <.n h G , # U G f.{ J.Z { v 0 G h G v V % $ P.I S.n Y Y S.v H c g S.C H & & H Y v e <.f g m v P w 0 H 9 = ",
"@ A.I i.A u.:.n 0 U c L h e G , X T c N.f.i.V 3.v 5 H G Z v ( & = S.5.,.z ,.Y S.<.c L f 6.A P = & V e.m w ;.g y I w y.z f l w & ",
"+ b.Y u.c q.C n 6 U n H n G t , + R c u.>.d.V P h 0 U c v g E o @ q.,.L L P y.V.q.t P f ,.f Z , $ n w.V c A 6 2 J w s.c f 0 w ; ",
"+ A.Y ,.c y.v H f P n L H f t , # U c q.<.;.f P v 3 *.v z h g $ @ F.y.,.I Y P S.*.e J 0 t.Z L , @ h C.f n J v 9 c f >.v 0 w 9 + ",
"+ S.;.P l y.V i.l r.J H _ 6 G 4 + G v y.,.` w H 0 9 J v v z i $ $ _.Y C.Z q.L q.G h I m v.v 4.4 $ e C.n P 1.f 2 G w n H 5 w 9 $ ",
"+ y.I Y c S.{ y.0 Y _ >.~ q c 4 + U c y.f.X.v G g f G g g V f $ @ '.J J H H *.J c z F N z.C P 9 @ n i.v Z *.0 6 c w L P 5 c 9 & ",
"+ P Y ,.f S.V P l U >.X.| l b , $ P c y.f.@.n v g 0 H *.6 A M * $  X<.H <.G r.G n z F ] 6.f >.9 = ;.g.A V J f < G G L A 6 f , = ",
"@ 4.y.y.v b.z H f L L M ' r t 9 $ H c S.f.g.n Z y 6 v C f *.k - & |.q.<.Y P Z.v y.f I Z n f L < & J j.n Z X.f 1 G G H f 6 r 6 & ",
"$ P c.4.f F.A n l U [  .) t n 9 @ L c R ,.*.C A 0 0 H v 0 V M & @ /.V.J V.J *.h J f I V N m <., = P j.f c  .j 6 v G v y f n 5 = ",
"$ I a.L Z y.J A g Y _ g.Q l x 4 $ y.c P y.C V ;.0 0 v f 0 C C = @ |.C.J a.J v h I z Z Z V A z.% @ P i.w c 3.f < v c Z i 8 x 5 ; ",
"# <.Y L G a.V B s I ] $.E l t 4 # G n L Y J C 2.6 w H v 0 G g : $ |.L.Z.Z.H g h Y f V _ C m 8.& $ J J f c J f - G e Z 6 u l 6 = ",
"$ P I b c F._ _ / ,.O.%.i b c 4 # G n v u.Z V ` 6 w H c e c v & $ .XP.0.<.n f L L f B _ [ x u.o = n c c w V f < J w Z 8 8 x 4 ; ",
"$ D.I U c s.A _ ( ,.f.$.i S t 4 $ L c Z a.V Z [ 8 l v f w c v ; ; .XL.*.J c f P J z c P [ N 4.& # H v c e n f - H c n 7 f x 4 > ",
"$ D.R U Z u.A B z P +.%.y b t 4 # K G L y.x l B 8 e B z h h g : $ (.L.;.V f w 8.:.f c n P m 9.& # P Z H l H m , <.u v 6 x L 5 = ",
"+ R V.J G >.` Z x y.{ &.i l t 4   D G n u.V Z 3.g f ] B v f 3.- + (.G.J Z G t 3.Z c c v A 8 g.* O 4.z V f >.g < ,.6 c 8 s F 4 O ",
"X R U r.H A ;.V A 6.[ g.8 c b 4   l.n L u.m n A p 6 _ f c h Z - # .XE.A J c 8 s.V v c l A i 9.% . I L n g P i 6 L 8 n f u D 5 O ",
"# R r.P Z J P _ z L V ( 8 l n 4 + y.n G a.m t Z Q 5 n 0 c f Z : $ oXZ.h H n c s.v l f i L l [ . X t.H v c H f 6 5.8 L u u F 5 O ",
"# A.R H L A I ( z H L B u b S > X R b c y.m l L ( 7 n w w c n * X .XK.C H c Z Y v Z V 6 G w A . O L L V n I f 6 L 6 n u u I 8 O ",
"# R V.Z P z H A m L C ( i S t 4 X P K c Y x G L m 6 n c l n v - & XXW.m n r L L v g v 6 L f m o X B A V f J f 5 Z 5 w u u F a % ",
"* l.C.z I m D _ z D [ ] 8 S b 4 & U G c q.z S H A 8 Z Z f c f = * XXT.v L l <.Z v 0 l 8 L 8 V o * B x Z f J z 5 Z f f f i i ! 1 ",
"& A.s.c L l 5.( A [ [ s x b b 4 & L L n u.i n H A w v v 6 v c = * XXG.l P n o.V Z x z 4 [ m Z o * H f H f m i 4 L 5 r w m 6 p 1 "
};
