/* XPM */
static char *_663013566002[] = {
/* columns rows colors chars-per-pixel */
"64 64 222 2 ",
"   c #33291E",
".  c #352C25",
"X  c #362D28",
"o  c #3C322C",
"O  c #3C3325",
"+  c #3F3935",
"@  c #383431",
"#  c #402C27",
"$  c #493627",
"%  c #41352B",
"&  c #453A2E",
"*  c #4B3A2D",
"=  c #4A3428",
"-  c #533C2C",
";  c #5B3F2E",
":  c #513627",
">  c #453C33",
",  c #4B3D32",
"<  c #433E39",
"1  c #483F39",
"2  c #4C3730",
"3  c #533E32",
"4  c #4E422D",
"5  c #54422F",
"6  c #5C432D",
"7  c #4C4235",
"8  c #44403B",
"9  c #4C433A",
"0  c #4F493D",
"q  c #444137",
"w  c #544434",
"e  c #5B4534",
"r  c #554936",
"t  c #5C4934",
"y  c #53453A",
"u  c #5B463A",
"i  c #544A3C",
"p  c #5C4B3C",
"a  c #5B503D",
"s  c #60462F",
"d  c #624634",
"f  c #6C4734",
"g  c #634B36",
"h  c #6C4B35",
"j  c #624639",
"k  c #634D3B",
"l  c #6B4E3B",
"z  c #68473B",
"x  c #734E3A",
"c  c #7A4F39",
"v  c #754E34",
"b  c #665136",
"n  c #6A5236",
"m  c #65513D",
"M  c #6B523C",
"N  c #6C593E",
"B  c #735236",
"V  c #73543D",
"C  c #7A553C",
"Z  c #73593D",
"A  c #7B5A3D",
"S  c #464441",
"D  c #4C4642",
"F  c #4D4A42",
"G  c #4E494B",
"H  c #594741",
"J  c #544C43",
"K  c #5C4D42",
"L  c #544D4B",
"P  c #5A4F49",
"I  c #565143",
"U  c #5D5244",
"Y  c #55524C",
"T  c #5C534B",
"R  c #5D5949",
"E  c #56584E",
"W  c #5C5551",
"Q  c #5E5A54",
"!  c #5F5C5B",
"~  c #5E575A",
"^  c #624E41",
"/  c #6A4E42",
"(  c #645343",
")  c #6B5443",
"_  c #655945",
"`  c #6C5944",
"'  c #63554B",
"]  c #6B564A",
"[  c #645A4C",
"{  c #6C5B4B",
"}  c #735643",
"|  c #795643",
" . c #735B44",
".. c #7B5B44",
"X. c #72564A",
"o. c #785649",
"O. c #735C4B",
"+. c #7B5D4B",
"@. c #625651",
"#. c #6A5651",
"$. c #645B53",
"%. c #6C5C52",
"&. c #645D5A",
"*. c #6B5E58",
"=. c #735E52",
"-. c #7B5F52",
";. c #725E58",
":. c #5F635F",
">. c #6E604B",
",. c #756044",
"<. c #7D6144",
"1. c #74614D",
"2. c #7C624C",
"3. c #7D684F",
"4. c #6C6154",
"5. c #6C615C",
"6. c #67635B",
"7. c #746253",
"8. c #7B6353",
"9. c #7D6954",
"0. c #74645B",
"q. c #79655A",
"w. c #76695D",
"e. c #7C6A5B",
"r. c #766855",
"t. c #7E7155",
"y. c #6B6461",
"u. c #626265",
"i. c #746661",
"p. c #7B6560",
"a. c #746A66",
"s. c #7B6B63",
"d. c #766D69",
"f. c #796D6A",
"g. c #7C7167",
"h. c #7D7271",
"j. c #825A3D",
"k. c #86543C",
"l. c #82603F",
"z. c #815542",
"x. c #825C44",
"c. c #825D49",
"v. c #8A5F49",
"b. c #8D5F41",
"n. c #915F4A",
"m. c #805F52",
"M. c #836245",
"N. c #8B6345",
"B. c #83644C",
"V. c #8B644C",
"C. c #85694D",
"Z. c #8D694C",
"A. c #946647",
"S. c #92664C",
"D. c #946A4D",
"F. c #9D674D",
"G. c #91704E",
"H. c #836553",
"J. c #8A6652",
"K. c #846A54",
"L. c #8C6B54",
"P. c #836658",
"I. c #846C5B",
"U. c #8C6D5A",
"Y. c #946651",
"T. c #936D53",
"R. c #9B6D54",
"E. c #926E5A",
"W. c #9A6F5A",
"Q. c #8B7052",
"!. c #8B725D",
"~. c #86705A",
"^. c #947354",
"/. c #9B7256",
"(. c #93735C",
"). c #9A735B",
"_. c #9A7A5E",
"`. c #957A5E",
"'. c #A3745B",
"]. c #A47B5D",
"[. c #A7775B",
"{. c #836D62",
"}. c #806F69",
"|. c #857263",
" X c #8D7363",
".X c #84766B",
"XX c #8C7A6B",
"oX c #8E736C",
"OX c #947662",
"+X c #997661",
"@X c #957B64",
"#X c #9B7A64",
"$X c #947C6B",
"%X c #9A7D6C",
"&X c #847571",
"*X c #857777",
"=X c #A37B64",
"-X c #AB7D64",
";X c #A07A65",
":X c #B17C61",
">X c #9A836E",
",X c #978168",
"<X c #88827F",
"1X c #998279",
"2X c #97887B",
"3X c #A4846C",
"4X c #AA856C",
"5X c #AC866A",
"6X c #B3866D",
"7X c #B3886F",
"8X c #A28674",
"9X c #A88A76",
"0X c #B28B73",
"qX c #B78A76",
"wX c #BA937C",
"eX c #B5977F",
"rX c #C1987C",
"tX c #998F85",
"yX c #A48A82",
"uX c #BA9782",
"iX c #C09D82",
"pX c #C8AC93",
/* pixels */
"k u J 7 | z.c.2.l  .t K W ' { ).2.} E.O.k O.H.O.e w p I ' $.5.4.) D ( <.U ) ) ,.O.[ 4._ ) 2.k U U m 2.K.V M.x.{ W i.{.) w ` } ^ ",
"F J p , P... Xu M 8.y 8 J 7 n  .y 8.n ) _ 8.g M w y a i ' [ [ N z.o.` O.u O.V ) H.=.L %.e.7 Y 9._ i [ M n X.M _ @.&.y.#.p T _ J ",
">.R ` t.1.~.8.p { ^ L q U * ` +.( { ) +.U ] ) k j u ( ^ H y { R...<.....H.M.h ) ` %.$.[ [ >.U O.q.) 2.O.2.7.L.) F L #.=.) ( ( ] ",
"|.( 8XD.~.w <.a ] U , p t p p  .n ` ] M ( y m t n ` %.) O.+.x M.Y...M.M !.Z L.8.( q.$.[ >.1.(  .I.<.!.K.{ M M y J K [ =.o.V ( iX",
"I $.p u ..b ,.F U p ^ % p ..,.^... .) y ( n ` <.n 3.1.e.1.2.| n C.,.t  .w Z | I.{ *.>.4.<.L. .,.l 2.l | m p w 7 t m U ) ) ^ ( g ",
"| m ,.m C. .& 9 [ y ,.p a <.1.+.1.+.u k t M V K.k 1.7.7._  .V z +.V h ) K +.2. .[ ;.7.O.m ` |  .T...} B.(.!. .) 2.B.X.( ( } g V.",
"'.=X>.~...t a ` _ ( Z.p >.O.X.9.V } 7.m B.m m { ) { { _ ( l d M Z N ) > [ ( _ p I w._ +.I.7 M 7...<.O.x.N.6X'. .` d u ..) _.x.'.",
"N./. .>X3. .K.<.( 1.^.K U O.( ) x `  .M.M i ( O.~.Z.M ` } V ( K.8XM 9 J 9.4.p u _ 7.@.i V ) X.p / U.2.] 3 K 9 | n m B.C.A C.N.T.",
"M.m U 9.t m C.g 2.V.m t U { +.} K y V.N. .| L.N +.7 g ..) ) 7.p e =.i ] [ U ) ( K > J ^ l j 1.i * _ X.H U u ( ) & p M.L. .1.U ].",
"m >.4.4.V.N.n X.m M a ) a a N m ] +.} u ) ) ; ; k ( _ e t b t ;Xu ' K _ #.K ( p y D $._ { 7.>. .u P y.] _ 8.] ] > w  ...` ` r.w ",
"2.9.[ 1.<.n _ r.>. .>.%.U i ,.>.3.<...<.B 5X/.B d V m n k ` ) ..H p _ o.( / p H y D d.Q @.r.) w _ ) ( {.p p { } > 9 P.) H.( ) N.",
"1.{ ' J J J [ T $.1.1X0.` K.L.O.{ 1.e.=.Y.).x  .m B.+.Z 9.o.7.8 k p p w y } V.] k ' &.W [ 7.+.H._ ( I.7.K ) | u D [ P.l d ) J.U ",
") +.0 G ! @.[ < T ' ` ( B.U.] U J U ( ( n f 6 - g 8.H.V j 6 . i y y +.y y ) V ^ ) ;.6.W T K ..(.P.O.K P p z 2.x.d K m x k , k p ",
"_ #.W y.5.T J < q U } ..3. .{ $.w.s.i k w t e e V.OX2.O.' g / P.u O.2.y > OXB.-.O.8.%.X.1.( V J.| } J.;.u / 1.| U.] p +.( Y $.P.",
"@.$.L @.T T K i a i ( X.H.O.f.R T #.;.( $.^ ) o.V.,.X.8.( ).l $Xo.H 9 , ) ..l e } ] ' w p k ) ) X./ +.{./ -._ ] +...V g ^ P u.( ",
"$.' k 1 T U { U u _ ) V o.( y #.p.;.=.' 9 u l V o.o.c.{ H.A ( E.| m 9 p ^ K ) k X.) r } m p p ) k ^ u +.=.s.W %...A ..) l {.*.E ",
"' m I.y 0 > ) X.L.5 ( | +.p K { &.*.] *.K } ^.h ) w +.H p / d l * m.k U.8X/ ; U.H 8.x V j u ) ) X.A w X.8.|.T i O.) 2.J.9.L.XXY ",
") ,.M 0X..9.( J.+.V | ) ) u ^ H K [ #.1.) | g / , J l $X{ w u 3 p } | M ^ v.| h w ) } l k d } | l U.L.,.l M p % H <.Z.| +.U.{.i ",
"OXf c.l } D.C.Q...J.A g { { O.) T w.#.a ( u & y H T [ 8.8.H / | } f C n.o.P.w g - l d 6 k o.W.) +.b.M g m ..d i ( )  .) P.%.X.P.",
"J.-Xc.X.%X....d l g l O.{.K 9.E.r.8.4.#.> 7 y T u 9 ~ I ' T | '.W.(.(.M #.&X/ C C.l e 5 ( b B. .g V.L.l ) p ( o.( { U.} V J 9 !.",
"2.qXJ.C. .9.t t ) ( } O._ 7.o.^.9..X` %.u w I 0 > i J.y i ) ) ).N.z / ) 2.b k Y.+.* - z f { ) ` 2...L.B.M ..^.1.{ I.P.<.] U w.Q.",
"Z C.n t U J.L.A.j. .B.2.p m ( I.C.#.r.' ` y F p M O.2.p 9.U.| } | J.l o...- ) [ ' y l b M O.( 8...m ..M...V N 3X1.7.7.J.L._._ 3.",
"p w n p P ,.M.D...2.M.5X#X9.U ) m T Y i ] %.S ( ,...K.D.C 6XwX=X2.H < l L.| M.,.g V.....U.) R -.V E.=X-X=X .Q.^.} O.X.+.8.+XU U ",
"f.7 o.` k A <.` 2.L.V ].eXq.P.7.3.y 8 p 1.5.:._ ) 7.L.B.OXx.) _ [ 5.#.q.+.T.M.l.C. . .N.+.8.H k $X!...R.h <...n k M L.J.k _ O.$X",
"*.=.( ] - m +.P.h V M z s.{ @XO.4.( y M %X( H K { } V ) ] H 5.tX&X' W 7.| L...3 j.Z M e ) B.( 9.OX{.) j.g d } 6 t X.M y 9 #.q.h.",
"{ 2.) > > ( u C b.o.* V k } ) 0 F i w q.-.;.|.^ d } X.%.] y.[ L J S L [ ..5X) l V.H.* 9 X.V.) p *.*.7.l - h k ) k p k r J.y.u.L ",
"7.U.2.O.9.m l x.| M w 2.+.` J > o *.2Xp.' y g u ..( ' 5.6.R ' R #.&.P L ) N.C.E.x.H.3 9 ) ` $ 7 8 $.p.<.^.Z.<.e Z.m t ` ] T &.w.",
".X`.P.n ^.<.N.Z.L.U.0XY.S.J.) L.e.q.&.' 9 P x l x.2.J U 0.|.p.P 8.T J 7 u .. .+...l k t u u p p ' $.8.7.k 7 a A <.0X<.2.R F 5.&X",
"_ K.C.M.Z.C.M ..L. .C.6XK.K.8X) 8.{.q.0.W   O.o.v ) _ ^ e y y m ` m s M V ) X.) d ..V ( t X.J.e q 9 ` XXi e t g m ).J.2.` S 6.r.",
"@.[ ..V n J.8.V V.L.I.E.N >XI.I.%X%X Xw X ) d i d u m ( u k & d u M l e d O.l ) s s g z +.5 n w X F ( q.y t i r w k l ) i 8 T r.",
"{ _ B.B.`.B...Y.#X7.p U. .p ( (.(.} <.<.l : ..w C | ) +.h n e ^ d e y u e f N.v.x.C o.y w 3 j > O w J 7 ( k r ( * r t 4 > U T m ",
"{ ] Z ^.!.K.) 3.K.( _  .+.O.w I ( Z.x.0Xg O.B.,...t | | N.z # - c l % w d n.R.x.D.Z e.y 7 j u e T.+XB.p p ) p @ X 7 - X 8 U @.' ",
"M y ( 2.m ' C <.+.) 1.) l <.m U a N ..L.` 2.V.!.{ g ..o.p 7 > - g e 7 4 | k...V g ` l ^ k (  .]...h A.M w N 1.7 o , u p ( ) 7.7.",
"| | ` >.t o.) ` 8.7.i { ~.w J N.M w ) m l ` m ` O.M B <.' Y T F i i z - K...9Xw 3 ) m l l ( M ..& q 7 w p g l r O i a p _ } ) Z ",
"j.+...O.9.<.n M ` =._ { m { Q { 9.C N.O.8.8.g.J.t Z ).) { #.( { >._ Z 3.M.U.H.y ( p _ ) 2.) X.+.M m y p U N ..w k t ( K p e X.T.",
"F.X.1.M !.X.L.2.m q.%.] >.4._ ,./.x.^.!.m.9.) { ..N.T.H.wXV k uXXXp 9XL.T.w M.i U U / I.l ) i N m ,.7 a ( 7 t w M X.{ ) =.+.B j.",
"B.%.t  .i (  .D.O.#.>.7.2.H.,.<.m =.M ,. .) m o.x.A N.A.M d l U H { e u  .m  .9 p p T y ] ,. .Z.Z N i q m m m 1.m 7.>.w.7.x...n ",
"+.V l _ K 7.B. ._ 7.q.1.n ` ` | L...{ 2.(.2.3XB.H.R.3XC. .X.k H.| h <.m B...% & ] w O.( _ 1.` M A _ 0 ( t Z C 9.p 2.4.q.( } } k ",
"N N ) > ' _ ..p p q.] ..L.* M C...8.+.o.b.o.:XZ.C.V V | `  X+.'.W.=XO.!...6 p N } n Z.p 4.O.p m g M 3.k 2.b b %.` O._ ' ' n t M ",
"0XV 7 p e.O.t w ) +._ i C ) O.u ( ~.N.` w p 9 | ( ) L.U.1.K.J.Q.N.).O.%X8.,.V.N.( 2./.p U O.' 0 > ( ` 3.) t _ { I.L.` { ) } ' pX",
"r 1.i ` ] a } ) U 7 i m g g 1.y , ( | p p w b ` % p <.#X .1.p !.M.k Q e.p k Z.g 8.N.) u p _ 2.[ F > 8.B.V | K.] >.9 p { ] ` 1.u ",
"p T j ` ` ( U t 7 9 ' `  .2.>.,.u H 4.)  .3.Z ) > 7 t 6 5 U 7.J l ` 4.>.V.C.M  .k ) J ] U U _ U ] +.) i ) M 5 7 m b ] y i m p #X",
"u p m O.^ ( r p i y  X_ [ 8.) 6 M ) ( OXt g Z M > < l - 4.k d M.N.L.[ { <.h } C.4.#.4.[ U p >.{ B.2...+.V 4XE.M t Z m m m _ ] O.",
"( t p w i O.+._ K ' *.W [ 2...Z.M m I.2.U ( O.j D @.+.V * m /.p ,.{ R I u p _ W $.+.yXe.{ P.T.O.O.=.I.+.J.U.) o.( B.<.` K.O.7.8 ",
"y 3 ..y F ' M k ] q.$.' K p ../.E.X.U H I k -.| e T p e , 7 p j ( 7.9 L ~ @.' > T T ' y 2. X} ( K ^ l ( ) g 3 , p 2.H.V k 5 . i ",
"u O.B.7 , |.B.B. .H.{ [ 2.) C Y.| X.K.;.u ) >.,.#X[ e x.u Y 6.P.[ ' T 5.y.L p + + i w l O.) [ @.w.f.u ^ w w w u C.#XO.<.T p ) K.",
"{ ^ 9 w ) O.m e  .) ' w g h V ( O./ +.{.X.#._ ) } ] k - U Y 6.( { [ H ' R ( K i I r K } / w.d.W K %.7.( #.( ` O.V.b. .2.( !.z $X",
"| h , p l m / p O.) w X.m j H ) K U u =.;.s.] ] N 4 d b p q.4.U ] _ m 7 ^ K 1.K j _ w ..o.k y ] e.8.=.' 9 u l ) o.| x.o.H.A ( !.",
"$ V.g U.qXk u L.u 8.M ) ^ u ) ) X.,.w { q.{.' 9 [ z D.U.e.T.,XY _ ( P.y y & M ..(.- u g V k p X.&.0.] *.H V ).l m e ..u g l t h ",
"K } ..M h P.| z , _ X.( k e V ..^ !.J.{ k ) ( o , ) J.) O. XI.y ' +.m 3XV C.( I.+. .| m M u m H T @.#.%.) } k ) > p l %X .w u e ",
"/ l x.Y.] 0.w g 3 ^ j 3 k | E.) O.x._ t m | p w U & t % r.=.` I.I.z v.h `.A.A.!.} L.o.k ..X.O.' T e.#.P ( H p H K ^ ] +.-.H / O.",
"R.;XwXV &.h.] l V.x u w ( m 8.] m H.L.( M k U O.g t d w m F 7 (.L.-Xx...9Xx.<.u l g n X.(.g 9.K.8.8.*.&.9 / K U y 6 } J ' ^ o.'.",
"S.f ) / 1.m ^ H.O.- ; k u { `  .2.O.L.8.) <.(.1. .,X,.a 0 U w./.,.0XH.N.o.B.p i _ / } | B M. .^.K.g._ 4.j m U i & 9 L.i i ) ) _.",
"| J.k o. .w ] %.@.y l p M { n C...m A 2.1.N ` 0X,.8.=.9.U.@X( 7.{ H.) k ' P.e.H.+.{ B.M.g ^ ( L.3.>.7.( X.i J i a ` K.y e.L.O.x ",
"+.u > l L. .+.{ m B.<.} !.) m 8.c T.+X#XOX..I.L.) { { 7.8..XT U K y l K p <.2.J.2.2.<.-X#Xp.T { m R p w } 5.8 ( n - B./.h 6XuX-X",
") *.#.e.x.^.N.<.C. .O.9.M.<.y l 0X].o.Q.h 1.+.+.) O.I.8.U ( %.,Xf., | ` p  .2. .+.!.V '.9Xs..X4.2.J 7 i 1.7.:.m 6 +.g /.=Xx.B Z ",
"XX' T 9.o.T...y 1.Z M t B N.M B.(.{.] x.k ) 2.` 2.9.) 9 1 #.q.*X&.=./ ) - l +.P.n | n ^ p.4.tXX.-.R y V >XM g u 6 i e B V e O.tX",
"J S J [ +.7XV g N.K.2 <  .N.| p *.*.;.k w { X.I.}  .( i i.y.u.L %.2.l > , K H ] o.o., V h ] ) 7 9 w e 8.7.{ OXm 5 _ m w.' K.` J ",
"] =.T P k x.J.).<.K.9 , M M # * S &.s.O.9.U.-.) P.7.y $.&.P #.q.;.e.;.*.q.T T { X.^ u v.c.o.J > o *.yXi.' p z p o.U ' y.*.^ ) R ",
"O.p y H p w z V O.( K w , 9 i p W &.y.0.' u ( O.9. X=.0.Y J ;.h.f.d.q.) {.+.8.$XE.E.0XE.).J.) $X$X;.%.' D L ) ( j.2.J J w..XP.L ",
") c.|  .} 2 , % e O.} ' 9 u E.p J L $.s.{ ' _ _ { {.P.7.] D 5.P.#.i.8.-.U.=XB.P.J.X.P.wX+XI.tXp.*Xf.i.p.~   =.o.v ] [ D < > y U ",
"l W.'.`.) / K { j g u u T R H 3 i i ' 8.] 8.X.k p ^ / ) u < T 8.' @.{ ) n #XO.o.E.e.9.E.) tX%X|.%XoX}.1 # ] j H z J i $.J 7 y g ",
"K.Y.A.B.^ l P.J.c.<.8./ { i 1 i k _ m ^ I. .) #.y e t , & ^ T ' %._ 9.V.5X).-.J.4Xq.p I.=.u T I. X{ -.{ _ : O.i { i.) M O.( } M ",
"O.8./ k ^ F.E...J.2.~.) m [ L k +.B.+.K p o.` p & e w @ 9 T $.W $.#. ./.].L.U 1.L.' T O.+.O.0 T ( K.=XuXg { V.O.8.%.J.X. .` !.) "
};
