/* XPM */
static char *fbc5141176734073dc9504d50383ffec9euEk6Qsr45xa1kv[] = {
/* columns rows colors chars-per-pixel */
"64 64 144 2 ",
"   c #2C241D",
".  c #31251E",
"X  c #34291F",
"o  c #3A2A1F",
"O  c #2E2621",
"+  c #322721",
"@  c #342A22",
"#  c #3B2D23",
"$  c #3C2F29",
"%  c #3D3026",
"&  c #3E3128",
"*  c #432E24",
"=  c #422F28",
"-  c #433126",
";  c #4A3326",
":  c #44342A",
">  c #4C362A",
",  c #47392C",
"<  c #4D392C",
"1  c #503727",
"2  c #51372A",
"3  c #543B2D",
"4  c #5A3E2E",
"5  c #4F3A31",
"6  c #553E31",
"7  c #5A3F31",
"8  c #613E2F",
"9  c #56412D",
"0  c #5C412F",
"q  c #564032",
"w  c #5E4730",
"e  c #5F4532",
"r  c #5F4433",
"t  c #5F4431",
"y  c #5D4234",
"u  c #5C4235",
"i  c #5D4332",
"p  c #5F4934",
"a  c #5E4738",
"s  c #5F4838",
"d  c #62432F",
"f  c #61432F",
"g  c #65482F",
"h  c #68492F",
"j  c #614130",
"k  c #614031",
"l  c #624230",
"z  c #624231",
"x  c #604232",
"c  c #624332",
"v  c #624233",
"b  c #604431",
"n  c #614431",
"m  c #634530",
"M  c #604532",
"N  c #604533",
"B  c #634432",
"V  c #634433",
"C  c #634632",
"Z  c #654531",
"A  c #664432",
"S  c #644733",
"D  c #664632",
"F  c #624334",
"G  c #614534",
"H  c #614634",
"J  c #634634",
"K  c #624734",
"L  c #634736",
"P  c #654434",
"I  c #654735",
"U  c #674736",
"Y  c #634532",
"T  c #684332",
"R  c #684631",
"E  c #6C4735",
"W  c #694633",
"Q  c #634931",
"!  c #614933",
"~  c #624833",
"^  c #644933",
"/  c #614834",
"(  c #614835",
")  c #634A34",
"_  c #624A35",
"`  c #634936",
"'  c #634837",
"]  c #634A36",
"[  c #624B36",
"{  c #634A37",
"}  c #644934",
"|  c #644936",
" . c #654A36",
".. c #644B36",
"X. c #644B37",
"o. c #634C36",
"O. c #624D36",
"+. c #664C34",
"@. c #654D37",
"#. c #664F37",
"$. c #644B34",
"%. c #6A4B32",
"&. c #6E4A36",
"*. c #684E37",
"=. c #6B4B35",
"-. c #674B39",
";. c #654D39",
":. c #644F38",
">. c #634D39",
",. c #6E4B39",
"<. c #694F38",
"1. c #6C4E39",
"2. c #714E36",
"3. c #724F39",
"4. c #665136",
"5. c #695137",
"6. c #695236",
"7. c #655139",
"8. c #665038",
"9. c #675138",
"0. c #67533B",
"q. c #67523C",
"w. c #665239",
"e. c #685038",
"r. c #685339",
"t. c #6A5339",
"y. c #69503A",
"u. c #6A543A",
"i. c #6A563B",
"p. c #69553C",
"a. c #6A573D",
"s. c #6A543A",
"d. c #6D583B",
"f. c #6C593E",
"g. c #6E5B3E",
"h. c #6B583C",
"j. c #725137",
"k. c #70553D",
"l. c #72543C",
"z. c #725B3C",
"x. c #7A5C3E",
"c. c #6E5A41",
"v. c #6D5B42",
"b. c #775C41",
/* pixels */
"P v 0 d 4 @ & 5 5 q H 3 4 < # - b.7 4 +.+.' g.H 6 > > 4 ; 2 ; @ # 7 7 4 7 4 < - @ @ = P e 3 3 3 7 3 i = # &.: 1 +.q.a.;.( ~ > . ",
"v d d 0 3 @ : 6 3 4 H 3 9 > # % k.7 6 ( ;.y.e.e.3 < # 4 2 2 < # # 7 7 3 i i < % @ @ # F p 3 3 3 i 3 1 - # ,., 3 H 7.c.( 4.e > @ ",
"T Z l v q @ , 5 4 i e 6 6 : * : <.6 y H +.H H u.6 > - 4 3 2 ; * @ 6 4 3 H ( < & $ # # i 0 3 3 0 4 3 3 = % E i 4 o.( g.o.7.e 1 O ",
"l Z d d 3 @ 5 5 6 < i i 3 2 = ; H 7 i i H -.( -.( 3 : 4 3 > ; = # y 8 7 0 o.> : $ # - y 3 3 ~ 4 i < < - # v 4 %.7.+.a.a.7.p 3 @ ",
"v W Z v i O & , e 3 e 3 2 = ; = P i i 6 H H H P ;.3 > 0 3 ; ; : & y Z v Q +.> > : @ : 8 3 ~ 6.3 3 > 3 @ # 6 < Z <.4.a.0.4.~ 3 O ",
"l =.l 0 H @ & , i e 6 4 6 3 = > ,.7 v < v F +.+.H 3 # d 1 > - # : y H P Q +.5 > 3 @ : 7 e *.Q 3 7 < 4 # @ < 3 v u.o.o.p.g.;.9 O ",
"2.%.4 0 3 @ @ : 0 H 9 e > > * 4 2.i i 1 4 0 +.+.( > # v 4 ; = # & a i %.Q o., 5 8 @ : i i 4.+.3 4 : < - # 6 6 P a.a.e p.g.i.< . ",
"&.Z d 0 9 @ & 5 i ~ H ( : - o - &.6 < > : 0 +.d H > % 0 3 < < = < H 0 i 6.H : 6 P # : W i 6.H 3 6 > 4 # - u 3 H 0.i.o.g.v.u., @ ",
"&.v i < i + $ , Z 6.+.H 3 - # > P 3 < 3 > 4 *.4 i > # v 4 < > * 6 a 6 0 *.~ : 4 i - : W i 6.l 4 i > 4 @ # 6 < H 0.o.7.>.p.g.< O ",
"2.7 Z 4 i @ $ : H t.+.H 3 % o > P 3 > 2 > 3 Q 4 4 3 - l 3 3 3 = 6 u H Z P +.& q 4 # - =.0 u.0 4 6 3 4 - - i < 9 0.v.o.o.e.7.> O ",
"R d +.4 4   : 6 > P 6.Z 3 - o 2 P 3 ; d d 2 d > 6 > # l 3 2 7 # 6 7 +.Z l +.& > v # , ,.4 ( 4 6 e 4 3 - # u 4 3 o.0.0.>.u.o., . ",
"3 W Z 9 3 O , : > 4 Z i < 2 * 3 =.3 < %.Z 0 4 > 3 # # 8 7 2 4 = 6 i +.H e ;., 6 H > > =.7 <.4 3 4 3 4 ; : y q < a.g.o.( 4.4.3 % ",
"&.%.R 0 >   & , > 6 4 3 3 6 # 2 ,.4 < Z v h 4 0 i - # 8 3 2 4 ; : 7 H 0 l Q < : 3 - > <.4 H 3 > 4 6 > : > P 9 4 0.v.o.4.u.e.9 # ",
"R h h 4 3 + & q : < < 3 > - # 2 t.4 4 3 H <.6 ( 6 : # d 4 3 7 - , F v H v +.6 : 7 * : 2.1 0 4 : 3 > : % > H 4 3 +.u.4.4.6.4.9 @ ",
"W %.Z 3 &   & : - 6 3 6 : * * ; &.3 v 2 h +.o.i 3 ; @ H 6 7 4 ; 5 7 7 i 0 Q 7 , 4 * # =.3 4 4 > 3 3 < @ = =.i 3 o.a.7.i.i.7.w @ ",
"&.Z W Z @   @ : & > 3 < < ; @ 2 &.3 7 4 Q i u.6 4 ; o W 1 F 3 ; 6 F y i 7 H 4 % 4 = # =.< 3 d > 3 > > X : +.3 i 7.v.p 4.i.p < @ ",
"l %.%.Z : . # 6 3 3 4 4 3 1 o ; =.4 4 0 H *.( v 4 - @ W 4 4 4 ; > +.q q 9 e q - 7 - - =.4 3 H 3 7 < - @ > =.4 +.v.v.>.~ r.~ 9 @ ",
"l W Z d 3 # & : > 0 3 0 3 > * * =.4 3 +.4 Q ~ ( < 0 % %.1 Z i # 6 i Z 4 3 e i - 7 * : H i 4 H 3 e 3 , * > H 3 i i.>.7.4.4.~ 9 @ ",
"&.=.W Z < - # : > H 3 6 6 > - # W 7 , *.H H e.H 3 3 # %.3 Q d - q : 4 H > q i # 4 * % W ~ d ~ 1 7 2 > @ ; +.> 3 p 7.4.4.4.4.< % ",
"T %.W d 6 % @ , > d 3 3 3 > ; = ,.4 > Q H H d.H 3 > & j.4 d Q ; a 5 = a 9 i ( : 3 ; % *.Q 4.H 3 6 < 6 # : ~ 3 3 p >.a.i 4.Q 3 @ ",
"l %.Z Z < # & : > v 0 < 9 - ; # <.4 1 H v +.t.H 3 < % &.d 4 ~ 3 e y 3 y +.9 H > 2 ; # ,.p Q e 4 7 3 3 # > a < H a.h.0.0 i.w 3 X ",
"v Z Z Z 4 - : : > 4 0 < 3 = ; % ,.4 4 H H e o.v e > X i 4 i H 4 9 y 3 7.+.6 v > 6 ; # H 4 0 0 0 7 < < # > i , i 0.h.i.7.4.4.9 $ ",
"E W Q Z e - $ , 9 i i 6 3 : ; % ,.7 3 6 <.7 +.i e < @ 7 ; i 4 1 i H 6 i q a 6 3 < ; # i 3 0 0 i 4 < < - > +.> e 7.9 4.7.h.p 9 # ",
"d &.Z Q ~ : & > 4 4 4 < 6 - * # <.4 3 Q P u.Z Q 4 3 @ > 3 3 & 3 q y 6 a 6 3 6 6 2 : # i 4 i 3 3 v 1 6 # # H i q i.p w 4.h.w 9 % ",
"E W W %.~ ; % 6 3 4 e : 3 # = # =.4 3 Q 7 i +.i 3 3 o : 2 4 : 3 i +.> u q 5 p i < = # i 4 H 4 4 e 3 3 * , ,.< 0 7.a.< O.i.w - # ",
"T l d R ~ 1 : 6 < 0 ~ 4 4 - = # j.6 3 Z 4 Z =.e < 3 @ 3 2 i 6 ; > ,.5 6 6 < 7 1 6 * # 4 0 d 0 3 0 > : % - H 3 e 7.9 9 4.6.4.- # ",
"Z Z d W ~ < : < 1 < Q 9 9 > ; # =.7 4 i 4 +.u.P 3 ; # 4 2 4 2 ; q =.q < q 3 i 4 2 = # i Q Q 4 3 4 3 , % % e 4 3 0.7.7.p w 4.9 @ ",
"P =.d Z e ; : , 3 3 6.0 1 ; ; # j.4 3 3 z.+.u.+.3 ; @ i 2 7 7 ; > a +.3 3 5 < 4 < : > 7 +.+.4 3 3 , > - : y , 3 Q h.4.4.4.w 9 @ ",
"H Q Z Z ~ ; : 3 < 4 4 < 3 : * o ,.i 7 3 i 7 6 Q 3 > X %.3 3 d * < +.i 4 3 > > e 3 * % H +.0 4 i 0 < : - # P 4 4 w i.g 6.w w 9 % ",
"Z =.l d 9 ; & , < 4 4 : 3 : - % t.i 3 7 < P 7 P 4 1 X 3 4 ; d 3 7 v v 6 4 5 , 6 4 - ; +.e 3 < : 0 9 : - # %.9 i 9 4.O.i.Q g 9 $ ",
"P Z v v 1 > ; > ; 7 4 < 3 = = o j.6 < d.v i H 4 6 > # 3 4 3 4 1 4 i e 6 5 > - 4 4 @ : =.0 4 4 < 4 4 , # # v 3 0 g Q w 6.4.4.p # ",
"W Z d 0 4 ; , 3 < 4 d > 3 > * # k.3 < <.z.4 Z e 3 2 % 3 1 8 4 ; < =.i 5 > 5 - > Z @ % 6.~ 3 9 3 < 3 : @ # H 9 9 i.p 9 4.g 7.w # ",
"W d d 0 3 - > 3 > 3 0 , 9 ; ; % x.5 < i d.6 =.7 3 1 # 8 4 4 3 - < l.2 5 2 2 - : 3 + - *.4 4 i 3 3 < > + % i 4 0 Q e e Q 4.6.4.@ ",
"d H d 3 1 = > 3 1 4 0 3 g 1 * # k.3 4 7 ( i +.i > 3 # 7 2 d 3 ; < &.5 : 5 7 : 5 3 . : &.9 4 e : 9 3 , % # P 3 e Q 0 0 4.Q Q 9 @ ",
"Q R d 3 < - , 3 3 4 0 4 0 < * o *.6 i 3 3 y ( < < 1 # 0 2 Z 4 2 > 2.3 > 3 v 3 2 3 # : =.4 4 7 - 1 : < # # Z 3 d Q 0 4 o.4.4.w $ ",
"Z 4 d i 3 - > < 1 3 4 d 0 , * # P H ;.6 i ( i 3 < - # 7 2 4 d 2 3 ,.6 2 3 a < 2 3 # > +.6 i 4 % < < , - # Z Q Z o.e 0 g 4.p 9 @ ",
"l d d Z 2 = : 6 4 3 i H f > * o +.a o.q 6 7.a 3 > > # 4 ; 3 F * > H 6 7 3 6 = 3 4 * > H 4 0 i - 4 : 3 % # H 0 Q p d e Q d Q 9 # ",
"v d d 0 3 # ; e 4 1 d v 0 > o o ,.p 7.6 7 a.H i 3 ; # 4 > 3 i ; 3 v 3 5 , : ; 4 4 # > v 0 4 d : < > 3 % # Z d Q ~ 6.Q 4.0 Q 9 @ ",
"W d d 4 3 # ; W 4 3 d H 9 4 * # <.7.a.u a c.a 9 9 ; o i % 3 4 1 > H < : - 3 < 7 3 @ : i 4 4 4 : < < < ; @ H d H d 4.Q Q 4.p : @ ",
"0 d d 4 3 # % i 3 3 d 3 3 ; ; # t.0.v.u i v.u i i ; # 4 > 6 1 1 > =.< 3 < 2 > 7 3 @ : H > 4 i - 4 3 < @ X 3 0 d w 4.r.6.r.p q O ",
"0 d 8 4 4 * - h 3 3 d 0 0 : ; o ,.7.v.>.6 u q o.i * # 4 < 3 > 1 > H 3 > 6 3 3 3 4 . : +.; 4 0 : 4 3 < @ @ v 0 3 0 4.7.4.4.g 9 @ ",
"v Z 4 d f * ; &.4 < 4 d 4 ; * % t.>.v.s i q i p i ; % i ; 3 ; 1 3 7 4 > < 3 q < 3 @ % =.3 0 0 , 1 3 4 @ @ i 4 4 4.4.7.Q i.p 9 @ ",
"4 d 0 f d ; & =.0 3 1 0 i > * # l.a >.>.i p e 6 e 1 # 4 = > - - 4 6 i 2 3 4 0 > 3 @ & H 4 4 d > i 4 3 @ @ 3 l 4 4.0.p o.i.p 9 O ",
"0 T 8 4 h > % j.0 4 3 4 9 > ; # l.H 6 >.( a ~ 6 6 ; # P 2 - - # 3 i 4 3 4 , H : 2 # : +.< d 4 3 e 4 0 @ @ 3 3 Z 4.4.9 4.g.4.< O ",
"d h 4 d d 9 % R R h 3 d 3 > - # z.u q a i 7.u.i 5 = # 7 3 < - X 2 , 7 4 6 , H > 3 # % *.4 0 3 3 Q 3 4 X # 7 3 l ~ e p w O.4.w   ",
"T d f f d 9 % i d H 0 0 3 > * * <.p 5 s 3 ;.H e , ; # 4 > 1 > . 4 < v < q > ~ , 3 # % ,.~ 4 4 < v 3 3 @ # 7 3 7 w p 0 g g w p   ",
"l R 0 0 9 3 - 0 4 4 4 4 3 1 o # ,.( 5 u 4 a a > - @ o 3 2 3 1 # 3 6 4 3 4 > 6.& 6 = = P e 3 4 > 4 4 1 @ # H 3 9 0 4.< 4.w O.p @ ",
"d 4 0 3 0 ; & 3 4 4 1 8 3 2 # @ ,.+.> 3 6 u >.6 - * # 4 > 4 0 o 2 5 < 2 > 3 ~ % 3 * # &.0 3 0 3 3 0 1 # # H 4 < ~ i.w 0.9 O.9 @ ",
"v 8 0 4 H ; # i 3 4 > e H ; o @ ;.6 6 < i 3 a.6 : # # > 2 > d * < 6 < 2 , i p & > # - %.0 0 g 0 4 < 0 @ @ Z 3 2 ;.-.p 9 0 4.1 @ ",
"0 4 4 4 d - X =.4 3 < 6 3 ; # # <.e ;.5 6 u s ( , # - F - 3 4 # > q 2 < 3 4 e $ > @ > +.1 g 0 9 0 3 0 X @ i 3 < +.a i Q 4 ~ 1 @ ",
"8 4 8 0 d - # %.< 3 3 4 0 1 * % H P 7.3 4 s u >.6 # - &.- 3 < o - H < 3 3 i i @ : @ : %.e 6.4.3 0 9 3 @ # i 4 < 0 Q 9 0 e e w @ ",
"f 4 f f H - # H 0 1 < 6 3 1 * > H +.;.9 3 o.o.i 7 % - Z > 1 > * & W & 4 1 H 4 $ = # : =.Q ~ d < 4 0 < @ # 4 3 > p Q o.p Q 9 : @ ",
"d f f 4 4 * o e d < 3 i 3 > * > =.u.7 q 4 o.a 3 4 # & i > 3 > X # a < < 9 i , # $ # < F 6.r.0 3 0 0 , # # 7 v 4 Q e i 0 4.o.9 @ ",
"T f 4 f d o X &.1 > 3 i 3 - ; > j.o.6 i 6 i q 6 3 @ - 4 1 > 1 . - 7 < 6 4 e : # # # : &.0 d.6.1 4 4 : X # i i i p 7.9 0 g Q 3 O ",
"4 8 f 8 f # X &., 3 4 0 1 # ; ; x.i H a e 7.7 u - - & 7 3 3 2 # > y 2 3 3 e $ # @ * - *.i ~ e 4 d 3 < @ # Z 3 4 0 4 w 0 d w < # ",
"0 d f 8 3 ; # 2.> 4 4 4 3 # ; - 3.4 >.i ( e.7 a < - % i < 2 ; X , 7 2 6 > ~ 4 @ # = % =.9 ~ 0 3 4 : 9 # # v 3 i ~ 3 i w 3 w & @ ",
"4 f f f < > # 3.3 i 4 4 : & ; - v i p u p +.6 7 6 # # i ; > - . - 6 < 2 > H 0 @ # @ = =.3 v 1 3 3 3 1 * # 6 3 3 0 9 7.w 3 0 ; @ ",
"4 8 f f 4 ; # W 0 3 4 < > & > - H ( u s a ( 6 i 3 # - 4 > > 2 + $ u 3 3 = 7 3 @ # @ $ =.3 6.0 < 0 4 < * # i - 3 0 4 i 4.< 3 :   ",
"d 8 d 4 0 < $ i 0 3 4 , < - * = ,.H 7 a H y y a 6 # - 8 3 ; 2 + & F < < & 0 3 @ # # # H 4 Q g > 0 3 < = $ 6 4 4 3 3 ~ Q 3 9 : O ",
"d d 0 4 4 1 # 4 3 3 4 : 3 - # - F 3 6 y +.7 p 7 6 # # 4 2 3 3 @ $ Z > v , e 3 % $ # % =.4 H i 3 h 9 < # # > > 4 e p ~ w 9 i ; O ",
"v d d 1 < ; # i 4 1 ~ : 3 & ; # v < 6 i *.7 +.a 6 # - 1 3 > 4 @ # H & 4 , 6 3 $ # o # &.0 0 3 4 e d < 1 # i > 3 Q Q e 0 d 9 > @ ",
"v 8 4 8 3 ; % 6 < , 0 : < % * # v > i a 6.a y 7 6 # # 7 1 - 4 # # 7 : 3 2 < Z $ . X & +.~ < 1 1 0 i 1 3 @ y 4 i 7.o.o.p d Q ; O ",
"i d 8 0 3 % & , < > 9 3 3 - o # H < i i u.*.6 y q - % 3 > - 0 > & 6 3 2 i < 4 # o @ % H g < > 4 4 0 3 ; @ 4 3 ; 4.0.u.Q ~ e - @ ",
"i d 8 4 e - % < > > 0 3 < - o - &.3 i H *.P a a u : - 1 ; > 3 > # 0 > 3 6 4 q % # @ % Q 0 3 4 3 d f 3 > X 4 < : ~ 4.r.u.0 p ; O "
};
