/* XPM */
static char *_663013438899[] = {
/* columns rows colors chars-per-pixel */
"64 64 246 2 ",
"   c #1C1B16",
".  c #191916",
"X  c #241D18",
"o  c #2A221B",
"O  c #26261B",
"+  c #35291D",
"@  c #2B311E",
"#  c #2D3A1F",
"$  c #30361F",
"%  c #2A2622",
"&  c #2B2D24",
"*  c #242420",
"=  c #342C24",
"-  c #3A2D25",
";  c #332A26",
":  c #2D3323",
">  c #2E3A23",
",  c #2E312A",
"<  c #333425",
"1  c #3C3425",
"2  c #333B25",
"3  c #3B3C26",
"4  c #35342B",
"5  c #3B352B",
"6  c #353B2A",
"7  c #3C3B2B",
"8  c #3B3631",
"9  c #3D3C32",
"0  c #373934",
"q  c #462C1C",
"w  c #412C25",
"e  c #433326",
"r  c #43342B",
"t  c #443C2D",
"y  c #4A3B2C",
"u  c #48372C",
"i  c #513927",
"p  c #433C32",
"a  c #4C3D34",
"s  c #443735",
"d  c #523D34",
"f  c #503B39",
"g  c #354226",
"h  c #3C4326",
"j  c #37422A",
"k  c #3C442C",
"l  c #3C4A2C",
"z  c #3B4927",
"x  c #3D4331",
"c  c #3F4931",
"v  c #3E4239",
"b  c #43442D",
"n  c #4A432E",
"m  c #424C2D",
"M  c #4A4B2D",
"N  c #444127",
"B  c #44522E",
"V  c #4A512E",
"C  c #54542B",
"Z  c #444433",
"A  c #4B4334",
"S  c #434C33",
"D  c #4B4B34",
"F  c #44443A",
"G  c #4B443A",
"H  c #464C3B",
"J  c #4C4C3B",
"K  c #524334",
"L  c #524C35",
"P  c #53443A",
"I  c #534B3B",
"U  c #5A4B3C",
"Y  c #594538",
"T  c #455233",
"R  c #4A5335",
"E  c #4B5935",
"W  c #4B543B",
"Q  c #4E593A",
"!  c #47533A",
"~  c #505435",
"^  c #525A35",
"/  c #53533B",
"(  c #5B543D",
")  c #535A3C",
"_  c #5A5A3E",
"`  c #595436",
"'  c #624C3B",
"]  c #62463F",
"[  c #635B3B",
"{  c #655A3B",
"}  c #6C5431",
"|  c #58673E",
" . c #5F733E",
".. c #4D4B42",
"X. c #474741",
"o. c #534D43",
"O. c #5C4D43",
"+. c #554E49",
"@. c #5B4F48",
"#. c #554741",
"$. c #4E5142",
"%. c #4E5349",
"&. c #545443",
"*. c #5B5344",
"=. c #545B42",
"-. c #5B5B45",
";. c #55544A",
":. c #5C544B",
">. c #555B4A",
",. c #5C5A4C",
"<. c #5C5B52",
"1. c #5B5651",
"2. c #624B42",
"3. c #624742",
"4. c #635444",
"5. c #6B5546",
"6. c #635945",
"7. c #62544B",
"8. c #6B544B",
"9. c #645B4C",
"0. c #6B5B4C",
"q. c #6B5A44",
"w. c #725B4C",
"e. c #7D5D4D",
"r. c #635651",
"t. c #645B53",
"y. c #6B5C54",
"u. c #6B5F58",
"i. c #685A54",
"p. c #735C54",
"a. c #7C5C54",
"s. c #735F58",
"d. c #765953",
"f. c #5C6345",
"g. c #5D624B",
"h. c #576542",
"j. c #5D6258",
"k. c #656246",
"l. c #63624C",
"z. c #6B624D",
"x. c #666847",
"c. c #75684D",
"v. c #6B724C",
"b. c #646353",
"n. c #6B6355",
"m. c #656A52",
"M. c #6D6C54",
"N. c #65635C",
"B. c #6C635A",
"V. c #6D6C5B",
"C. c #64695A",
"Z. c #736355",
"A. c #7B6454",
"S. c #73645B",
"D. c #7A645C",
"F. c #746A5C",
"G. c #7D6A5D",
"H. c #796A55",
"J. c #747258",
"K. c #6A6967",
"L. c #746761",
"P. c #7A6760",
"I. c #746A62",
"U. c #7C6B63",
"Y. c #7D6F69",
"T. c #716F69",
"R. c #747263",
"E. c #7D7264",
"W. c #7D736A",
"Q. c #7B7769",
"!. c #6F7261",
"~. c #82563A",
"^. c #825D55",
"/. c #82665C",
"(. c #836B5D",
"). c #846553",
"_. c #8A725E",
"`. c #84725F",
"'. c #92735C",
"]. c #937B5F",
"[. c #89744C",
"{. c #826D63",
"}. c #856B63",
"|. c #847265",
" X c #8A7565",
".X c #8B7A67",
"XX c #83746B",
"oX c #8A766B",
"OX c #85796E",
"+X c #8B7B6C",
"@X c #867966",
"#X c #927E6C",
"$X c #967766",
"%X c #827770",
"&X c #857B73",
"*X c #8B7D73",
"=X c #897E78",
"-X c #887C76",
";X c #937F73",
":X c #957F76",
">X c #788064",
",X c #8C816C",
"<X c #8B8166",
"1X c #95816D",
"2X c #9A836D",
"3X c #9E896F",
"4X c #8D8175",
"5X c #868178",
"6X c #8D837B",
"7X c #8C867C",
"8X c #928375",
"9X c #998576",
"0X c #948A74",
"qX c #9B8A74",
"wX c #92867C",
"eX c #93897E",
"rX c #9A8B7C",
"tX c #9A877A",
"yX c #9C907D",
"uX c #989076",
"iX c #A18B75",
"pX c #A4937C",
"aX c #AC967C",
"sX c #AA9576",
"dX c #8F8780",
"fX c #8F8981",
"gX c #918781",
"hX c #948B83",
"jX c #998E84",
"kX c #968F88",
"lX c #998E89",
"zX c #979086",
"xX c #9B9186",
"cX c #969189",
"vX c #9C938A",
"bX c #9F988D",
"nX c #9F9890",
"mX c #9F9790",
"MX c #A29483",
"NX c #A1968C",
"BX c #A39A8D",
"VX c #A99884",
"CX c #A49A91",
"ZX c #A79C92",
"AX c #ABA199",
"SX c #ADA08B",
/* pixels */
"m _ / I -.|.{.d.i.d.Z.F.{.q.{ q.D : 2 7 Z v ;.@...:.r.U.6XBXCXvX0X X*.w./ E D J O.}.6XzXjX7XlXlXCXvXlXhXhXCXvXvXvXkX8X X XU.E m ",
") -./ c.k.-.u.y.p.7.L A t I z.H.|. X+X8X4X4XU..X*X*X8XjXvXvX6XwX{./.*.6.M =.F.(.}.4XNXBXvXcX7XkXCXmXkXlXvXvXlX7X-XXXXX{.D.*.~ T ",
"-.E.,.^ ^ V b n n k H 1.E.1X,X8XtXeXNXVXrXrX4XeXxXlXjXvXhXwX+X|.p.P D _ _ y.9X(.{.=XzXhXjXzXcXNXvXhXgXwXwXwXrX;XP.P.}.#X6.` L n ",
"0.2X<X^ ^ ^ l.B.U.,X#X1XrXMXrXwXxXNXBXBXeX5XxXhXvXbXvX5X*XXX X.XA.I ~ L x.H..X(.XXoXeXjXxXeXwXrX+X*X+XG.{..X XoX.XoXoX5.N R ` / ",
"U.}.|.R { pX+Xy._.2X X9XMXjXNXwXwX;XwXeX8X-XhXjXrX*X8X8X.XG.{.0X3X[.V E ` c.z.Z.D.|..X{.U.Z.D.{.( a.$XD.A.5.Y O.U a K 5 D D n i.",
"jXqXy.Z ` ZX#X X]._./..X9XrX*XoXF.D.P.P.{.D.u.S.P.|.(.{.U.+X;XH.[ [ C B B h 7 7 G Y K Y I 3 n ( b 3 n I ;.N.K.T.5X6XO.6.b 3 y /.",
"oX#Xs.7.MXoX|. X/.U i i - G O.8.d.w.w.U w.e.0.U P A K U 6.6.(.M.B B T E =.c %.S N.L.t.N.N.<.J W ;.V.B.*X*X8X{.+XtX9Xu.U h n n D.",
"0.D.a A F.6.rX.XqX).A.4.0.A.|.4.U K 5.6.@XZ.-.-.9.S S W W b.D fX!.k.I.b.|.+XXX&X7XeX=XXXXXU.L.&XOXXX{.Y.Y.XXY.;XMX9X0.n 3 J o.U ",
"O.|.o.0.w.I O.J k._. XG.~.} { ).$X X_._.z.-.! ! E ! l R T b.<.2X+X4XyXMX6XrXjXNXbXjX5X=X*X*X*XtX;X*X6X-XoX=X7XlXjX#Xp.K t A D 1 ",
"t 7 z.5.A.z.D ^ T m k J J t.;.Z.oXy.]  X>.S R l Q l c R j S B.@.,XrXxXBXwXhXlXNXmXkXgXgXgXdXdXlXhXhXvX6X=XhXmXnXNXwXy.u M L +Xt.",
"/ S z.6.0.M.W ,.n.E.OX,X+XXXW.U.P.U.*.J 6 T T T T c S S ! S J t.#XwXZXhXeX*X+X6XwX7XhXdXhXhXjXlXgXgXhXdX5XcXmXCXBXhXL.e 3 2 I p ",
";.&.:.6.D.1X#XoX+XwX4XrXwX&XXXU.L.S.<.&.j S ! =.&.j.S H B.;.6 G S.*XNX=X8X{.s.(.XX&XjXkXjXvXvXbXBXvXvXcXmXCXkXvXCXrX*XB.t Z b 2.",
"0.9.,.,.B.F.|.&X7X7X5X4X6X5X&XeXoXF.+.o.S g S W b.E.&...Y.Z.x 6 7.*XeXhX8X|.p.s.{.&XwXgXhXhXvXnXmXcXgXvXCXjXmXmXxX8XoXoXQ.p 6.8.",
"8.oX*X*X*XQ.&XhXzXhX5XNXbXeX5X6XOXD.s n.W > 2 b 1.cXC.S T.G.A < H 4XlXeXhX*XL.Y.*XwXhXhXhXgXgXjXvXvXeXvXBX6XrX:XrX+X|.oXA.8.Y 0.",
"G {.0XjXyXjXQ.5X6X5X5X7XzX7X&XOXoXy.:.@X&.> k g 9 %.&.j X s a 7 7 x.@X4X*X;X{.oX*X8X;X+X*X&X4XW.oX*X|.W.Y.P.D.(.$Xp.A r 0 K #.P ",
"5 2.s. X(.@XG.E.OX4XvXzXxXzXeX&XU.;.a 0.,.S S ! W j.,.;.&.% G ' e n A /.0.i.D.s.a.w.U Y Y ] e.).(.U.P.|.D.D.0.P 1 $ 8 V.D.H.5.0.",
"P p 4 G P G *.D.Y.XXxXrX4X4X8XU.S.O.d w.z.-.n.l.k.&.E.t D *.U 8.+ 5 4 < X - u 4 -       . % A P K 5.5.0.K K I b m W Z a :.O.' U ",
":.i.,.F = ; p 0.S.P. X#X{.D.{. Xp.q w 6.9.O.H.' M.9.r *.*.Z 7 n.t t.2.t 1 9.4.7 Z 7 7 0 G o.Z o.0.A.e.{ 5.*.( Z H >.j.L.U. Xt.;.",
"|.OX{.S.;.F 7 o.:.a r e + - - f P y t I 6.L n W x.g.w.u 9 @.a Z.*.6.Y L H =.l.W S Q Q Q ! Z H >.9.A.U :.i.b.B.@XrX8X+X{.{.oX&XY.",
"vXjX4XU.G.G.o.G ..;.0 X.;.t.u.+.0.y.F.uX<XD m M k.n.0.q 4 a U.+ Z.L U L R R H R S S Q T T S 2 j m.c.4.9.p.G.U.4XrX4X4X0X*X*XeXNX",
"fXbXzXeXeX,XS.'.].3XpXqX1X*X*XrXrXNXMXpX3Xz.m.,.! D D t ; s G 5.Y ).{ D ;.M & b.1 4.L D ! T m 6 >.( A -.2.(.8X*X8X8X0XjX-X7XwXxX",
"zXbXzXeXbXvX+X'.).+X0X8XwXeXeXvXNXwXeXjXrX1XqXsXb.D V.|.y o s *X_.).e.e t t u t |.q.y.O.n ! R Q H I M 4.Y Y a /.(.}.8.6.G.XXOX4X",
"0XbXvX7XfX%XU.A.a.+X4XeXhXhX7XgXlXxXhXhXhXwX<X3X_.R G A u < + O ^.8.G t r t A G *.Z < : ! E R S S ` U y P u -.&.n n y m / {.|.XX",
"n.G.oXY.U.P.y.4.2.(.OXeXgX7XhXhXxXwXwX6XwX+X X_.0.T I H.d 2 + P d 7 k l m k S S S W W S ! T Q l T D A U D b ( <Xv.S 6 k 7 V.H.O.",
"*.S.D.d.a.D.(.P.i.i.D.tXBXpXwX;X&X*X*XW.F.:.&.F j 2 n.w.A e y A t k ! T T S W T =.l.9.T B R B E T b 7 R A ( D T 2 z l z c | / Z ",
"t.n.r.#.a ; u D.oXI.D.}.d.r f d.G.D.d.8.G @ : 2 : 7 Z P -.s % = 7 x S T m k t 7 Z %.j.!.R T S c ! >.j.N.T.&XR.C.f.f.R S ! z m I ",
"G.E.n.A < o o O.G.7.r o . . . X w X O O < 2 2 g 7 &.L t F   O 6 Z c j 2 6 6 F B.L.U.L.|.I.1.1.I.L.OXoXoX{.XXMXMXR.t.K.W ) S m L ",
"&.t 7 P b.Z 7 4 n H 7 j 2 0 j v Z x m A T S g l 7 o.; , & < 6 t ( ' &.<.N.P.+XOX%X|.&XOXOXXXOX&X*XwX%X&X*XwX*X5X|.U.P.<.;.c z A ",
"&.,.XX|.P.t.6 g j W ) Q =.=.f.m.>.) =.m.W =.R m 9 5 9 s x Z k D 1 b.XX|.|.oX&X6XeXeXeXeXeXcXhXeXjXvXhX5XeXhX6X7X=XW.OXU.t.Z b k.",
"U /.P.oXtXB.Z 2 > S ) S c S ! H R S Q Q E ! ! o.I ;.F x j W ( y @.|.oX+XZXZXbXxX7XzXcX7XfXvXvXhXvXvX7XfXhX6X&X=XfXxXeXXXU.F./ 0.",
"Z 0.B.E.Y.I.;.0 2 l W R ! W D I : c ! R B k &.I.:.4 4 Z S W I K O.}.8XxXAXxXvXxXeXhXzXzXbXbXvXhXhXgXdX6X&XW.Y.U.Y.wXvXxX+X#XF.` ",
"] 4.I.W.R.*XOX,.x k k R _ ~ J U o.a &.H =.P 5 . K.&.< H T m.t d D..X+XrX6X4X6X6X7XzXeXvXvXxXwX6X5X5X*X&XI.B.L.F.-.U.tXwXY.+XH.0.",
"*.D.wX*XwXZ.n.G.o.c 2 m ^ L I P ;.a :.:X+.a X O X.S c R ! m.F.a s.^.p./.U.|.*XoX4XxXxXvXMXwXoX%X&XW.XXXXS.r.G S.U.oXi.D.F.D.7.I ",
"8.G.oXXX&XE.7.y.y.H m j m 9.R 7 r 4 y - ;.p 7 : 2 ! T S Q / E.O.9.D.7.i.i.(.oXL.{.XXtXrX0X|.{.U.D.s.P.tX#XS.- O.{.O.a o.s = t 6.",
"n.S.s.s.S./.O.J p Z b m m E m m h Z 7 4 s : @ < c S E m ! W b u K w.S.:.7.{.@.P D.a.D.d.8.8.0.a p.7.d /.5.w r J J 9 < 2 O @ H L ",
"&.n.P 9 s y = 1 S z.E D m E B m z b S x 4 2 j S ! ! T ! f.I k O e U 5.A a C 5 5 K ] 4.I a d - ; t U w d A k j S S Z 2 j j ) W m ",
"b G t I A u 3 < 1 A z m k E R m l h g m W k D / L M S t 3 1 4 1 Z G -.;.C.=.;.B.:.e d Y P p ;.I.XX9.P D m l g k X.t.& 0 T T W T ",
"m b D A *.t t 4 4 ..>.H.F.,.S 2 |  .| B S h M ^ n k H <.I.uX0XE.XX{.XXU.{.*X+X4XY.B.L.<.,.oX{.#XpXr.5.7 ! l c +.+.8.% 0 S T h.Q ",
"m S ,.9.&.;.G.OXrX8X+X|.D.s.{.V.V | z k l # m n.E.B.|.{.*X*X6XgXrXrXrX*X*XwXjXeXW.W.oX0X*X&X#X}.{.Z.0.Z T T $.;...#.9 - j z R g.",
"( E.rX*X.XD.G.+X4X7XgXgXwX{.D.h B T W ) -.k b -.A.s.P.4XwXjXNXvXcXhXlXeXwX6XNXZXhX&X=XhXxXeX&XXX{.G D S E S x F 1.+.4 + b g ! V.",
"n.oXU.}.{.U.W.XXW.fXkXhXdXW.y.7 B W W h.&.7 G 9./..XhXZXmXkXCXZXmXgXhXhXhX7X=XcXvXjXhXhXeXeXQ.*X#Xn.A -.E ! Z 9 :.; * v k l h.V.",
"4.+X{.XX*XwXeX6XdXkXkXfX=XL.H Z =.Q ! W ) c ,.&.Z.;XMXAXhXkXfXjXCXbXjXcXhXeXfX5XhXvXBXyXwX&XgX-X{.O.A q.Q T S 4 , < 2 W l T Q R.",
"7.{.U.&XeXeXgXvXgXvXvXhXdXu.: 3 >.) ! Q =.) z.|.#X8XlXvXdXCXgXhXbXlX4X7X7XhXhXhXfXhXjXgXwXlXhX4XZ.i.n.P / R B j 6 k k T B T f.;.",
"{.{.P.&X6XlX7XgXdXkXhX6X-XB.F : W =.f.=.f.Q 2 &.D.oX6X5XdXkXCXbXvXwX*X5X6XjXOX8XxXxXvXeX6XwX6X*XU.p.(.1 A ! k B B j R z c E m.J.",
"b G u.{.4XlXjXhX=XdX=XW.L.s.F.7 m =.f.=.c m 7 n.o.y.P.I.hXhXMX*XY.Y.XX}.XXXX/.|.XXoXoXXXXXoXoXW.2X^./.5 = ! l Q T l R l E ) -./ ",
"@ , 7.a.{.*XhXgX-X=X-XU.s.p.,.z 2 2 S B T B =.@X<.f i.U.%X}.i.t.i.D.}./.+X'.^. X/.D.}.2.3.a.d.d.$X}.:Xo.9.H Q ) ! W Q T | E m # ",
"T x J Z 7.S.{.Y.XXXXL.s.p.P I k m B g g E B x.J.&Xt.7.s.s.#.t #.r f d a f 5.U U 7.iX9.7 o O   X % r - a P Z p b k T _ ( { k.M k ",
"R k./ 2 G A G r.P.S.+.; o O k S j R l ^ B h B z.I u X o p s G G G 8 Y r e K 5..XqXaXaXsX<X0XV.I.B.N...9 L.uX+X9 6 Z z.6.t &.l.&.",
"z.) ( D Z Z Z t F.:.& : > @ $ m f.T E E E g m j R c c : j / [ _ b.p ,.E.(.9X9XVXaXVXZXtX+X.X9X9X{.u.D.Y.%X%X*XY.S.u.r.:.t.B.t.t.",
"+Xn.L / W F < < 7 Z 6 ) D k 2 j R T Q l l l S ! ! V.R.eXW m ) I y.p .X{.XX#X8XjXZXNXMXwXwX*X*X*XoX%X*X6XdX&XgX&XXX*XE.I.E.+X*X*X",
"D.S.-./ Z 6 2 > j j c l R T ~ R k.R m B E k.E.+X+X#X+XqX|.;.S 6./ :. XW.4XwXgXNXZXjXhXgXhXgX7X5XwXCXhX=XdXhXfX5X=XhXvXhXwXwX4X+X",
"U.s.I o.&.,.L.Q.F.-.f.Q.v.m.rXBXpXQ.+X0XH .XsXiXoX*XXX.X X1XW T k J {.8XhXjXhXvXvXzXlXwX7X6XkXjXgX7XdX5XcXcXkXnXhXhXcXeXeXxXhXeX",
"oX1.p -.n.|.{.D.|.;.l.J.Q.@XMXoXXXoXoX9X+XiX0XwXOXOX%XXXoXoXt.T m S 9.W.5X&XhXhX&X&X&X&X5XhXwXfXgXhX5XgXeX&XW.W.&XQ.fXnXhXvXZXxX",
"W.O.I &.9.(.#XI.t.s.F.g.x.F.#XU.P.oX*X*X|.:XwXeX5X6X6X*X*XU.9.E ) / :.P.Q.W.5X6XhX6X5X&XwXgX&XgXhX*X&XhXhX&XW.W.6X4XgXjXvXeXvXxX",
"6XJ p P o.D.n.B.:.@.&.z R l.#XF.W.-XgX=XwXgXgXxXvXNXNXrX*X+XU.b.H -.&.7.S.&X5X6X6X5X6XgX5X5X=X5XhX5XW.&X&X&XW.Q.5XwX6X-XfXcXjXbX",
"MXB.o.5 G :.1.t.o.#...b D H G. XoX*XlXhXjXdX6XwXxXlXhXeX*X}.P.Z m h.S ..i.P.*X&X&X5XeXgXgXdX7X&X-X5XgXhX=XQ.W.=X&X%X6XhXgXjXeXvX",
"wXoXy.= 5 o.u.S.r.7.@.Z S T R (.S.S.Y.wXjX*XwXlXhXhXwX&XF.S.y.) | ) z j o.y.Y.*XjXlXlX&XW.&X6X*X7XgXhXhX=X&XdXhX=X=X5XlX6X&X5X5X",
"rX;Xy.9 8 r.L.I.L.U.XXD.-.$.z _ z.7.S.oX*X&XvXbXxXeX*XXX{.D.E.^ x.Q T ! k ;.u.W.=X=X*XXXW.-XI.XX*X:XwX=X-X%X6X&XwXvX=X=XeXwX5X6X",
"{.8.O.p o.y.L.W.=X6XwX&X(.1X.XB ) 2 F (.XX*XwX6XwXOXU.{.D.p.J m ) 4Xf.W k 7 y.s.r.V.B.r.r.u.B.s.s.s.U.XXXXI.U.I.*X8XY.oXhX6X&XXX",
"8 4 = 4 G +.u.OXdXdXwX:XoX/.b z m H Z ;.F.Z.oXY.XXV.I.P.r.r.7 k b.wXQ.) c 4 4 G o.o.i.s.:.O.+.+.8 - s #.r.:.7.s.U.i.t.S.U.L.L.t.",
"+.X.X.5 F o.i.W.&X&X5XgX;Xy.o.j H Q ) Z o.*.i.7 a r.s.P.:.l.-.9.0.y.n.*.J 9.9 = a 7.U n 8 4 0 9 0 *   X % #.P s s P 0.7.7.y.P.B.",
"i.7.p 5 Z 7 t.I.%X&XW.W.B.@.o.,./ W Q >.*.P -.y 8 a f #.&.Z m ;.D S S W =.-.J &./ ` M j.W.W.W.P.{.1.<.9 , - % ; 1 p 1 s 9 G 0.B.",
"/ D t b b ;.u.Y.W.&X&X-XL.+.G i.9.S J 4.I 2 K L P I J 6 Z H < J W ,.9.m.m.-.-.) D -.0XVX9XoXoX+XY.*XU.1...X.F ;.o.G 9 4 5 J *.&.",
"n n I S 0 u.L.&XQ.4XXXY.L.1.4 #.4 R @ / Z < $ T I E T ;.n.(.0.Z.H.(.q.G.R.,.z 6.@X|.A./.{.XX;X=X-X=X-XI.W.8X*X*X|.1.;.7.7.0.( E "
};
