/* XPM */
static char *_663013430051[] = {
/* columns rows colors chars-per-pixel */
"64 64 169 2 ",
"   c #2D2A26",
".  c #352E27",
"X  c #322F2A",
"o  c #3B2E28",
"O  c #37332D",
"+  c #3C342D",
"@  c #373632",
"#  c #3B3532",
"$  c #3E3934",
"%  c #42362F",
"&  c #433630",
"*  c #453B34",
"=  c #483C33",
"-  c #423E39",
";  c #4A3E3A",
":  c #35442A",
">  c #3D452B",
",  c #3F492E",
"<  c #474035",
"1  c #494437",
"2  c #474D31",
"3  c #4A4F35",
"4  c #45413B",
"5  c #4D443D",
"6  c #484E38",
"7  c #52463E",
"8  c #51493F",
"9  c #4D513B",
"0  c #53513E",
"q  c #525A3F",
"w  c #4C4542",
"e  c #4D4944",
"r  c #4D4549",
"t  c #4E4D4A",
"y  c #514641",
"u  c #534B44",
"i  c #594E45",
"p  c #544E4A",
"a  c #594F4A",
"s  c #565145",
"d  c #5A5246",
"f  c #595C46",
"g  c #56514C",
"h  c #5B534D",
"j  c #545848",
"k  c #5E594C",
"l  c #525C44",
"z  c #554D51",
"x  c #575651",
"c  c #5C5552",
"v  c #5E5954",
"b  c #5A5759",
"n  c #5E5A59",
"m  c #665745",
"M  c #61554C",
"N  c #635B4E",
"B  c #685A4E",
"V  c #615752",
"C  c #625B54",
"Z  c #695D54",
"A  c #635D5A",
"S  c #695F5C",
"D  c #77624C",
"F  c #656156",
"G  c #6C6255",
"H  c #66615C",
"J  c #6B635D",
"K  c #6E695E",
"L  c #726354",
"P  c #776A57",
"I  c #72655C",
"U  c #736A5E",
"Y  c #7C6F5C",
"T  c #7C725E",
"R  c #666264",
"E  c #6B6562",
"W  c #6E6964",
"Q  c #6A646B",
"!  c #6E6B6A",
"~  c #716763",
"^  c #726B65",
"/  c #796E64",
"(  c #736D6A",
")  c #796E6B",
"_  c #747267",
"`  c #7A7166",
"'  c #76716D",
"]  c #7B736D",
"[  c #7E796F",
"{  c #7B6F73",
"}  c #767372",
"|  c #7B7572",
" . c #7E7975",
".. c #767279",
"X. c #7C7678",
"o. c #7E7A7A",
"O. c #82756C",
"+. c #82796E",
"@. c #817772",
"#. c #837B75",
"$. c #897D75",
"%. c #837D7A",
"&. c #897E7A",
"*. c #917F75",
"=. c #868076",
"-. c #8C8075",
";. c #85817D",
":. c #8B837D",
">. c #92867D",
",. c #93897E",
"<. c #9A8C7D",
"1. c #797780",
"2. c #7E7C80",
"3. c #837F82",
"4. c #887D83",
"5. c #858282",
"6. c #8B8582",
"7. c #8D8984",
"8. c #878488",
"9. c #8A868A",
"0. c #8D8B8A",
"q. c #918682",
"w. c #988780",
"e. c #938A85",
"r. c #9A8D84",
"t. c #938D8A",
"y. c #998E8A",
"u. c #9C9185",
"i. c #95918D",
"p. c #9B928D",
"a. c #8A8792",
"s. c #8E8D93",
"d. c #918E91",
"f. c #949292",
"g. c #9B9592",
"h. c #9D9995",
"j. c #95959A",
"k. c #999699",
"l. c #9D9A9B",
"z. c #A18E80",
"x. c #A09387",
"c. c #A2948C",
"v. c #A49A8D",
"b. c #B59E8D",
"n. c #A19793",
"m. c #A39A94",
"M. c #AA9C93",
"N. c #A39D9A",
"B. c #A99E9A",
"V. c #A6A09D",
"C. c #ABA29C",
"Z. c #B2A49B",
"A. c #B9A99C",
"S. c #9D9CA2",
"D. c #A29FA3",
"F. c #A5A3A3",
"G. c #ABA4A3",
"H. c #ADA8A5",
"J. c #A1A1AA",
"K. c #AAA7AA",
"L. c #ADAAAA",
"P. c #B3A6A1",
"I. c #B2ABA6",
"U. c #B8ACA6",
"Y. c #B1ABAA",
"T. c #B4B0AD",
"R. c #AAA8B0",
"E. c #B3B1B2",
"W. c #C3B6AE",
/* pixels */
"m.v.N.C.N.y.t.f.g.e.t.q.q.:.p.g.) 7 7.&.6.&.t.%.] &.%.| $.~  .| %.] $.| W 7.;.&.q.&.#.:.@.q.e.y.n.n.N.G.q.W A c t.g.y.i.I.I.V.m.",
"m.p.m.p.p.n.N.g.n.g.y.y.@.q.g.y.) y :.#.X.:.;.] ' ( &.;.] ( ] &.;.&.#. .W 7.;.:.@.:.:.>.] :.>.c.B.n.g.m.F.0.h E :.7.f.n.N.B.A.C.",
"m.u.e.c.g.t.y.g.G.G.k.y.] y.y.f.&.= &.6.7.:.| ]  .%.7.#.] #.%.q.q.6.7._ W :.7.7.-.6.e.| ^ #.:.$.c.x.g.7.N.t.p 5.y.f.g.c.v.M.v.u.",
"p.m.e.e.w.w.N.y.n.n.y.&.O.p.F.g.:.u ) ;.X.] 7.7.7.7.;.6.7.7.7.i.h.e.:.v c ' :.;.t.q.>.` @.$.:.>.e.y.g.q.N.i.p %.t.h.p.v.m.p.M.,.",
"q.-.6.:.p.:.g.g.q.e.y.t.n.t.t.g.g.H | h.:.7.5.p.y.7.e.%.g.q.6.y.h.:.' h 5.7.t.t.7.i.p.] q.| 7.q.e.p.p.t.f.i.A m.m.c.i.r.t.p.>.t.",
":.&.:.&.q.t.q.q.:.e.p.L.H.N.g.l.y.A ` %.5.X.( X.] g.q.:.6.#.6.q.i.:.b W h.7.;.t.p. .` | #.B.e.q.y.N.I.m.g.p.u %.p.p.p.<.<.y.n.,.",
":.&.:.] 6.q.7.7.p.B.F.Y.K.i.g.V.:.h ] i.%.p. .#.( %.5.t.%.` #.t.i.$.h i.7. .#.:.g.t.#.&.7.n.m.t.B.g.C.>.;.e.h :.v.b.x.r.-.e.x.M.",
"q.;.q.g.y.7.q.@.y.g.N.H.V.G.m.t.E u #.7.t.g.%.X.q.&.W 7.%.7.q.y.&.J A y.#.] #.y.i.[ i.$.@.,.#.t.7.&.;.t.7.$.h -.u.<.,.$.@.@.&.>.",
"t.0.;.y.q.7.y.e.t.6.t.B.B.B.l.t.5 ( 6.#.%.7.7.) | :.#.@.&.#.%.#.| J | y.$.7.y.y.&.#.:.q.6.) #.:.O.t.i.t.-.#.c ( q.M.>.7.:.q.p.| ",
"7.7.y.t.7.q.t.&.q.g.t.g.N.N.t.) h %.&.` %.X.:.] ] 7.-.m.#.( #.:.;._ 7.&.) #.#.| ] &.g.$.q.#.p.p.7.%.t.k.e.7.S ^ ;.;.r.t.e.7.v.:.",
"6.t.:.e.p.>.] 7.h.V.N.7.$.#.| J A y.t.#.X.| %.6.:.] #.q.y.:.] } ^ v #.] ] | :.#.#.t.0.y.y.q.&.7.;.&.&.;.%.C u g ] #.:.:.q.;.y.p.",
"@.) #.t.:.i.7.7.#.%.7.q.>.) q.O.J ] ( W ( | } ] &.#.t.6.6.7.' E | g X.%.7.:.( E | ( p.>.| | | | ^ E ~ J h c J c u p c O.:.=.:.@.",
"w w w u V C J Z I Z ~ ` &.O.] J ] #.;.%.&.t.#.#.#.0.q.t.g.t.q.o.O.v @.:._ | ( ! ( E E E A A S ` V A u 5 u | ;.&.@.E c 5 5 5 5 u ",
"h C A A v g h h y % 5 5 & y a C &.t.K.i.7. .E C A A E ( | %.i.t.] A | ;.E E A A v C c h u J E K K ~ C h ( %.t.V.e.;.E v a e - u ",
";. .;.6.t.6.0.3.%.' a u y 5 a E J H R H v u s g A J A p w e u g H v E ( A A J G E E a g ^ ( S A H u g c J ' t.7.g.6. .%.X.x $ Z ",
"o.5.t.f.0.8.t.5.t.6.%.X.7 u ) :.h.p.| ^ j : 9 U #.#.%.#.` :.=./ A s u u 8 d i 5 o y a c g u h A ( ( 5.0.X.H x ' | 7.t.} W a u &.",
"' 7.8.t.N.7.5.7.3.t.X.^ u E $.,.y.p.X.K v g 4 N K P ` G G N u 8 * ; r z Q z r c A / #.%.:.&.q.p.N.y.e.F.l.5.o.e j ! W H 1 ( c W ",
"t.h.7.f.k.i.5.h.k.7.| V V w.N.t.C.C.y.%.^ H _ s 4 # + - 5 p x b Q 3.5.j.8.| V S 3.8.8.t.7.p.p.<.z.>.q.k.f.f.5.o.a 9 4 > w ! R 6.",
";.5.t.i.6.6.8.7.t.l.e.y 6.g.n.v.C.n.t.6.| ] d s u # x Q ..9.2.a.9.a.d.s.0.a.A ..9.#.4.;.$.m.M.N.p.c.i.f.h.i.5.2.W w , 9 7.X.u ' ",
"X.o.5.%.( 7.&.%.7.%.~ ~ n.n.$.<.u.p.g.7.5.! / R A r ..0.0.s.S.S.k.k.8.d.9.d.| A 7.q.:.4.7.9.7.i.u.p.p.k.j.7.s.5.' 4 > h ] X.v ! ",
"A X.( ( 8.6.g.f.i.X.h 7.g.C.e.,.c.p.6.&.7.%. . .F g 8.f.R.k.k.l.k.h.j.S.f.0.5.V 7.e.;.t.Z.r.=.7.r.:.i.f.F.h.0.9.5.n ; ( #.5.h S ",
"! #.%.g.t.5.%.0.0.R u 9.h.v.,.:.:.p.@.6.g.t.7.e.T k s.l.F.l.f.f.S.F.J.S.k.3.%.p ;.t.t.%.;. .7.;.5. .7.N.0.t.8.f.2.E * | e.3.A n ",
"R E ^ 7.7.g.7.X.;.E e | :.h.7.e.;.r.( %.:.t.h.;.N h 0.8.j.J.l.i.g.5.t.6.%.t.7.a #.7.] X.;.5.0.8.5.5.5.f.;.%.0.5.1.1.% ;.0.8.! t ",
"c V | } | t.g.;.o.A C ;.e.c.i.0.7.o._ K _ %.e.O.D e 8.7.i.h.5.;.:.:.;.| %.%.] u ( t.:.X.o.| =.5.} 5.;. .;.[ %.;.d.( 1 7.i.N.#.e ",
"u a E X.;.! ] | ;.c E 0.;.7.k.%.;.;. .( R 9.6.O.N t ! 0.%.6.=.#.8. .X.} ' _ ] A E %.f.0.o.8.8.! 8.t.X.W _ ' W X.j.o.w %.V.i.=.x ",
"v E ( ` _ i.%.' ' a A %.y.7.t.i.f.f.| o.X.t.t.$.d H R ' ;.i.| ( =.0.f.8.X.| X.E E %.2.f.5.W ;.;.5.;.| X.X.X.5.:.d.X.# ;.k.g.i.v ",
"a | ;.E | ( W J | c c  . .6.7. .[ %.( 5.;.] [ =.V x } o.| 7.#.| X.f.f.7.7. .Z J C o.8.;.! } ( X.' o.5.d.%.#.%.X.5.A * 5.f.o.#.F ",
"v ] 6.( o.%.' ! g.H a ' o.o.K W }  .5.i.7.^ F | / # v v a c E #.| / t.h.d.U N q u p J ! _ H ( Q n c c J Z c h g g ~ + | i.;.' j ",
"A ;.| W | 6.k.i.o.W h 7.' ( &.j.7.=.%.%._ c h ! o.J A i a 5 A S G J H J S A f 9 3 6 * * u u A d C v K |  .;.7.0.%.R , } m.;.| _ ",
"( E | ' 5.' ' o.' ( u E ( ;.E ( W H A c c v b j W E g v E %.t.p.7.h.m.i.l.K.k.7.;.o._ ~ d B i J X.| [ ! =.5.f.7.f.s.n _ f.h.:.:.",
"q.E E '  .7.R W ( ' c u ! A V p g v W X.5.7.J _ A c J i.7.e.0.i.&.6.r.;.i.h.H.g. .' 5.8.3.V N 5.;.2.} X.' 7.K.J.J.F.t ' 7.;.;.7.",
"t.:.n } ( } ] 8.| E W * ; w g W o.;.5.f.S.;.o.X.[ R ;.q.:.g.i.:.j.&.#.=.i.e.g.0.j.t.t.i.t.%.d 7.2.5.o.,.X.7.l.S.s.f.v 5.i.7.:.;.",
";.7.W n _ ( ( 0.X.E x 6 n o.:.;.5.t.f.7.X.;.i.5.+.R o.:.%.;.;.0.:.=.&.( o.y.t.i.l.i.e.=.;.7.v W 0.0.| o.;.o.| 5.l.f.v t.i.l.i. .",
"W H W H h E E S x e p v 5.i.7.t.5.;.7.5.o.%.5._ U E ;.:.=.@. .7.5.q.( #.&.e.i.7.0.r.7.e.=.;.J H o.%.8.;.;.X.o.| 0.5.! ' _ %. .W ",
"e t e e n j f 6 g ( 7.i.h.F.f.0.0.o.| ;.W W } %.[ / | 5.5.7._ %.| ' #.( | >.:.p.7.| e.i.e.:.U W ;.7.5.;. . .;.X.5.} n H g h j j ",
"5.:.:.o.7.7._ F 7.i.l.l.i.f.%.| ( =.o._ ! =.i.,.P !  . .| ' #.7.$.7.X.| ^ [ =. . .5.:.6.=.}  .k _  .o.[ :.;.;.%.| H } H | g.t.0.",
"V.7.:.;.#.e.t._ 6.l.f.g.0.:. .;.o.! 7. .( | ' =.Z ' X.7.#.=. .^ ^ ( J E X.;.' ' o.' } | ( } ' V ! ] %.| ^ W ^ J J z ^ | ;.p.g.F.",
"G.V.V.=.e.r.:.P 0.7.e.o.g.#.| } J ] _ ! ' _ | $.C ] @._ ^ W W ^ ^ ' H ! o.;.X.o.5.} _ _ ;.e.( u ( E W K ( ^ ] H E e A } t.g.N.I.",
"C.l.r.r.p.:.p.G 0.7.|  .| ' ] V. .! ! !  .6.#.| p (  .] / R c W ( ( } ( ! | &.;.:.;.! ] [ W H * W W R v E ! ( ] E X A &.;.g.l.C.",
"i.r.>.7.w.>.t.q ;.i.o._ ! ( | ^ W U W ^ _ o.' W e 5 ( W R J A J ) 7.p.=. .=.;.0.;.} W _ e. .W 5 5 J J v C k g - 4 c n ( q.7.7.e.",
"=.t.y.,.r.c.y.F i. .K _ W W ~ W H _ ( E ~ 5._ C r @ ( ( A V H E ~ W _ } %.}  .| | :.! W K h * u # u w - ; - r p z A h #.7.:.] $.",
"] =.@.>.O.,.r.^ o.o.W ' _ J x h g d h A H J H u $ # y E W ^ _ ! ( W J ! J e s k F F s e 5 g E X.#.:.q.f.7.e.e.y.#.#.| &./ I $.| ",
"L -.O.L m U T k ;.' _ J J H A v h v ~ ;.8.:.' b e # = 1 5 K F k u a e j S | o.7.#.v k = 9 E p.y.r.&.y.#.&.e.v.z.M.$.) ( ^ U I J ",
"k h B M J F _ v e h b j g s d A ]  .:.p.l.p.g.e.0.0.t @   $ O X | t.t.y.q.F.L.Y.t.;.u 2 J -.>.e.q.e.r.&.7.y.w.,.r.M.g./ G U C d ",
"5.7.0.l.F.f.j.t._ F x w p E | ;.;.$.:.=.7.h.g.g.7.7.i.7.o.@ # z w.e.w.q.t.G.h.q.y.5.^ M q.I.N.B.n.m.y.:.t.-.c.x.y.,.<.t.^ S 4.7.",
"h.h.F.K.L.f.f.0.0.;. .! n ! t.V.p.p.m.i.C.h.t.t.p.h.>.7.p.| 5 ( >.O.@.7.7.q.e.;.e.;.:.7 :.p.B.B.P.U.x.p.N.r.v.Z.B.C.y.r.6.y.k.0.",
"0.l.E.K.J.l.g.f.0.8. .2.o.' t.y.h.m.V.v.:.0.i.i.h.,.#.t.q.| ; #.#.y.7.6.O.$.7.#.p.@.7.V _ p.m.b.U.I.n.<.r.N.r.y.P.W.B.c.] t.l.X.",
"j.F.l.E.L.C.F.F.f.0.s.7.} } t.h.m.i.#.:.;.=.7.i.i.7.:.0.>.>.c M.m.n.p.e.:.$.O.7.@.:.=.J V q.,.c.P.Z.y.g.$.x.4.r.n.B.B.Z.` ;.f.s.",
"f.l.i.l.k.i.H.V.g.f.s.s.W 5.0.7.7.q.t.] #.q.#.y.g.7.f.0.q.:.d -.q.g.f.y.>.r.] i.p.p.#.Z Z | q.*.c.M.B.e.:.,.:.*.y.G.Y.Y.q.#.t.8.",
"5.7.f.h.0.i.h.g.7.i.s.f.W } } o. .&.v.z.@.| 9.7.C.B.>.:.q.T 5 | m.,.q.p.$.` #.:.v.t.t.N V | #.*.w.c.w.>.q.p.>.c.9.H.n.g.&.~ h.%.",
"f.7.0.} 0.0.X.7.=.:.l.S.W } X. .#.| $.,. .d.t.6.c.=.@.@.6.^ d @.u.m.M.r.u.+.] +.-.p.n.M ) #.*.>.,.w.p.&.:.>.p.V.B.F.N.B.$.] t.h.",
"i.;.[ 0.7.;.%.%.t.0.l.f.R ! } } / $.;.@.] t.-.#.%.%.q.&.&.Y y O.r.-.c.u.$.` ~ #.| &.>.; { %.:.,.-.@.e.( @.q.p.y.n.F.n.n.q.^ :.3.",
"5._ } o.| %.N.y.7.5.l.J.H _ ! ! #.' #.W  .=.] 7. .| X.@.#.' y J w.c.y.$.$.+.@.;.:.o.+.1 %.#.&.N.0.#.r.t.$.e.q.$.*.y.Y.y.n.O.@.4.",
"W %.;.V.6.o.t.i.k.f.s.f.x b } 2.>.| F | =.>.I 7.;.6.q.#. .K h ] ^ #.>.@.<.@.] @.-.&./ i q.X.%.;.q.:.:.$.r.c.p.q.g.G.Y.n.e.) e.%.",
"%.%.f.7.o.;.| 7.7.0.0.9.x E } o.] [ | =.p.>.| ] X.7.%.X.#.J v $.q.@.$.>.-.$.O.| | #.J 7 ) q.$.>.q.r.p.7.e.w.q.g.y.n.m.c.@.^ { %.",
"0. .%.f.8.%.7. .i.g.s.0.j | } _ | ;.#.#.#.| :. ._ | ^ | +.N k @.r.y.>.$.-.-.O.) @.$.Z V ( %.#.:.y.:.$.-.>.p.:.y.g.4.c.4./ ^ { %.",
"! #.%.5.5.7.;.7.0.i.0.2.! | ' ;.;.| ` @.:.I o._ _ ( #.=.&.~ i O.-.$.:.` $.>.O.I %.| d 7 ` ] &.@.#.q.&.;.&.:.) 4.q.4.z.p.~ @.4.@.",
"X.o.g.7.%.;.| 7.i.7.;.C ' ' ' ;.] [  .q.e.=.] ` X.;.;.e.#.K V | &.#.$.:.,.,.+.#.-.$.J ; ) q.&.e.$.q.q.-.&.r.g.g.y.n.D.n.$.~ ) &.",
"6.8.;.g.8.#.7.X.7.k.f.0.x } } _ | 6.%.$.o.6.:.#.) | #.] @.k V O.$./ O.=.$.$.$.=.=.<.M 5 ~ @.@.$.r.y.@.| #.q.n.g.g.4.*.&.I ~ ~ { ",
"] #.%.6.5.8.;.7.0.7.0.X.E X.( %.$. .] ^ _ / W W _ ^ ^ G k 5 7 J Y Z B G O.,.e.+.$.` 7 + y ( &.7.#.q.@. .o.] | 7.e.&.&.@.B @.Z S ",
"^ | 7.%.6.6.&.q.k.&.E w ' | ' l.t.E E _ | _ ^ G K i u = + < O . . . O 5 i B L L G h * * 5 c U ( O.O.Y @.( #.W / ) &.$.I a ) ) 7 ",
"h A O.@.) ( J V h u w g c ] ;.7.K H g g k d d u 5 C A W ( W b E v V v c V c h c a e u 5 $ $ & 5 1 s a M d d h Z I L / 7 Z I G Z ",
"g u i c i a y >.q.6.q.7.&.^ v u a u b A c 6.N.g.h.t.g.h.g.i.g.g.g.g.f.J l 7.5.' ! R ! A b e e a H w a g h e c u 7 7 0 i g s a V ",
"6.g.B.m.t.t.w.4.t.e.e.i.y.p.V.%.b a p.9.n.N.0.6.6.t.g.7.:.| 7.y.g.7.7.J b X.;.i.7.6.q.-.;.7.5. .| ) ! x z p c Z a a h J 7.:.;.&."
};
