/* XPM */
static char *_663013561455[] = {
/* columns rows colors chars-per-pixel */
"64 64 161 2 ",
"   c #141415",
".  c #1B1B1C",
"X  c #201F1E",
"o  c #1D1E21",
"O  c #201F21",
"+  c #1F2023",
"@  c #222324",
"#  c #282727",
"$  c #262629",
"%  c #292729",
"&  c #27282B",
"*  c #2C2B2D",
"=  c #312F2D",
"-  c #34322E",
";  c #2D2E31",
":  c #2F3033",
">  c #333334",
",  c #3A3634",
"<  c #3C3937",
"1  c #353639",
"2  c #383738",
"3  c #36383C",
"4  c #3B3B3C",
"5  c #433B36",
"6  c #413E3C",
"7  c #44413E",
"8  c #49443E",
"9  c #3C3E41",
"0  c #403E40",
"q  c #3E4144",
"w  c #3E4248",
"e  c #434343",
"r  c #494644",
"t  c #4C4946",
"y  c #444649",
"u  c #484748",
"i  c #46494C",
"p  c #4C4B4B",
"a  c #514B45",
"s  c #514E4C",
"d  c #5E5447",
"f  c #54524D",
"g  c #59544D",
"h  c #464C52",
"j  c #4C4E51",
"k  c #524F50",
"l  c #4E5154",
"z  c #4E5459",
"x  c #545353",
"c  c #595654",
"v  c #565856",
"b  c #5C5A56",
"n  c #54565A",
"m  c #56595B",
"M  c #5C5C5B",
"N  c #63564E",
"B  c #615C56",
"V  c #6B5E52",
"C  c #615E5A",
"Z  c #5F615E",
"A  c #606057",
"S  c #696257",
"D  c #64625D",
"F  c #6A655D",
"G  c #6E685E",
"H  c #756756",
"J  c #7C6C56",
"K  c #70645B",
"L  c #736A5E",
"P  c #786B5F",
"I  c #5B5E61",
"U  c #605F60",
"Y  c #5E6264",
"T  c #5E6469",
"R  c #646462",
"E  c #696662",
"W  c #666865",
"Q  c #6D6964",
"!  c #656669",
"~  c #686668",
"^  c #666869",
"/  c #6D6C6A",
"(  c #706765",
")  c #726C65",
"_  c #786D64",
"`  c #726E6A",
"'  c #6F706B",
"]  c #747066",
"[  c #797266",
"{  c #75726D",
"}  c #7A746D",
"|  c #7D786E",
" . c #6C6E72",
".. c #726F71",
"X. c #6D7174",
"o. c #757472",
"O. c #7A7672",
"+. c #767874",
"@. c #7D7A74",
"#. c #71767A",
"$. c #79777A",
"%. c #76787A",
"&. c #7D7C7A",
"*. c #81776C",
"=. c #82796E",
"-. c #8B7C6C",
";. c #807773",
":. c #837D74",
">. c #887E75",
",. c #827E79",
"<. c #887F79",
"1. c #858076",
"2. c #8A8176",
"3. c #85827C",
"4. c #8A857C",
"5. c #8C897E",
"6. c #908376",
"7. c #91867B",
"8. c #928A7D",
"9. c #837F80",
"0. c #7B8085",
"q. c #858482",
"w. c #8A8681",
"e. c #8D8A83",
"r. c #828388",
"t. c #87898A",
"y. c #8D8C8A",
"u. c #928D84",
"i. c #998F84",
"p. c #928E89",
"a. c #988F88",
"s. c #959186",
"d. c #9A9286",
"f. c #9B9887",
"g. c #95928B",
"h. c #9A958C",
"j. c #97988E",
"k. c #9D998E",
"l. c #969491",
"z. c #999791",
"x. c #9D9A93",
"c. c #9F9E99",
"v. c #A0978A",
"b. c #A19C8C",
"n. c #A09793",
"m. c #A29D93",
"M. c #A99F93",
"N. c #A19E99",
"B. c #A5A196",
"V. c #AAA395",
"C. c #A4A29B",
"Z. c #AAA59C",
"A. c #ACA89B",
"S. c #A5A4A2",
"D. c #A8A6A0",
"F. c #ADAAA3",
"G. c #B1ADA4",
"H. c #B0AFAA",
"J. c #B2B0A5",
"K. c #B6B2AA",
"L. c #B9B5AC",
/* pixels */
"p.x.c.&.l.p.M ~ G *.Q +.:.` 8.w.| G @.O.:.] 3.3.4.3.1.4./ ` { >.w.,.e.y.o.~ o.$.E / 3.e.&.b e f +.p.p.N.x.x.e.e.` D &.5.k.s.O.v ",
"h.w.s.t.c.o...` C 3.w.} :.{ } ) Z S ] e.3.+.{ @.e.@.1.@.o.q.{ o.p.o...y.y.~ / C / / $.,.R A c m w.x.C.z.j.x.5.:./ A / g.h.4.E v ",
"C.l.C.l.s.@.` 3./ U @.} } A ( C D Q 4.@.D ] R O.' 3.3.o.%.p.` @.g.+.w.q.g.{ ^ R R } ` U x m { { e.p.p.C.h.p.3.O.D A e.4.3.Q v Q ",
"g.3.e.3.l.l.M o.+.{ ` <.Q { G b L Q 5.E D F D E :.} 1.Z r.r.C u.q.w.D.S.l.+.! / M $.w.Q x M :.@.&.O.N.p.C.p.:.O.&.+.&.{ ] / M p.",
"&.&.O.:.t.3.R ! W / { +./ X.3.^ R &.C.R M Q b &.t.[ 4.M Y +.W / Q R y.n.g./ o.~ M $.,.W R 3.@.9.e.p.N.G.d.@.{ o.O.&.+.q.&.E o.B.",
"} D R $.#.+.m x M ] u.{ / w.O.D Q 3.o.Z m ) ` 4.e.O.Q ` M D o.g.w.$.W N.g.o.o.9.` ,.,.,./ $.&.w.$.4.N.N.p.s.o.c R O.x.&.&.' w.y.",
"{ { ] ` w.X.+.C e D s.} { { / { p.@.x x f Q $.@.3.&.{ { D D <.Q z.e.l.N.z.&.;.y...l.g.y.@.o.p.,.u.>.w.m.h.h.<.D Q +.x.q...,.e.y.",
"} ] 3.w.y.! R ( ( / D F @.Q D R :.t e t 3.` ` <.+.y.+.+.v D E o.0.w.w.e.p.q.p.@.9.o.y.l.{ ` 3.&.a.<.>.2.8.N.u.+./ y.l.q.Q / +.4.",
"} *.<.} <.B N L ) 2.e.&.;.` O.O.] / / M +.O.R >.q.~ W ` W c x Q 3.g.g.t.e.g.p.Q @.` +.q.3.p.z.N.F.4.2.i.m.x.a.a.:.l.y.W C o.` O.",
"b ` } ( <.` ;.7.5.5.,.` 3.O.A { g./ / M ` o.W { M W c M W  ./ $.{ y.t.&.&.g.z.+.3.4./ q.z.z.g.g.x.e.x.m.a.9.9.e.7.n.<.Q E o.;.B ",
"B <.u.e.` b 9.w.4.5.@.{ j.&.+.1.@.{ Q M / +.$.` / m c ~ &./ / W / &.y.E M { z.g.@.p.l.r.g.l.y.c.g.$.:.e.:.,.w.<.u.h.} E R ;.} V ",
";.} _ *.V s :.K @.u.h.e.e.g.e.O.O.,.,.R B <.@.%.$.M E R ..U / / W ` W b O.t.p.4.` j.+.%.q.y.s.j.4.{ ` E / W 9.z.h.v.( E ` ,...Q ",
"O.` _ } 4.@.;.G ] ) | o.&.4.{ Q e.F E F C O.$.o.$.v I E b Z v E R x x C ~ q.s.o.W &.q.$.' q.@.w.R x F b k ( w.M.D.x.` o.u.( b ` ",
"V C } [ @.F { _ F [ 1./ { O.M 3.,.B C F E e.@.W D x C m x s x ! R j u k @.C.j.+.R R U R M ^ Q { R x C Q c C 9.l.e.w.` ` <.( c @.",
"P c ;.>.{ F E 2.d.1.} Q A W D o.{ b M / } @.w.,.U p  .x f p v v p 9 e x 3.u.Q D x k e 4 p p c p p u C c U ( O.4.( ` M / <.} F P ",
"} ;.4.>.4.O.3.d.8.} 4.R e.Q R A ` ( ` U o.w.p.o.x M U c t q q 3 1 : 4 c w.y.a y 4 0 4 u r e r v p c C I ~ Q ~ U t B M / ;.O.E _ ",
"*.@.] @.e.e.` Z.h.3.;.` Q 3.f f D :.@.o.g.q.w.c r p q e = - > : e 4 6 / b b 5 6 6 0 0 0 0 0 m I ! t n n f e W j 4 ` <.o.p.` c ` ",
"( Q } u.<.@.@.w.5.1.} G ` E c R { e.e.g.R R ` a 6 1 < 7 = 3 < > : > M ` s , * > y t 2 6 6 3 9 9 2 k > / p q u $ 1 E O.` a._ s } ",
"} ` ;.@.@.e.5.@.j.u.O.D O.} ] &.e.@.&.&.A | B r > * 6 - : q 1 > ; 4 $.:.6 0 9 9 , 5 % 0 s N a = 4 e y 0 ; $ * + t <.w.E 8.{ O.} ",
"( B D ) N.Z.B.F.F.y.1.1.Q :.Q ` :.^ 1.Q ] | B r > r G 6 = : : : 1 Z <.` 0 > 1 z 3 $ > > 9 0 6 : x 2 2 p   * & % @.,.@.C <.` 7.<.",
"( g f { x.C.g.C.F.s.{ ] O.` 4.D ' D :.g D b g 4 < Z ] , > > * : s Q E t ; ; 9 w ; > = > 3 : $ = 2 1 % - > * o D e.e.{ R o.;.<.,.",
"S D *.4.e.x.p.C.y.3.{ { B g A f Z f ] A A F r 4 < L D , - : - 3 M :.3.4 9 9 & : o   6 4 9 4 6 1 1 % b < * * 4 $.h.p.o.o.{ w.<.;.",
"2.4.h.x.c.u.w.p.g.{ D ] c c M g g A | K g g t f ] | b y q 2 1 4 A h.R 3 9 : ; O . 1 6 0 1 9 e 4 2 , E * * $ c w.F.x.&.` w.h.w.{ ",
"D Q u.h.w.+.x.g.3.{ D Z c b O.3.{ 1.| [ f f Z R 2.g.Q s 4 9 p Z *.5.A 9 : * 9 9 : 1 e 9 n j m p 4 B / r > 3 C ] N.S.y.$./ u.O.} ",
"t F k.4.{ w.g.3./ ` v W c R <.e.} F F c t f o.l +.' I m a a Z :.k.5.g 3 1 9 y h 9 1 4 ; > t 4 q ! e./ 6 9 M +.3.w.H.e.l.+.j.@.@.",
"g s.u.&./ ,.e.e.{ M p D Q / e.g.5.&.W f 6 7 r n o.X.n l f H ] s.C.{ x 1 9 I T Y q 4 h 4 4 p x r e q.m c g O.<.<.,.z.y.@./ ,.e.E ",
"] D ] { O.3.j.+.Q b W { O./ w.u.=.=.b t x W q.y.X.m i % - g | x.h.D Y 9 w h z n = r h i p v r Y o.T q < L { @.4.x.e.w.,.] ] { } ",
"R v ] +./ ` x.p./ b m ! W / #.W &.{ f e m I ' m l i 2 1 i Z 5.u.+.e q h w w w 3 * e j x p l n / n y : q R g.h.w.N.s.h.q.+.@.4.@.",
"/ &.&./ R Q Q / W ! v ` / $./ o.} B r 1 l x x e l y : : y G 4.4.A q 1 7 9 h 3 q * m Y l e 2 x j q q & j U <./ { e.j.} O.@.3.s.y.",
"3.&.{ ~ W W R ~ Z ^ Y R / 1.M v b p , 4 v v < 4 l : : 3 v e.s.5.4.D f = t E e . q h x y > 1 e & z * > W / ` m.p.d.k.>.} { 3.u.] ",
"+.o.~ M Y Q M R M Q ^ Z q.{ f e f 4 , 4 4 4 X > q 1 > < Z p.C.p.t . o @ # .   + q i p p e 4 *   & o 4 R C Q V.<.j.O.d.p.O.5.:.Q ",
"j.$.x W +.R M o.+.^ Y Z { +.A v f f r y 1 % . @ # X + > D @.p.D * * 1 3 p >   2 , > r D e m 1 & , @ f t M v E :.s.Q N.g.+.5.s.s.",
"+.! ] ^ +.v o.&.{ Z Y / Q E M C E p M I 3 1 ; ; < @ - Z O.) D x > q : > l q & m I n u M j 9 1 w y i E g { v { g.s.4.d.1.} f.s.k.",
"o.{ 3.w.^ D v Z R M M / E ` M / C j n h 3 9 h y l q l { u.} b 9 : : * l I 4 l x x s s p q 3 z h 9 M *.q.@.F ' y.3.:.=.x.3.p.p.g.",
":.+.e.e.3.{ M ^ R x m o.4.>.{ / v p j u 9 m I w y m D { 1.b t e > : q l l m R z / i I 0 ; 1 j 9 4 F 8.5.( Q Q ` +.j.x.g.z.p.e.s.",
"` Q w.q.+.{ n / E R Q +.h.p.:.R r y 0 9 e I n y 9 f O.&.) A l e q : 3 i Y 3.%.t...m k 9 9 * ; ; t G 4.2.D E E D { f.e.p.x.s.@.x.",
"{ %.o.3.{ D ] ' D +.R g.N.w./ j u 1 3 4 e j h 9 1 p { 3.O.] S 5 & q m X.X.+.T ^ k s 1 1 * o ; : c B 1.{ ` F D } / 1.s.w.e.&.3.y.",
"p.9./ ,.4.) ' Z M %.W e.u.` W u 9 e u 4 > 3 1 1 1 t y.e.,.Q J V y I m 0.t.p x f j 0 O > & & ; = *.f D B E { O.V.x.e.e.f.O.E O.A.",
"z.q.z.g.u.&.v ' R :.:.e.4.R 4 0 9 4 4 = @ : > 9 1 f y.s.3.^ 7 b B R Y X.O.M &.m j > r 6 * 2 , g <./ ) Q D :.N.m.4.e.e.5.:.} B.e.",
"3.w.p.j.e.E R Q Q +.{ 4.Q i > * 3 2 > % ; 9 1 1 9 ` w.j.Q X.1 e , a e.c.s.' X.x 0 > > , > = 2 :.} ( { F 8.u.N.b.e.x.e.p.3.x.h.g.",
"w.g.x.x.p.+.<.E ] { 3.( M s 2 , 4 2 = ; : y 1 3 c ` 2.] 0 4 < r u e b 8.[ b t ~ r x 0 9 4 > x W B.4.:.G 8.i.N.M.c.x.3.3.O.g.p.5.",
"O.p.l.p.e.p.+.Q 4.3.] M m u 6 t C 0 , , 5 0 5 t F 5.u.B j l 4 > i r } 2.t 4 u 0 0 t 6 2 6 k / @.p./ 1.} v.A.b.A.s.e.&.o.4.y.g.,.",
"$.g.@.4.[ 1.E D F :./ j u 2 9 6 6 5 , 6 6 6 2 x @.B.} e = > e e 5 8 [ ) 0 3 u r c ` k B {  .] ( @.} } >.M.G.L.a.Z.] { g.y.@.3./ ",
"&.c.q.w.D.&.E M ` O./ ! x j m j 0 2 4 0 3 5 a F 1.h.G e 9 2 , < < b | Q 0 6 b B ( >.} $.,...o.3.@.@.8.>.d.M.u.a.u.4.$.s.} Q u.x.",
"w.` +.&.w.Q Q ' u.w.X.U s j k t 0 < 4 < < e E u.p.5.p , , e 4 4 < g F 5 7 p B F } :.5.<.,./ Q @.4.f | 2.>.d.b.e.h.R &.h.) Q e.s.",
"q.R W M / ` +.o.Q m p t 2 t x t 6 6 t r b ` w.e.g.{ e > : 4 r p = f t < 7 s L ` ;.8.4.E Q C B 1.Q c [ 2.-.V.8.<.e.t O.3.5.3.) $.",
"&.C C ~ c ` C +.x C r s 6 C v a a B B D ) ` v.4.3.s - 4 p q t 4 < Q c p s B F } 8.8.( O.C G F ;.3.2.1.} 8.s.8.2.3.F o.@.u.O.] N.",
"W @.o.W w.o.B ` C v e C E ` F E ` ` { <.x E <.;.Q , 4 m 4 , 7 4 f v v M c B F ( i.<.E F o.` { _ 8.*.2.2.8.k.m.u.` b ` @.p.Q ,.g.",
"C { B M Q ` ..Q c c b } A G >.:.3.( ] ] C 4.5.5.t 4 e t 4 e s s C C O.R b } @.;.8.@.G B F ) G >.8.[ 8.B.] ] 4.1.b b ] j.k.1.5.[ ",
"O.` R s M &.w.../ / ( } } _ =.2.4.Q 1.O.1.j.x.O.r e e t c R C g C c w.a c @.) <.5.:.) D D *.A [ s.*.b.1.S G } L @.O.+.B.c.O.J.5.",
"Q ` o.M R <.o.Q ` $.2.5.:.5.4.N.4.] 4.Q Q ) u.c e e r R $.Q C B B U b ` C <.[ O.4.=.] D 7 G [ [ u._ 4.B a K 2.5.| Q 3.V.A.5.' D ",
",.o.o.M $.,.( ` ( Q } ) 5.h.p.d.) +.p.` D } ) C c M W o.@.F E Q C _ E O.( w.2.e.w.O.Q } s 2.1.:.8.@.@.G B 5.u.5.Q ] 5.b.d.&.F 1.",
"&./ m o.+.:.e.[ / } @.:.4.G.f.u.) :.:.} Q @.( E B s c b Q S B ) <.Q @.>.] <.3.{ Q O.:.` u.a.m.p.3./ p.w.{ >.u.j.1.] 1.f.k.{ ] s.",
"{ W y.{ +.3.w.E Q :.u.1.) } 3.:.F B F Q ] :.) E B D c M } } _ 2.w.:.<.4.Q 3.3.:.5.4.3.2.a.5.,.w.w.w.F.c.3.u.$.h.&.] m.m.A.5.2.u.",
"{ / 3.1.` u.u.@.:.N.k.:.u.8.@.) B f ( ` 3.w.` ( } / v a D [ G } >.d.e.-.O.] ` O.5.F E } E E &.w.$.e.g.w.` C.C.e.+.] f.b.f.s.1.G ",
"} 3.D 5.<.w.4.L <.s.s.h.k.Z.5.:.+.] ;.` ` ` F ] :.,.M c Q =.F } ( >.;.;.<.D E :.{ w.;.} :.( <.e.` $.u.:.B { <.h.8.5.5.1.B.5.Q :.",
"' O.:.2.<.:.L 6.>.N.N.z.5.w.` ;.,.3.:.Q ` <.} ( ] w.Q / e.s.1.| Q >.2.1.s.{ <.h.;.4.` Q } ) u.m.3.R ] ;.*.5.1.y.8.1.5.b.B.b.B.5.",
"/ &.f.y.E E ` 8.:.a.m.m.u.:./ | ;.@.j.Q { w._ b { { D W +.4.&.b D 1.8.B.j.h.p.O.@.>.B } ) ,.p.C.3.D / =.Q D +.3.@.j.3.s.B.b.c.5.",
"h +.x.8.5.( ) 4.h.m.h.H.A.3.{ ] { @.,.o.` 3.=.} W } Q Q | +.' } ] ] 4.m.G.w.Q 3.p.` ` o.} } w.A.F v R 5.{ :.1.q.:.e.y.5.f.j.5.j.",
"m ^ :.p.<.F D :.a.f.v.d.h.@./ o.w.p.,.Q ` O.;.F D ] [ } | @.| ' } O.k.j.m.w.` w.u.} ..:.{ u.n.w.] v m O.4.s.h.y.3.4.e.g.s.b.x.f.",
"p | 4.1.<.I ` 4.>.m.a.<.) -.*.A ,.p.,.` ` ` Q C W :.1.O.' +.s.@.+.p.C.j.4.:.D { &.` U :.:.J.p.h.c v { s.e.f.k.B.B.} Q 3.x.d.s.{ ",
"m g.1.4.@.} } ` { u.u.@.] p.L ( O.z...,.` W } Q ' >.2.] G | 5.1.h.3.3.| R b b $.} Q C ( 3.C.:.{ C / e.N.x.x.A.s.h.Q M s.h.B.s.{ ",
"&.B.j.3.} b } E } } u.4.u.o.D x.g.w.w.q.) D @.A D D 5.e.D } ) } :.&.&.@.&.D R @.O.&.E $.j.e.E Q &.p.h.Z.F.C.} 1.k.| E p.u.p.u.A ",
"+.j.j.&.{ e.Q E ` { @.e.,.<.} 5.p.,.@.] F v F E G b 3.p.W F Q } 1.e.3.3.@.Q +.:.{ o.+.` s.3.b Z ] e.A.F.J.A.3.u.| } O.5.u.x.b.W "
};
