/* XPM */
static char *_663013434772[] = {
/* columns rows colors chars-per-pixel */
"64 64 135 2 ",
"   c #1F211F",
".  c #22221C",
"X  c #1F2221",
"o  c #242524",
"O  c #282722",
"+  c #272826",
"@  c #292A26",
"#  c #262A29",
"$  c #2C2D2B",
"%  c #302F2C",
"&  c #2E302E",
"*  c #32322E",
"=  c #38342E",
"-  c #383A2F",
";  c #373A2C",
":  c #2F3231",
">  c #343533",
",  c #3A3632",
"<  c #363936",
"1  c #3A3B36",
"2  c #373A39",
"3  c #3B3D3A",
"4  c #403D35",
"5  c #413F3A",
"6  c #483E3A",
"7  c #3E4037",
"8  c #3E413D",
"9  c #424236",
"0  c #42433D",
"q  c #4A453D",
"w  c #46483C",
"e  c #4B4A3E",
"r  c #524D3E",
"t  c #58503E",
"y  c #3C3F40",
"u  c #3E4241",
"i  c #434542",
"p  c #494742",
"a  c #464944",
"s  c #4B4B44",
"d  c #444548",
"f  c #464A49",
"g  c #4B4D4A",
"h  c #514E44",
"j  c #504F4A",
"k  c #4F5143",
"l  c #4E514C",
"z  c #545245",
"x  c #595645",
"c  c #5D5847",
"v  c #54544C",
"b  c #5A564B",
"n  c #56584D",
"m  c #5B5A4D",
"M  c #4E5350",
"N  c #545551",
"B  c #5A5751",
"V  c #565852",
"C  c #5B5B54",
"Z  c #575A59",
"A  c #5C5E59",
"S  c #615C4C",
"D  c #625E53",
"F  c #5F6155",
"G  c #5F615A",
"H  c #636254",
"J  c #6A6654",
"K  c #6C6956",
"L  c #64645B",
"P  c #69665B",
"I  c #66685D",
"U  c #6C6A5C",
"Y  c #716C5C",
"T  c #70725E",
"R  c #656661",
"E  c #696760",
"W  c #676862",
"Q  c #6C6C63",
"!  c #6D6E68",
"~  c #716F63",
"^  c #716F6B",
"/  c #6F7063",
"(  c #6F7169",
")  c #737265",
"_  c #7A7666",
"`  c #767867",
"'  c #74746A",
"]  c #79766A",
"[  c #77786C",
"{  c #7B7A6C",
"}  c #767771",
"|  c #787772",
" . c #7D7C72",
".. c #7F7E78",
"X. c #817D6E",
"o. c #817F73",
"O. c #7F8174",
"+. c #7F8078",
"@. c #81816F",
"#. c #838275",
"$. c #898576",
"%. c #878976",
"&. c #8B8977",
"*. c #86857A",
"=. c #89867B",
"-. c #87887B",
";. c #8B8A7C",
":. c #918E7E",
">. c #93907E",
",. c #868580",
"<. c #8D8C82",
"1. c #918E83",
"2. c #8F9083",
"3. c #949284",
"4. c #999686",
"5. c #959489",
"6. c #99968B",
"7. c #97998A",
"8. c #9C9A8D",
"9. c #9E9C91",
"0. c #A19D8E",
"q. c #A29E93",
"w. c #A4A194",
"e. c #A9A297",
"r. c #A6A49A",
"t. c #A9A69A",
"y. c #ACA99D",
"u. c #B1AB9E",
"i. c #ADABA1",
"p. c #B1AEA3",
"a. c #B4B1A5",
"s. c #B5B3A9",
"d. c #B9B6AD",
"f. c #BCB8AE",
"g. c #BFBBB2",
/* pixels */
"> : $ < 8 f 2 a u u u u 8 2 2 > > > > i ! [ $.-.E 1 1 3 3 5 p i 0 i 2 < 2 y y g p 3 < > > 3 < # $ y y i u f g g l / <.[ 8 y 3 3 ",
"> 2 : : 2 3 3 i u u u u 2 8 8 2 3 2 i j #.1.:.3.v , $ $ @ 2 2 2 3 i > > > < g d 2 2 2 > , > $ # 2 3 8 i 8 f u f Q 2.7./ 3 2 u 2 ",
": 2 : : > 2 2 8 u f 2 2 2 8 8 > 2 3 V H 8.4.:.%.U 1 > @ $ > > 3 , > $ > > 3 u 3 1 3 2 2 2 > # $ i 5 5 3 u u 3 C -.&.;.U 8 8 2 : ",
"y u : & 2 u a a u 2 2 2 8 2 > 2 u g N P 8.6.:._ H 1 > $ % > , 3 > $ * , < , > 2 d 3 3 u y > $ > i a i 0 3 8 g ^ 7.w.7._ g 2 : : ",
"g i 2 < 1 8 3 1 8 w a 0 8 2 < 7 a s v ' 6.t.3.#.U b w a b ) ] o.' ' { ] D s j s i a 3 3 2 % % w j v N C L ;.3.6.r.9.8.3.O.V < u ",
"( ' ' / ' [ *.3.7.3.3.<.-.#.O.#.*.3.9.p.s.f.s.s.s.i.i.i.q.t.p.i.e.y.q.0.q.9.6.8.6.#.H L '  .' o.#.1.9.r.s.y.a.p.w.8.3.3.3.5.-.' ",
"[ +.-.#.9.y.t.y.u.y.s.y.y.y.y.y.y.q.8.1.| *.6.r.i.i.| | ! R Z g 0 g 0 0 q s v ~ *.o.<.0.q.y.r.3.-.5.5.<.*.*.| ! C L ! |  .-.-.[ ",
"g l a ) 3.;.V s V n w 0 8 w a 9 7 4 8 3 5 a a C 7.5.a < 2 y 3 : % > 3 < > 2 3 > 1 3 i f A L [ b g a u y 8 2 2 > > , 2 2 7 l V f ",
"3 u 8 E &.{ g 8 g u 0 3 3 u > o & : 8 7 2 8 3 9 -.A y : < 2 > > 3 2 2 > 3 y : > > : 2 2 2 y A ! l 2 < > < > 2 7 2 2 * $ i d 3 2 ",
"d a a ) >._ 0 l g 8 3 2 3 $ X # > 8 8 2 7 3 > , *.N > $ # o > y i 2 > 3 u > > > 2 : < y 2 2 V *.e 7 8 2 < 1 i i 3 u < & a i 3 8 ",
"i i s #.w.#.s w w 1 - , 2 + + > 1 7 5 3 2 1 * q #.C < $ o # 2 3 3 2 2 2 < 2 2 3 5 i > > 2 2 V -.` 1 2 7 3 3 8 u i 2 > @ $ 1 1 i ",
"C ! ;.a.a.y.6.=.Q H Y c m c h z q q n 6 0 9 0 D %. .y $ o $ 3 2 3 u y 3 < , 2 3 i s y y 2 u g ;.3.C l l g a i i a a s s s v v N ",
"3.e.a.a.u.q.5.1.q.q.w.y.t.t.t.u.t.q.1.*.] P ] =.8.3.U 9 , , i a g a p i 3 5 p a d j f v j b #.7.w.7.5.3.2.;.%.;.;.#.#.;.5.3.7.O.",
"0 a k v N p 5 g A D A L U ^ ' ) ] [ 9.9.5.5.$.o.) J S K _ ;.<.<.1.1.<.,.*.*.$.o.$.:.:.:.3.3.=.=.>.{ ~ U Q /  . .*.#._ Q P L V s ",
"3 3 3 u 3 % > i 3 3 < > 1 a g 8 5 s q.,.D b h h p q h t x Y ] ;.0.6.5.9.5.*. .#.1.9.q.6.1.o.E Q P v 9 a f i 8 i i 3 3 < > 1 < < ",
"> , 1 3 > % 3 0 5 2 > < 3 a f 8 @ g 6.P 6 5 5 5 6 q 6 q 6 p h q v B D B B D P P D ;.6.E q 1 0 i 0 9 8 f a f 8 3 3 > $ * > > * $ ",
", 2 < * $ % 9 8 8 2 > > u d i 1 $ j o.S c v v v b n v b z a 0 0 p h v b C C D b b -.#.w 7 7 n P U D s s a a < > : & & > > $ $ > ",
"> , * * * $ 2 u i 2 2 2 i i 0 w D ) _ J K Y P P H S m m z x x b h h v h h h s h h -.8.' { O.;.9.r.w.X.S q h 0 8 & & * * $ % * , ",
"z r e r w w w v v l v C ' <.7.3.:.1.4.;.$.$._ J J T &.;.&.$.&.3.3.3.3.1.4.0.0.4.3.;.{ H l 0 u i v C ~ _ { #._ U n C C m b m x z ",
"J K K J Y { ;.3.%._ -.8.-.w.3.C L C C C U Y S e e w F F m H H U Q J L ) ~ U H Q H e i < # * > > 3 d C L  .-.3.;.;.3.4.$.o.) H H ",
"q h h j r ~ ;.;.*.U G C s G l g l f g a U -.V a 8 & > 8 a 8 1 0 s i a i a 3 * ; p 3 2 $ X > 8 8 u d l C ' O.;.R j s s 3 9 s 3 4 ",
", , , 3 0 [ 3.:.( A A M g i i l f g u l Q 3.C g 3 & $ 1 0 9 8 8 a g i 7 1 3 1 = 9 p > $ + 8 f u u u 8 / %.3.,.8 a i 3 2 2 2 6 , ",
"3 3 3 3 y C 3.<.L l G l a i g l f Z Z A ..3.! i i g 0 s k m H | Q ! n 7 4 w w 9 4 a 1 > > 2 M f 2 a V O.3.3.[ f p p p d d i 3 2 ",
"0 w d g f g ;.3.Q 2 l l f G R / O.O.! *.r.9.#.Q  .O.[ Q Q *.;.<.5.w.8.[ o.P m z s s n s V f N s V R #.3.4.4.*.G g N s f a j 0 5 ",
"Q [ ' ' ' [ -.;.Q a a C ) %.;.;.;.{ Q ! P ! H Q { L s 1 < 1 1 7 8 h >.4.3.O.;.3.3.3.3.3.#.*.*.#.;.0.q.5.9.w.1.%.#.O. ._ ' / ) / ",
"5.3.2.;.3.:.;.-.) C U $.;.@.L a g a 8 > * * 1 s i 1 < < < 3 2 & O % Y >. .s 7 a v D L U ) Q { $.O.O.' G R | *.5.9.8.1.3.5.8.9.8.",
",.-.O. .' ` +.{ R H #.;.-.>.#.C u 8 8 > o @ 9 9 < < < < 2 2 > @ O = m $.#.g < 8 u 3 3 1 > * 9 P C l i 7 3 3 9 f A R ' | O.[ [ [ ",
"> 2 i a f l n l 0 f [ 8.w.7.%. .V g 8 & @ O - 1 1 2 3 2 2 > @ @ * < 1 x P l u a 3 3 0 3 < < 0 g f 7 1 2 > & & > > i 0 > : < < u ",
"> 1 g Z Z f i 8 f g ( 5.r.w.q.5.` G 3 1 1 , > 1 8 3 3 , > > = * % 4 s c ) w 0 g d 3 1 < < < 1 a a 8 7 3 1 < * < 7 i u 8 a d < # ",
"2 > > 7 7 ; 9 n n C ' 3.r.t.w.8.5.O.C A H D b a w 9 , > = q h D X.:.0.q.3.] L G C w a z s m H Q / l i 7 7 1 1 - 8 9 7 7 7 2 < & ",
"a v v G I ' *.,.2.5.9.8.w.r.t.5.-.<.9.t.i.t.r.9.9.8.8.q.q.u.p.t.i.p.p.i.y.y.r.q.9.9.9.w.e.t.r.r.w.w.5.-.O.{ #.*.%. ...| ' C l s ",
"L ' W G F G C G V N a 0 g v v l l A A W | #...( Q ..*.[ D V B N g j j s a a C C k l L v L ) +.*.<.*.( /  .-.<.;.5.6.9.5.7.9.9.3.",
"N Z u > 2 y d j p y 1 > > 3 < : 8 l u i u a g l g ` w.8.l i 0 i 0 5 8 3 3 1 8 w 9 3 8 1 8 3 7 < 7 8 0 s ! v g s p s g s s s B H ",
"u 6 > : > 3 g p 2 1 > > < < : 2 u u 0 i 8 f u a W 1.3.) a s a w 0 a 9 1 1 3 3 8 8 8 3 a a f a s l l V v ^ 3 > 1 > > & $ > > 2 2 ",
"> , % > > 3 5 , > 5 1 > 2 > & i G v i 8 u f 3 n ` ] O.H e w a 0 3 1 1 1 1 1 3 8 0 w 8 8 1 a a 8 u a R L Q > 3 1 * * $ > , , : 1 ",
"> % * , 3 , 1 1 0 5 1 8 0 8 f Q +.#.W l l g C  .;.$.( / H 8 1 3 1 1 1 1 7 s s l f 0 3 3 8 1 8 0 a l C H L 9 8 < $ * 2 , > % * 3 ",
"D ^  .] ~ Y ` _ _ ~ _ o.#.,.;.3.i.i.9.,.#.*.5.6.q.8.3.2.<.Q w s k a 1 1 8 8 1 7 e z m k h w 0 0 s V C L ! v a g b b C ! { *.o.o.",
"<.i.w.-.=._ ~ U ~ ] #.<.5.+. ...V N C 2.6.9.<.{ P / /  .<.;.%.{ { _ ' Q / !  .#.=.=.-.;.-.&.*.5.8.5.5.5.9.3.<.i.s.p.p.s.s.d.f.s.",
"> s 5 1 < * * < 8 8 3 a d 8 8 a i i u A o.3. .b s s k s v I ' ' Q Q ' [ 3.5.<.*.*.*.^ L P [ 5.q.7.2.;.;.6.8.t.i.p.r.^ } ! ! Z g ",
"$ , 8 1 < < 3 > 3 2 2 3 2 : # 2 3 n ) ' [ ' L C B s Z C M N g a d u i L -...C v N B v s s E } o.5.5.3.5.6.9.8.8.<.R > : > 3 2 : ",
"3 3 2 2 i i : > 3 2 > < 2 : # 2 C %._ l 2 1 i f f a u f l g 3 2 3 u 8 Q $.H i 1 % * * , , a s 0 H ;.8.w.q.<.1.o.R i > : < 2 : & ",
"d 3 < 3 d i 2 > 2 > > > : & 2 M %.4.L f a i a a f f 2 u g 0 3 8 d a s #.;.x * $ % % $ > > 1 5 i C ) P J H J ^ { / i > # # o : u ",
"8 2 2 3 2 1 2 > 1 4 < & & : u l ) #.b l M g g N l f 3 i 8 8 8 0 0 a l *.:.v * % @ @ > 3 5 * i s C | <.=.$.&.6.:. .l > $ o # 2 y ",
"u u y 2 > > 2 5 1 0 8 3 : > i ' :.{ ` N s f g Z A N l l l N n F I { <.r. .h % @ 1 9 b m a 5 6 q s I ' ^ ' D L K Q C 2 $ o $ 2 2 ",
"a i d y 1 3 i i a l s s w r @.8.0.8.3.3.-. .` ^ L U Q | o.#.1.0.q.8.w.1.[ ) P P { $.#.$.o.X.o.$.#.o.m h h q v Q  .=.C 1 > 2 0 s ",
"^ <.-.<.1.q.e.0.8.8.8.8.w.y.u.w.4.;.{ { | [ o. .#.o.[ / L L B v a a p g B ~ =.0.r.p.q.0.0.8.3.:.$.K Q Y Y X.;.#.U K S J ' ;.,.5.",
"^ 1.6.9.q.r.r.9.5.9.w.8.9.7.;.O.` P a s d u 8 g a 8 3 2 * 1 2 > 9 0 3 3 1 5 v P { X.~ H S b h h q q 0 q p h h s p q h r r J ) o.",
"6 h N j M B V v s G G l l s a a l s 3 8 1 8 7 8 3 , > > @ $ % @ > 3 5 2 3 5 p , 4 p p 0 w p p 1 , 0 p p i i i 5 6 i 5 i 3 5 3 , ",
"> 2 0 s j C v g a 0 8 7 8 0 w l b C p p i 3 3 < > > < > $ o @ > > > 1 = 1 3 p , s s 0 0 p i 3 * > a a a s g v g j g g l i 3 & $ ",
"> 6 s s s h s v e C D H H L H H ] q.X.z q i 1 < > < < & $ $ % 3 > > > = 1 5 q v v p s v v v s 9 s N b b m J ~ _ Y U Y Y m c h 0 ",
"~ &.1.:.6.0.0.6.8.0.w.0.:.$.%.#.$.$.] Q ] ! U D b b b n n z z z e e w q 0 h H o.*._ _ _ $.1.#.@.$.>.8.3.@.:.e.q.w.0.0.q.4.4.3.>.",
"' ` U ] _ ` ) ) Q Q U ` ) `  .$.=.#.#.8.3.<.3.%.%.o.X.) ) ) K K J J J H K _ #.X.Y _ 1.;.3.4.4.4.3.8.X.U c x J D K H U H K T { #.",
"%.#.U l g w 7 9 9 9 q h a r z r z h  .3.8.w.8.^ C h b b v s 1 , 1 w s h a ~ $.E j h j x ! o.) ;.3.8.4.:.H m x m C s 7 e z k { &.",
"{ T ` C w 0 e x x c z x S S c x h p x 1.q.e.-.g 3 i a i i 8 > $ 1 9 a 8 i ! ;._ B j N N w w r m Y 4.3.8.3.;.#.{ _ T J H J K @.>.",
"<.<.#._ { 3.8.q.w.0.q.q.0.0.8.0.<.1.q.q.q.1.} V s y 5 0 3 > > 2 u 3 3 i a f =.;.' b h q z x K { @.;.;.7.0.t.p.s.s.s.d.f.g.s.a.r.",
"' 3.q.8.t.y.t.r.9.8.6.9.6.6.6.6.9.9.3.1.,.' W D A L A C v 3 1 3 i i a d d a [ ;.o.] ' _ Y Y ) $.3.>. .{ ] v w p C ( ' | ..#...[ ",
"< = ~ #...Z N N g g f d 8 f f g N g f 2 d f i i a j N A C V P / ) [ [ ..|  .-.#.) H l v v a w z k a i l 1 O @ * & 2 > 2 2 7 8 8 ",
"o . q { | M u y u u a 8 > : 2 u 3 y 3 : : 3 3 2 2 2 5 f v L 5.w.8.3.3.3.7.3.:.%.#._ F 0 9 , 8 8 7 7 f 0 * . % 1 7 < > > < 7 2 : ",
"o @ 0 _ 1.H N g l f g f a u f u i 8 0 8 0 w a s p a s W | G W | *.+. .' L v U o.=._ ~ w 1 8 0 8 8 a a > O O * 3 > < < > 2 < > # ",
"$ > < h `  .%.3.2.*.2.3.2.2.#...{ #.3.8.3.3.7.0.w.q.w.8.=.a > 8 2 2 u u i i 2 = w k _ E s 9 1 3 a f i * $ O > > > 2 2 2 < : $ # ",
"* 1 i z ~ _ =.<.E N N C N B C v V C v g 5 i p f g j j Q t.! > . & 1 a g a 3 > * , D ;.$.Y 6 4 4 a a O > 2 % > , 3 3 3 > : & & $ ",
"s L *.*.E L ' ;.) C C C C W ! L L N 1 1 > > > > 3 1 2 6 9.-.< $ > 3 a v n K ^ [ | <.t.e.0.&.Y Y U z , p N j h 6 6 1 > > > 7 e z ",
"! } ,.o.R R } 7.r.y.t.r.a.p.t.y.9.w.9.3.#.l w 3 d x D ..8.7.! C H ' *.2.9.i.y.p.p.q.1.q.0.q.q.9.5.P v L o.9.y.q.9.8.q.q.q.u.a.p.",
"u y < > 2 a f l s z G v H Q |  .[ ' ' ` { _ _ { ;.6.6.;.5.9.r.9.,...R C C W N N N g d 0 q a g a 3 d v Z ! 9.q.9.6.6.1.} G V C b "
};
