/* XPM */
static char *_663013367294[] = {
/* columns rows colors chars-per-pixel */
"64 64 218 2 ",
"   c #291E19",
".  c #2C231E",
"X  c #32231E",
"o  c #39291E",
"O  c #3C2619",
"+  c #2E2423",
"@  c #2F2628",
"#  c #342523",
"$  c #3C2723",
"%  c #372A23",
"&  c #3C2B24",
"*  c #372B2B",
"=  c #3B2C2B",
"-  c #3E342C",
";  c #3C3233",
":  c #43241D",
">  c #442C24",
",  c #4C2D22",
"<  c #542F27",
"1  c #433226",
"2  c #4C3226",
"3  c #44342B",
"4  c #4C352A",
"5  c #46392E",
"6  c #4C392E",
"7  c #523526",
"8  c #53362A",
"9  c #5C352C",
"0  c #553A2D",
"q  c #5B3B2D",
"w  c #5A3626",
"e  c #423534",
"r  c #463931",
"t  c #4C3C32",
"y  c #453A3A",
"u  c #4A3A3A",
"i  c #543D32",
"p  c #5B3D33",
"a  c #513F3B",
"s  c #5E3F38",
"d  c #643B2D",
"f  c #6A3C2E",
"g  c #60362E",
"h  c #723E2B",
"j  c #703723",
"k  c #633C33",
"l  c #6A3E32",
"z  c #703E31",
"x  c #4E413B",
"c  c #554135",
"v  c #5C4235",
"b  c #53433A",
"n  c #5D4439",
"m  c #54493F",
"M  c #6A412E",
"N  c #64422E",
"B  c #7C442C",
"V  c #644334",
"C  c #6C4234",
"Z  c #6C4936",
"A  c #65443A",
"S  c #6C453A",
"D  c #66493C",
"F  c #6C4B3B",
"G  c #674835",
"H  c #744434",
"J  c #7A4533",
"K  c #754A35",
"L  c #7C4A36",
"P  c #73463A",
"I  c #7A4739",
"U  c #744B3C",
"Y  c #7B4C3C",
"T  c #75513E",
"R  c #7C513E",
"E  c #4E4344",
"W  c #504040",
"Q  c #5B4B41",
"!  c #634C42",
"~  c #6D4C41",
"^  c #744D41",
"/  c #7B4E41",
"(  c #6E5142",
")  c #755344",
"_  c #7C5343",
"`  c #7D5946",
"'  c #7C5649",
"]  c #745B4B",
"[  c #7D5A4A",
"{  c #78614C",
"}  c #7F6559",
"|  c #864A2E",
" . c #834B35",
".. c #824E3C",
"X. c #8E4E39",
"o. c #83523D",
"O. c #8B543C",
"+. c #8C593E",
"@. c #875438",
"#. c #93573D",
"$. c #945A3D",
"%. c #96563A",
"&. c #A8633F",
"*. c #824F42",
"=. c #835543",
"-. c #8A5542",
";. c #845945",
":. c #8B5A45",
">. c #855748",
",. c #855C4B",
"<. c #8B5D4B",
"1. c #935C44",
"2. c #995E45",
"3. c #925E4A",
"4. c #965B44",
"5. c #8A5F50",
"6. c #865D50",
"7. c #87614D",
"8. c #8C614C",
"9. c #8B694F",
"0. c #896046",
"q. c #946147",
"w. c #9C6346",
"e. c #93634C",
"r. c #9A644B",
"t. c #956A4F",
"y. c #9C6A4E",
"u. c #856252",
"i. c #8C6351",
"p. c #8E6A53",
"a. c #8C6A59",
"s. c #8C6658",
"d. c #936552",
"f. c #9A6651",
"g. c #946A54",
"h. c #9B6C54",
"j. c #956D59",
"k. c #9B6E59",
"l. c #9D7156",
"z. c #96725B",
"x. c #9D725C",
"c. c #A36645",
"v. c #A56945",
"b. c #AB6944",
"n. c #A1664A",
"m. c #A36A4D",
"M. c #A96C4C",
"N. c #A86542",
"B. c #B36C47",
"V. c #AB714E",
"C. c #B3734C",
"Z. c #B7794E",
"A. c #A06750",
"S. c #A36D53",
"D. c #AA6E51",
"F. c #A26F59",
"G. c #A47255",
"H. c #AB7355",
"J. c #AF7857",
"K. c #A3745B",
"L. c #AA755B",
"P. c #A4785D",
"I. c #AB7A5D",
"U. c #A47A56",
"Y. c #B37653",
"T. c #B57C55",
"R. c #B17C5D",
"E. c #BA7E52",
"W. c #8E6F61",
"Q. c #967060",
"!. c #9C7562",
"~. c #9C7963",
"^. c #9F7E68",
"/. c #957A6A",
"(. c #A37662",
"). c #A97760",
"_. c #A47B63",
"`. c #AB7D63",
"'. c #A57E6A",
"]. c #A97F69",
"[. c #B27E63",
"{. c #B87F61",
"}. c #B4815C",
"|. c #B8825C",
" X c #B7885F",
".X c #BB8A5F",
"XX c #B58256",
"oX c #AD8264",
"OX c #AD8865",
"+X c #A5836C",
"@X c #AC836B",
"#X c #AC886C",
"$X c #A48163",
"%X c #B38265",
"&X c #BB8462",
"*X c #B48965",
"=X c #BD8A65",
"-X c #B3856B",
";X c #B38A6D",
":X c #BA8C6B",
">X c #B8866A",
",X c #BC926D",
"<X c #B5946F",
"1X c #A78672",
"2X c #AE8C74",
"3X c #B48C73",
"4X c #BA8C72",
"5X c #B98F79",
"6X c #B38771",
"7X c #B49274",
"8X c #BC9274",
"9X c #BA937A",
"0X c #C18762",
"qX c #C39165",
"wX c #C0946D",
"eX c #C09674",
"rX c #BB9781",
"tX c #BE9A82",
/* pixels */
"H.H.F.F.B.B.Y.|.E.Z.Y.Y.XX|.R.H.R.-X`.I.I.`.@X6X3X].i.S._.).S p f.$XK.(.F.f.P.@XF.F.F.F.F.).).L.F.L.L.L.H.L.F.H.H.F.A.A.(.h.F.).",
"r.r.r.3.%.&.N.M.b.b.N.b.M.D.m.w.A.K.h.f.f.h.F.!.(.h._ <.g.g.p v y.h.d.g.e.<.f.k.<.3.3.3.3.f.f.3.3.f.f.f.r.2.2.f.2.3.3.:.3.<.d.f.",
"S.Y.H.D.N.B.b.Y.H.D.F.S.f.f.h.h.h.h.1.1.-.1.g.j.f.d.S F P =.8 p r.L _ ) 5.<.i.3.3.d.<.*.X.-.f.f.A.h.n.2.A.S.A.3.D.n.n.n.F.F.L.F.",
"F.J.{.Y.Y.H.L.L.R.F.G.F.F.G.x.K.L.G.e.g.h.k.f.f.;.:.g.A 6 _ 0 0 h.:.S v >.5.,.:.3.d.g.d.<.-.F.L.F.F.F.Y.R.Y.H.H.L.F.D.L.J.L.S.F.",
"S.m.N.M.m.m.r.r.r.r.f.S.f.f.k.A.d.d.3.f.g.:.<.>.<.8.3.<.;.:.i k G.3.3.3.f.3.-.>.,.=.>.:.:.<.d.3.f.h.d.r.A.2.d.3.r.A.F.D.b.n.A.A.",
"/ I =.:.=.X...C P ..-.*.*...-.o...../ _ U / / Y R =...=./ _ 4 8 3./ Y *.=.I / / / / Y / / / / I ../ I / z / S A ^ ....I *./ / *.",
"k g k 9 p k H l S =.=...P :.e.<.Y ..*.>.=.^ Y / o.-...U ^ I , 2 f.Y ..z I Y o.S l l s / S / =.=.P ^ l l *.~ k p k l k k 9 g k 9 ",
"Y U P l H -.-.o.U / Y o.>.o.=._ :.-./ H H 3./ Y ..Y P l U  .: 8 4.J L H H I o.*.*./ _ H z _ ' =.P ^ / ^ / s k l *.*.Y / P ^ I ^ ",
"q.e.r.e.2.n.e.;.=./ L =.d.q.R U / U ,.>.=._ =.*.-.....z H L , , ..H H f H H z H z l H P P U l I f l k l d l l 9 p z I Y -.@.o.1.",
",.i.i.u.d.G.k.h.e.f.k.k.e.g.f.d.d.e.3.;._ =.>.=.I Y / /  .Y , > ....X.I I I ..|  .Y ..Y / / Y =.*._ ^ / *.=.=./ ^ =.>.:.>.s.d.,.",
"x.!.j.~.j.j.k.!.x.~.!.x.(.x.j.j.p.i.i.h.d.g.Q.k.k.k.g.i.d.d.0 0 f.8.d.:.d.8.d.f.d.d.<.5.<.6.6.7.<.5.<.5.d.5.g.s.6.>.' S i s ' 6.",
"@XK.x.k.x.(.(.!.k.x.x._.(._.z.k.e.:.g.j.i.j.k.k.(.k.!.3 6.x.n v !.s.k.:.>.e.e.h.3.e.d.<.d.d.8.d.g.5.6.d.s.g.d.<.5.6.` / P U _ _.",
"@X_.K._.'._.oX_.(.@X@X+Xx.K.k.h.f.e.k.e.d.e.f.g.k.x.j.g.z.g.i A (.j.~ [ k.g.f.f.e.<.<.:.<.<.8.8.g.3.d.d.F.k.K.h.Q.Q.g.j.,.:.j.@X",
"-X@X@X+X#X7X3X-X;X-X3X5X#X#X-X`._.~._.P.P.K.e.g.e.l._.x.x.x.D ! 2X!.u.p.l.x.e.h.g.3.t.d.k.x.j.k.k.k.k.h.K.(.K.F.K.(.!.k.x.!.(.].",
"' ) ' 6.g.i.,.,.,.) ` ) ) F U ) ) ( F C F G G G T ' T D T ) t v 8.' :.>.=.;.:._ / P _ _ Y ' ) ) _ U =./ =.-.>.<.<.5.3.d.<.,.,.d.",
"5 3 i i v 0 0 c 4 0 0 i 6 6 5 2 2 5 t 1 t 5 5 5 5 t 3 r 3 3 & 1 1 & % & & o & % $ * - 3 & # . X . # & # * > & 1 r 3 3 r 3 - % . ",
"p _.*XoXXX X:X<X,XwX,X<X=X:X,X:X,X,X,X:X:X:X*X8X,X=XqXqX:X,X,X=XR. X%X*X-X*X*X-XoXoXoXoX].oX`.3X-X@XP.`.`.I.oXoX`.P.K.k.h.l.Z v ",
"q ~.i.8.t.l.x.K.P.l.l.G.y.l.U.P.y.w.y.P.G.m.y.l.U.G.V.G.P.G.G.h.S.S.f.x.S.G.K.x.h.l.h.k.j.t.f.k.k.k.t.8.q.r.f.g.k.z.i.>._ >.i j ",
"4 { T 1 ) :.e.h.k.h.l.G.y.P.P.oXx.G.K.x.k.9.t.y.g.y.m.e.g.h.y.f.y.v.F.l.y.e.e.r.q.e.g.k.k.h.e.g.g.e.e.+.1.r.3.e.e.=.=.` ) ) . 8 ",
"p +Xz.=.k.g.h.g.y.h.G.k.S.y.y.G.l.y.G.l.t.t.q.y.e.y.y.r.y.y.m.w.w.M.G.G.f.q.f.h.m.<.<.3.8.e.8.d.j.d.t.y.w.q.o.o.:.,.>.` U ' t V ",
"8 k.e.:.@.q.t.8.0.8.:.0.:.@.@.@.@.O...O.o.:.-.:.:.=.:.R K =.>...@.O.>.R *.=.*...o.I Y L o.o...=.K I @.o.R o.o.=.<.t.<.=._ =.q p ",
": (.i.7.8.:.o.o.L =.=.R o.|  .;.q.3.3.:.o.;.8.e.k.f.e.3.:.-.,.` ` _ =.O.:.-.:.>.R =.U V l l C U Y L Y o._ T _ P C P P C H U 7 , ",
"4 u.^ U K B  .X.O.#.$.q.4.O.O.=.U Z U ~ S A F ~ S A S ~ ^ F A S F Y _ P P l s p s s p s U / ! k I :.+.q.w.q.X.B +.#.@.H H H > 7 ",
"2 z.,.7.;.R L  .#.w.m.n.+.Y L O.Y C H H U P P ) / S S U U U A U <.0.r.=./ ^ ~ A l s k l Y ..S P =.q.;.:.3.y.%...o.-.:.P ' o.4 l ",
": 8.Y o.o.o.R o.=.o.Y L C C Z H P U Y O.=.-...=.O.O.O.O.| H B H K C M  .o.1.q.:.) C U / U l P A k M d f C d 9 v k p p p 0 V , 4 ",
"0 e.R ) C H K C H L o.o.o.@.o. .L H h J h H U / L Y L H H H h d H H L H H L R T ) >.Y C K P C C H U Y ` ;.` Y L U P ) U ^ Z 2 V ",
"i u.F ` ` >.,.=.=...R R R =... .o.o...@.=.Y ` R ;._ Y _ R Y I Y L Y ;.=.R _ o.o.L T K K K R R I Y U K Y ` U ) R ^ ) ) S A n 3 i ",
"i } ( T ) T ) ` ` 7.7.8.y.0.o.:.2.O.3.R o.o.=.J L J I =._ ) ` 7.<.,.R R o.K ....o.,.;.=.) <._ =.R Y R _ ' ' _ ` ` ~ _ ) A s + 3 ",
"A [ 6 1 Y ;.=...R Y Y :.p.g.0.;.1.-.:.<.8.<.R o.T ` :.=.;.U F ;.` o.=.0.8.0.` :.;.:.g.t.0.@.R @.>._ 8.` 0.;.:.8.e.` @.T V H > N ",
"c A V V N N N M M G G V V v N c q 0 0 q 0 q 0 8 7 7 2 4 2 4 > 4 7 2 0 7 7 4 4 8 7 w q 0 7 w c 7 0 p n v G T F Z Z G G M d M q q ",
"% v v 0 q 0 v V F ( D c i i c 6 v 6 5 6 i 6 4 3 8 5 4 4 1 4 4 4 c c c 4 6 6 7 8 2 4 6 8 4 1 c c 6 1 5 1 c c n v 0 6 6 7 0 8 4   ",
"t.OX7X<X;X X X:X*X*X<X2XOXOX@X@X@XOXP.l.y.l.U.P.$XK.h.l.U.y.o 1 9.0.t.l.S.p.q.q.0.p.g.p.9.9.9.p.z.g.9.9.9.9.p.p.j.0.0.t.l.t.t.G.",
"h.D.>XeXeX8X:X=X0X&X4X{.>X=X-X3X[.[.-XL.}.I.R.H.M.y.f.y.G.r.4 A U.q.1.w.w.y.n.v.M.b.M.S.U.G.D.m.G.m.H.H.A.P.L.I.G.r.G.T.}.m.G.y.",
"3.A.6X5X5X`.].-X].'.'.(.].(.(.].'.K.S.k.h.k.F.P.K.f.g.F <.j.2 i h.8.j.j.<.8.y.h.3.4.3.q.q.1.d.,.<.d.,.i.,.6.6.,.d.d.f.K.l.e.e.4.",
").d.`.`.].].k.1XQ.f.g.k.!.Q.j.'.k.f.F.k.k.k.f.g.e.j.r.A g.>.> 8 g.U 3 g.8.e.d.8.d.6.,.i.<.1.-.>.<.=.8._ _ ' ,.,.<.>.7.8.8.<.:.F.",
"[.k.).K.L.K.F.F.F.(.k.g.d.f.F.K.F.f.h.h.j.d.e.<.<.>.>.,.>.` 3 p f.>.' :.:.<.:.=./ ^ ' ,.<.g.>.,.` ,.=.>.<.>.d.f.3.<.:.e.<.k.P.-X",
"j.`.F.P.L.(.g.3.<.3.<.3.5.:.f.F.g.d.f.f.6.>._ ..>.,.3.<.<.,., i f./ 8.<.e.1.,./ / / ' ' 6.6._ / / ^ ^ / / *.*.) =._ >.3.8.<.`.k.",
"=.>.:.e.D.).3.:.,.<.3.<.4.<.3.S.f.3.3.e.<.d.h.F.z.h.f.f.=.:.2 v !.s.g.3.3.>.,.>./ <.5.' ' >.=.=.-./ _ *./ / ' ' >.<.g.d.,._ >._ ",
"P ^ ^ V / :.3.<.g.e.k.e.-.4.:.3.3.3.>.3.3.f.k.f.1.*.>.1.f.8.4 A _.e.f.r.Y Y / Y P / 5.=./ H Y U S S S P S ' _ ^ A P P U Y _ H Y ",
"*.^ / / / 4.3.4.4.3.h.d.r.3.f.3.3.-.3.d.f.*.3.#.-...-.1.r.m.4 p F.k.F.r.:.I 9 H I S P / P P P / U *./ ..U >.=.=.=.*.U U U ^ P / ",
"I P Y l H ..r.f.r.2.:.3.:...:.d.3.3.#.1.1.3.e.d.!.Q.k.].f.S.8 d D.r.D.1.(.:./ A H l l S S l k P =.J I ..l l ....I I l I S ^ / >.",
"o.I H l H C 3.e.e.>.:.*.=.3.1.2.4.3.f.3.A.2.d.k.(.(.).3.f.n., f B.%.X.*.:._ / ^ U / U =.=.Y L I -.*.=.>.O...J P L H 7 H l l J =.",
":.I C k H U =.Y Y I =.:._ <.f.2.A.S.).].L.f.d.<.d.f.-.-.-.X.> p D.2. .=./ o.<./ k k =.<.<.3.=.,.=.f.k.e.3.:.L P _ =.U Y l / H <.",
"<.L f < P l ..d 9 >.5.:.:./ d.K.F.A.k.).[.A.3.k.h.k.i.x (.L.v ( 6X(.2.h.' i.3.<._ 6.e.g.d.3.<.I / L =.=.:.3.o.> f =.I L 9 d Y <.",
"7.=.=.Y o.^ :.:.+.g.g.x.j.e.k.j.e.k.P.L.@X[.n.S.K.k.r.7.-X+Xb ] tX! ^ @Xs.8.k.d.K.d.x._.j.x.f.8.,.f.e.g.(.z.S.r.k.<._ :.*.o.-.e.",
"f.;.:.o.=.:.d.r.t.y.f.x._.P.].(.I.x.(.I.`.`.`.[.%X`.K.K.S.K.i F ;X!._.#Xe.g.].-X].(.K.y.f.x._._.L.L.G.P.t.m.c.c.S.d.f.i.3.e.e.f.",
") T U Z K P U Y U n c c p p c v i p v 0 v 0 p p p 8 v 4 4 8 . O V 0 v p q 4 i p s v 8 2 4 i 0 i p n v A 0 v v Z Z U P Y U Y =.` ",
"# > 5 n n i b b c b t c x t 6 6 & o o X X - 3 1 3 - 3 - - 3 1 3 t t 3 5 5 3 3 3 t u x 3 5 t t t x b b Q m c m ! Q u 1 t i 6 3 i ",
"t _.#X1XG.I.+X+X1X_.~.~.g.g.e.5.;.,.` ' ' ) :.:.8.7.i.` ;.:.q.0.;.0.e.0.:.<.7.i.i.7.,.,.,.,.7.7.7.u.i.s.j.s.k.j.g.j.9.e.z.z.( ( ",
"3 I.x.x.F.S.G.D.L.K.l.j.,.e.,.:.8.8.i.,.8.<.0.;.d.8.8.<.8.q.o.:.:.:.:.8.:.d.8.e.,.,.u.0.s.i.0.,.u.>.>.u.7.f.g.f.g.g.g.g.j.z.D ( ",
"- 9X].`.P.P.P.`.`.G.x.h.d.;.<.<.:.8.;.:.9.=.=.;.0.:.8.R ;.R R =.=.o.o.o.;.:.:.8.:.;.8.7.8.e.e.e.t.e.e.g.g.y.S.k.d.8.i.<.e.i.v 3 ",
"o +X' f.G.L._.`.I.H.S.r.r.k.k.h.h.l.t.k.h.l.l.l.S.l.x.x.~._.z.x.G.j.x.l.l.l.k.l.f.S.l.h.l.l.l.G.h.l.l.f.h.m.H.G.k.g.K.k.h.d.v O ",
"6 ~.F x.4X[.-X-X%X;X`.2XP.P.P.h.g.l.t.l._.P.l.l.l.K.P.P.x.k.t.e.t.e.h.l.P.l.k.l.y.y.S.P.K.K.t.h.k.k.K.l.z.<.I.P.`.K.P.P.x.t.G F ",
"3 7X;X3X;X3X;X-X%X-X-X6XoX].P.x.P.l.h.x.K.y.8.k.x.3X3X7X2X#XoXP.$X_.2XOX`.x.P.OX+Xx.e.$.=.o.o.e.0.<.f.z.j.e.k.U.l.k.K.x.+Xx.T t ",
"4 8X9X9X9X9X4X3X4X4X-X[.`.P.k.:.R =.8.T =.g.g.,.R 8.+.;.>.;.` R R ` ` =.7.g.g.<.9.8.p.9.7.) ,.Y p.e.j.=.' j.P.l.z.z.!.~.^.~.D D ",
"r 8X8X:X-X-XR.[.`.L.F.H.L.[.P.G.r.h.g.<.>.9.r...o.U.P.K.l.l.l.t.t.t.t.p.y.l.k.f.g.K.x.,.S ,.<.=.>.z.z.8.8.P P ,.g.g.x.x.'.+X) ] ",
"% %XF.[.[.6X-X`.P.`.-X`.`.@X-X@X-X-X-X`.k.j.f.d.:.:.>.;.f.l.H.G.U.U.L.n.=.=.:.:.,.>.:.3.d.,.s.7.7.~./.~.j.^.,.7.9.l.(.x.z.g.F D ",
"r 4X{.[.[.4X4X5X3X4X9X5X6X-X5X5XtXrXeX[.(.!.!.h.g.,.l i 9 g $.y.w.4.P q C ) ' ^ ) ^ ~ o.3.h.` z.j.W.[ a.~.2X$X_.3X%X&X#X2X#X7.{ ",
"X F.S.R.6XwX-X;X-X-X>X;X3X-X-X%X:XL.D.I.[.-XL.r.>.S S Y K o.y.f.m.w.L K 7.Y ^ ^ _ =.,.e.;.U ) x.7.~.a.1X_.~.x.~.!.x._.x.f.t.i 2 ",
"> L.F.2.D.L.G.G.G.Y.I.H.G.H.M.M.H.r.m.H.L.Y.b.n.S.k.P.I.OXx.f.r.A.e.h.K.`.x.K.L.G.F.z.l.h.0.:.g._ x.'.(.~.U.K.P.(.P.x.G.t.l.D i ",
"t P.s.P.4X:XR.-X>X>X4X4X%X[.`.I.L.-X;X>X4X4XR.L.m.y.U.U.y.%.$.y.c.$.$.w.m.G.S.v.K.K.K.I.G.K.K.k.x._._.3X@XoXI.@XR.}.OX%XP.z.F ) ",
"3 p.) P.4X8X4X9X9X4X4X3X-XI.).`._.3X3X3X-X;X`.`._.`.%X%Xr.w.}.-X}.H.m.P.%X-X-X:X[.I._.@X@X+X@XP.@X#X-X@X;X3X;X7X7X7X*X7X3X+X] ] ",
"i -.O.H O.:.=./ :.=.=.>./ / Y F U F G S F A F F D ( U U , d H Y R K Z q T ^ T Y ) _ T Z d F _ _ ) ,.,.,.7.,.,.,.,.` ;.=.K =.R { ",
". b u x E E u e u u e y ; = = @ # # = # ; ; @ + @ + * * # $ & & = $ & * = * * * * * ; ; % * ; = = - - ; ; r e e ; ; y ; x E x * "
};
