/* XPM */
static char *_663013442685[] = {
/* columns rows colors chars-per-pixel */
"64 64 146 2 ",
"   c #211F1A",
".  c #23201B",
"X  c #262521",
"o  c #2A2624",
"O  c #2D2926",
"+  c #2D2B2A",
"@  c #322D27",
"#  c #332E2A",
"$  c #35312E",
"%  c #3B342D",
"&  c #363331",
"*  c #3B3632",
"=  c #3E3A36",
"-  c #39373A",
";  c #3E3A38",
":  c #433C35",
">  c #4B3F34",
",  c #433E3A",
"<  c #483F3A",
"1  c #464037",
"2  c #4D4137",
"3  c #45413D",
"4  c #4B433C",
"5  c #4F483E",
"6  c #52463D",
"7  c #54493E",
"8  c #594A3D",
"9  c #464342",
"0  c #4B4642",
"q  c #4E4944",
"w  c #4E4B49",
"e  c #534B43",
"r  c #5A4E44",
"t  c #544E49",
"y  c #584F48",
"u  c #575046",
"i  c #5D5146",
"p  c #56524D",
"a  c #5B534C",
"s  c #5F584F",
"d  c #4A4B50",
"f  c #575250",
"g  c #5C5652",
"h  c #5E5954",
"j  c #5D5758",
"k  c #5F5B5A",
"l  c #635446",
"z  c #62564B",
"x  c #65594E",
"c  c #6A5B4D",
"v  c #615751",
"b  c #635C54",
"n  c #6A5E53",
"m  c #645E5A",
"M  c #685F59",
"N  c #656156",
"B  c #6D6155",
"V  c #66625B",
"C  c #6B635B",
"Z  c #6C685D",
"A  c #726455",
"S  c #786656",
"D  c #72665B",
"F  c #74695D",
"G  c #7A6B5C",
"H  c #665F60",
"J  c #676461",
"K  c #6B6662",
"L  c #676863",
"P  c #6D6963",
"I  c #6E6C69",
"U  c #746C63",
"Y  c #796E64",
"T  c #746E69",
"R  c #786F68",
"E  c #6E716D",
"W  c #757066",
"Q  c #7C7166",
"!  c #75716B",
"~  c #7C736B",
"^  c #7D786E",
"/  c #767572",
"(  c #7B7671",
")  c #7D7A73",
"_  c #7D7D7A",
"`  c #827464",
"'  c #857867",
"]  c #897A67",
"[  c #81766C",
"{  c #84796D",
"}  c #8B7D6B",
"|  c #807770",
" . c #837B73",
".. c #897E75",
"X. c #827E7A",
"o. c #897F78",
"O. c #7F817D",
"+. c #8E816F",
"@. c #93826F",
"#. c #878176",
"$. c #8C8175",
"%. c #84827C",
"&. c #8B847C",
"*. c #8E897D",
"=. c #938473",
"-. c #90867C",
";. c #94897E",
":. c #9B8D7B",
">. c #9F907F",
",. c #7C7D81",
"<. c #817F81",
"1. c #7E8081",
"2. c #848582",
"3. c #8A8782",
"4. c #878985",
"5. c #8B8A84",
"6. c #848589",
"7. c #86888B",
"8. c #8C8C8A",
"9. c #938B83",
"0. c #988E83",
"q. c #918E8B",
"w. c #8E908B",
"e. c #969087",
"r. c #9C9287",
"t. c #94928C",
"y. c #9B948B",
"u. c #9F998F",
"i. c #8B8D91",
"p. c #8F9193",
"a. c #939393",
"s. c #979997",
"d. c #9C9994",
"f. c #94969A",
"g. c #969898",
"h. c #9A9B9D",
"j. c #A0978E",
"k. c #A1988E",
"l. c #A39C93",
"z. c #A3A096",
"x. c #ACA196",
"c. c #A5A19A",
"v. c #ABA39B",
"b. c #9B9DA2",
"n. c #9EA0A3",
"m. c #A2A3A6",
/* pixels */
"p h p t 3 0 / ,.I v %.%.T V V V C p f e h f t q , : & o O & 3 w 9 9 9 d - * 3 g q * & - & O o # & o o o * 9 q 9 ; & & # + & , w ",
"v v g T g q b T ~ ^ ~ ^ &.O._  .T K U k m b j m f H b v C B ) ! p g ) N h p d * , , < y D c B A v U e i i K K K J V V K K v v v ",
"D  . .) P b b U ^ ! ) 5.3.3.X.) ( ) ! ( T T U M b b v M F W _ %.C v C T N x q ; t g v b U ` ` A n x c S B F | |  .) ^ ~ { z x M ",
") X.%.%.) J ! 3.8.#.) ~ ^ W  . . .( ! ) ( R P K R [ n M ~ U F *.v F T T Z ! h w m v b A B ..[ [ | v Y i F G ~ ..X.| ^ ~ n a ~ ^ ",
")  .%.) ! f / 2.%.#.O.W Z n Z ) ( T T ( R ( U K T ~ T v U U F 5.~ ~ ( ~ ^ ! h = 0 y y B A [  .[ | c q v R A c A  .^ G c z C F ^ ",
"^ ~ &._ L j ) 5.#.^ ^ 5.3.( F n b C A  .( R R U R R ~ D F *.3.8.&.*.|  .) ! h 3 t y y n Y [ Y Y Y y z U U D D c c U A U T ~ ~ ^ ",
"U U ) _ L f ) &.%.^ ^ w.O.&.%.W M ..o.X.T U T I U U R C Q *.O.2.#.%.{ Y D C h q t y z n F Y Y [ R i K R ! R Y D i Q A A A ~ ( ) ",
"N ( ~ _ J f ! _ ) ~ Z 8. .&.&.^ ( ( R R M U U U K U U D Q Q ) #.)  .W U C b a 0 q i x F c c G R A z M [ ! R U F z C F c M Q ! ( ",
"n U ) _ P b ~ ) W Z C 3.&.&.) ! / Y R Y K ~ R R R R R | R Y | X.^ | ! U P K b < 9 q z G S Y F Y r ~ R U Q T Q Y C z a B A A B N ",
"B T _ _ T P ) { W Q ' 5.&.O.! ~ Y U ( ( ~ Y R R U R R R n Y X.~ U |  .R U K g 9 9 6 8 F A A D M r A T B ~ U U C F U M n n U x A ",
"! ! U ) I P Y Y A ' Q Q Q | ^  .Y R | [ U K U D K Y U [ R D R D K T R R R U v q 0 e 8 n c n F Y b c M U ~ U U F U U n i r u x A ",
"! ) U 6.I q n n G ^  .{ { { X.) | | | R R Y M v M D U [ | R U [ { R U ~ ( ~ b q q e 8 l n n R R i z K U U T T A ~ ~ n x a N A ! ",
"! ( F P M : z A G [ .. .~ [ | Q Y [ Y U | | R U F U Y Y [ | T [ R Q Y [ | [ n s 0 q l S c c F r z M R Q ~ W U C A n c B x D ^ ~ ",
" . .F Z M M n S S ` o.R U R G { o.] [ R ` [ [ [ Y U Y ` [ | | | R ..{ { | | n y q q i D c l c c { ^ T | ) ) ~ B D F A l x F F ) ",
") ) [ U C P [ Y S n `  .o.[ x n ..<.[ D H R [ [ U U Y | [ [ o.....o.o... .[ U y 3 4 z n c c c S A ..! ^ ~ ~ R A T  .^ C n F ~ ~ ",
"#.&.&.D b b K Y K [ n { Q G n Q [ | | [ Y Y ` n [ [ U [ | | [ ............[ M y q y n c l c A c n n .. .| [ A Y { R U ^ b C  . .",
"| &.Q F V h F U ` [ n S A x S [ [ R ` R D ` A c Y [ Y Y [ ` [ o.[ [ [ F R R C g e i l c A S A S  .Q &. .Q D A G  .Q { X.Y M n M ",
"^ { {  .P V F Q U Y x r r v n c R D Y D R n v Y Y Y Y U D U [ [ [ Y [ R Y F x q ; 6 8 c A c G G | A D M b x c c Y ~ ( | ..D R n ",
"^ Q #.) U P U Q Y B S U S D x r r i S n ` c 8 c c A A F ` Y ` D S F A R R Q v = O < 8 l A S S c  . ...~ U Q G | { T R ~ | N z x ",
"~ D D U b b C A D Y ` S B Y ` c x l y r r r i y r c D n C D z l c z F F U D y * & 4 8 l c c c n R D U C C ^ ^ ! T U P T ~ z e r ",
"e i y b b g y y i b n v z z n z v y r r 6 8 y 8 e 6 r 8 r i z M D 6 r n C r e # & 3 e e r i z B n z C U C b b h g V V h V e u e ",
"5 y v y b m 0 < 9 t e 4 y y < q b y e y M v r y v 4 < 6 e 0 e e 0 6 e 0 0 0 , & 3 3 : : e 0 : 3 : e e 0 3 , , ; , q 0 t a u r u ",
"4 e g m K M M m j I H m K K g m / T R R [ H 6 y m m v b M g t 0 f m h 9 - $ * ; g m e ; t w 3 3 , f 9 9 q p 9 9 9 9 3 s m b e f ",
"v g H T P R X.X.( ) X.<.<.| / / <.<.<.9.<.Y j m K m f f T T ~ X. .(  .P k t g m K b m s U ( T ~ T X.o.R (  .~ ) ) T K y p y q V ",
"T ( ) U D ~ 3.9.5.8.q.8.5.3.5.X.<.8.8.i.p.<.( X.K b < e Q 0.;.r.0.&.3.[ C C Q | A c z n ' &.q.l.d.l.v.0.r.y.x.l.l.$.Q N C p u ! ",
"! X.) <.3.X.%.3.i.8.3.U Z Q 8.8.o.<.<.a.f.7.( ( H M , 0 Q l.k.0.e.9.) ..G D ! ..R G i S o.r.l.v.l.l.v.k.l.l.l.y.l.y.u.^ Z q b P ",
"X.a.7.8.5.q.%.2.i.5._  .Z T { q.<.<.<.8.7.<._ m K b 4 i ( 9.9.9.0.r.3.| &.` A X. .[ D S 9.r.d.y.k.0.r.k.l.l.k.z.v.l.k.Q ! f m ~ ",
"8.a.a.a.t.h.a.8.2.5.8.g.%. . .2.<.<.8.<.,./ I g g M e H ( | | o.o.q.&.^ ..{ Y &.....Y B -.-.&.;.;.X.5.*.y.u.d.c.l.d.$.$._ f b ^ ",
"p.a.g.g.h.d.a.a.i.g.b.f.t.2.&.a.j.j.i.8.X.I b b y z t m !  .( | o.&.^ A F { ^ ~ { Q o.A ..A ~ T ~ | &.) 5.e.y.t.e.e.' *.) t g ^ ",
"a.g.g.a.g.2.2.8.m.b.b.b.h.2.5.s.t.8.q.8.) K I H y p j m ( ( | ..^ U C B n D A R U D F c c x Q ..{ )  .#.&. .#.&.9.*.G X./ g h ^ ",
"p.q.a.p.q.) 8.g.n.b.b.f.7./  ._ 8.6.8.( E E H I a b 6 b (  .! U K C C C s r n D A D R F x z G Y Q T ^ |  .(  .#.&.&.F Q ( V b %.",
"X.X.Q X.W ) p.s.f.i.i.i.) T _ ,.<.<.8.<.I I K R b s < b D Q M C U U D K D A B x U U Y U x M {  . .^ &.5.&.#.{ 9.&.&.A Z T h h ( ",
"6./ ! W / 8.t.p.f.f.i.6.m J ! _ / _ ) U Z ! v n r e % 4 b Y ~ ! X.X.{ ( | ( ^ i M U U R D b ..` ' ' { Q N G Q G D F n N V g b 2.",
"2.1.4.! P O._ 1.7.i.i.1.,._ _ K M ( _ _ ) R n M s y > e [ 0.-.=.@.` Y |  .-.9.Y A Q [ ~  .G  .$.` } } } ;.e.r.+.' G Q Q C t m 2.",
"2.8.O._ ) ! ) 8.i.1._ 1.I T ! V ) T _ _ _ ( R I K V < 0 ` @.:.:.r.` $.$...&.&...D Y ..o... .&.....] =.{ { +.{ A ' Q A A P f b _ ",
"2.2._ &.) V W %.7.2._ ) V / _ E T ( T P T T V M K K > e ` k.x.r.&.` ..&.X.&.| T C ~ R Q { R Y ..A ` X.&.A F G Q #. .X...! k b _ ",
"%.X.) ) ) ! W ! 1._ %._ P V ) ! ) K m m m K K P U b : e  .j.0.l.0.] ] *...| R U v R Y Q Q U B Y n D ^ Q G b C .. .^ T Q U g b ) ",
"_ / ! / X.%.U V K / / / ) C b U ) K m m T T ~ R K m : 7 Q *.o.9...{ ` ] #.Q n i z C R  .~ Y Y [ U U | { n b ! ~ | ~ R R T h k / ",
"T T T T ^ ) ! h x b C P P P C C X.M I I ! R ( ~ K K : r R ..&.9.X...D ..Q C r 7 z A R Q A n C Y Q Q &.Q G n ` &.X.Q [ { ! h P T ",
"T W ! ! W ~ X.b n C N z u n n N B n F U T U T ( A u 3 r R o.' ] ..A z x U C l r r D U U x r r x U R ..Q ` Q +.0.&...X.&.^ h K ~ ",
"P F U C C F { C V C U U C C e r n n U Z U K U ! i e < e n D B C x u u i e 7 e 7 i l i 7 z B s v N B U F ` ' &.#.&.&.o...( f m R ",
"b m M b v C F N K C C m C m e r n l v z V b g b 6 6 q v U n b M i V C C r 7 2 2 2 2 2 i N B b b Y D C l A D Q W ~ { | Q R t h V ",
"e y y e 5 r z a s y t e y p i e 6 < 4 : : % % : : 3 3 e x r e 0 a v N V p i > : 2 6 6 a u a a h C v u e b M h N K K U C M 0 e r ",
"q p p q p s g u q 4 0 e q 1 r a 1 4 s z > 4 y 6 : < 3 y v M e * 3 5 1 : : : : : % % : : 1 4 1 4 : : = : 4 1 3 3 q 6 4 5 e e p p ",
"c Y Y ( ( T ( ) ~ T R R v 2 5 r a b M a 3 e y f F U C U W ^ Z x ! R P U P Q W K U C V V P b p h b V V h V I I P m 9 e M C U K D ",
"` ..Y F ! ..o.&.&.o.3...~ R R A A a c 6 : : y R +.` ~ ' $.#.#.O.3.#. .%.*.| ~ ^ %.~ ! ) ! ! ~ P E ! &.W ) 2.1._ L , s K U Q Q G ",
"c [ G U ~ ....9.-.9.9.Q F T B z n F G U 9 m U ..' +.y.+.=.e.+.*.2.&.O.5.w.O.) Z U U ! O.Z ! ) U Z _ O.O.2._ _ ,.L d m K R R ~ Q ",
"S G Y Y U X.o.......[ D K A [ ..n B S M v m Q G ] @.:.>.>.#.O.+.8.&.2.%._ O.O.) Z 2.W Z b V ^ F ~ %.w.w.4.5.1._ I q h U { R R ~ ",
"n R R R R | <.o...[ U v n C D n z ` c M x b ..` ..} =...*.' F +.*.%.w.w.4.%.%.N P 2.2.w.%.^ Q ^ Z O.O.w.w.4.O.1.L 0 f U { ~ ~ C ",
"R U R ~ | ( 9... .[ Y b B U U n [ G A U v P ..-.:.=.Q  .#.Q D Q 4.*.*.4.%.%.W F 4.4.4.5.%.&.5.W h Z %.W 2.%.1.1.L w v T R ~ D x ",
"G Y  .R Y R | | [ [ b b U D x r z c R A t v &.j.0... .&.#.s W W 4.5.4.4.O.W P O.^ O.%.O.%.^ ^ %.N N Z W 2.4.2.2./ h Z R A A c D ",
"G R R  .R Y R Y U B v U | [ l l z Y R M q v ..-..... .o.&.B Q %.%.%.1.4.1.^ W %.W %.&.#.^ O.O.O./ Z N U 8.4.^ O.L g Z D C A n A ",
"R R R | | U U D U M D R [ R v n S | R F e i ..0.:...X.&.X.N Z ^ O.O.O.O.1.! O.2.~ %.%.O.O.) ~ %.O.Z %.L #.2.^ W V f v z G D G S ",
"R [ [ R | ~ [ Y Y H R [ R B n | S ` G n y v ..o.-...o...( &.B ~ / O._ O.1.O.! ~ ~ O.O.^ &.^ #.2.~ O.P Z W W ) O.m y p n A Y n G ",
"Y Y | [ [ [ R  . .U Y Y R Y B .. ...Y U y M [ [ ..' | ( ) { Z %.O./ _ E L Z Z %.) O.O.^ #.O.%.%.O.4.O.*.! 2.w.1.L f g A Y Y n n ",
"A Y [ G F n R ..[ U R [ R S n [ [ { [ U y M ` [ ....{ R ) W ~ ~ ) _ _ _ Z ~ ~ O.%.) O.#.^ O.%._ O.2.W %.! 4.4.O.P k g R K D F c ",
"z c R Y x n U Y M K [ R R R M S [ [ [ F q M ` [ ~ |  .) #.W #.3.O.4.O.P ! 2.%.1.2.O.#.3.) ) #.O.O.O.W L %.O.2.P V g g ~ ~ F C B ",
"B z n Y v Y U U v U ~ [ [ [ n C 9...Y n 0 M [ [ Q ^  .%.2.{ 5.8.5.8.6.W O.O.O.O.1.2.%.%.) &.2.%.O.O.P N P P ! W P h p )  .~ R D ",
"B D S Y l c K Y U Y [ D R D M n ` [ M s e n [ [ { ( #.%.%.2.2.2.5.4._ E #.2.O.2.O.%.2.*.%.#.5.2.4.! 1.W N Z V L P h K ~ ~ Y R Y ",
"Y U D C l c U Y Y U R K U n C n c U r 6 : x [ [ ^  .#.^ O.O.6.4.8.7.)  .3.2.4.8.w.w.%.%.O.) O.%.4.P N Z W ! Z k K g V B R Y U Q ",
"U D M n e M B D C M U U C M M c S K y y 3 x F Y Q ( ( b P ) O._ O.O.W O.F ! L W #.%.) ) O.O.O.O.Z N V N Z U U Z V p g b n R U U ",
"C M M v e e r e 4 e q e e y e < M v 6 < < < 6 M C C Z i p Z Z ! _ E L L k L P x Z W ! ! W E Z s W N E N N E Z x h w t s z b b b ",
": : : : < : # : : % # # % : : 6 y e : ; , : % 5 < e 5 3 5 p 5 u V h h u u s h N Z Z k u p s h 5 1 * = 1 g p p h 7 , ; * # # # & ",
"@ : o : e e 0 f v M M M M b H H H I T P K H w t , * < u u i w 4 9 & = p * = % 1 1 * * 1 p = & X 1 1 % 1 ; * , ; ; # + o     X o "
};
