/* XPM */
static char *_abd4be063e54f79bc282eef1c5182f3nvIfmQ4Q19KFBzXV[] = {
/* columns rows colors chars-per-pixel */
"64 64 177 2 ",
"   c #2E221A",
".  c #31251C",
"X  c #34281E",
"o  c #352A22",
"O  c #3B2D25",
"+  c #3E3126",
"@  c #3E322A",
"#  c #423426",
"$  c #4C3726",
"%  c #4C3827",
"&  c #43352B",
"*  c #4B372D",
"=  c #45392E",
"-  c #4C3A2D",
";  c #523E2D",
":  c #473C31",
">  c #4E3D31",
",  c #513E32",
"<  c #55412B",
"1  c #5C422F",
"2  c #544135",
"3  c #5B4534",
"4  c #5C4835",
"5  c #5B4639",
"6  c #5D493A",
"7  c #63452D",
"8  c #69472E",
"9  c #6B482E",
"0  c #614635",
"q  c #634B36",
"w  c #6B4C33",
"e  c #644D3B",
"r  c #694F3C",
"t  c #714F36",
"y  c #724F3B",
"u  c #66513D",
"i  c #6B523D",
"p  c #72553D",
"a  c #79563B",
"s  c #76593F",
"d  c #7B5B3D",
"f  c #655140",
"g  c #6C5442",
"h  c #6E5945",
"j  c #725541",
"k  c #755A43",
"l  c #7B5D44",
"z  c #745B49",
"x  c #7B5F49",
"c  c #7D6146",
"v  c #7D634A",
"b  c #7F694F",
"n  c #7F6851",
"m  c #865C3E",
"M  c #825E42",
"N  c #836346",
"B  c #896446",
"V  c #876844",
"C  c #8B6946",
"Z  c #84664B",
"A  c #89664A",
"S  c #85694D",
"D  c #8B6B4D",
"F  c #916C4E",
"G  c #8D704F",
"H  c #91724E",
"J  c #98704F",
"K  c #816751",
"L  c #856B52",
"P  c #8C6D52",
"I  c #8C6E58",
"U  c #916F52",
"Y  c #877056",
"T  c #8E7154",
"R  c #877259",
"E  c #8D7359",
"W  c #937355",
"Q  c #997556",
"!  c #957856",
"~  c #9A7957",
"^  c #947659",
"/  c #997659",
"(  c #96795B",
")  c #997B59",
"_  c #98795B",
"`  c #997A5B",
"'  c #987A5B",
"]  c #997959",
"[  c #9C7D5A",
"{  c #99795C",
"}  c #997A5D",
"|  c #9B7B5D",
" . c #9A7B5C",
".. c #997B5E",
"X. c #9B7B5F",
"o. c #9C7A5C",
"O. c #987C5C",
"+. c #9B7C5D",
"@. c #997D5E",
"#. c #9B7C5E",
"$. c #9B7D5F",
"%. c #9C7C5D",
"&. c #9C7E5D",
"*. c #9D7D5E",
"=. c #9D7F5F",
"-. c #9F7F5F",
";. c #9B7C5C",
":. c #A17E5D",
">. c #977E63",
",. c #987B60",
"<. c #9B7D60",
"1. c #9B7E60",
"2. c #9C7D60",
"3. c #9E7D60",
"4. c #9D7F61",
"5. c #9F7E60",
"6. c #9C7E61",
"7. c #A07F60",
"8. c #9E815E",
"9. c #9E815F",
"0. c #9F835F",
"q. c #9E815E",
"w. c #A1815E",
"e. c #9F8161",
"r. c #9D8062",
"t. c #9F8162",
"y. c #9E8162",
"u. c #9F846A",
"i. c #A08161",
"p. c #A18261",
"a. c #A38263",
"s. c #A38463",
"d. c #A38563",
"f. c #A48562",
"g. c #A08364",
"h. c #A08565",
"j. c #A38465",
"k. c #A18665",
"l. c #A28765",
"z. c #A08566",
"x. c #A38667",
"c. c #A48565",
"v. c #A58664",
"b. c #A48667",
"n. c #A68766",
"m. c #A28463",
"M. c #AA8664",
"N. c #A48866",
"B. c #A98965",
"V. c #A38569",
"C. c #AB8768",
"Z. c #A38A68",
"A. c #A48968",
"S. c #A68969",
"D. c #A68A69",
"F. c #A6886A",
"G. c #A7896C",
"H. c #A58A6A",
"J. c #AA8F6C",
"K. c #AA8D6C",
"L. c #A9906F",
"P. c #AD906F",
"I. c #B1916C",
"U. c #A99072",
"Y. c #AA9273",
"T. c #AA9573",
"R. c #AA9273",
"E. c #A99579",
"W. c #AE997C",
"Q. c #B19271",
"!. c #B39975",
"~. c #B19D7E",
"^. c #B19E80",
"/. c #B5A385",
"(. c #B6A588",
"). c #B8A68A",
"_. c #B9A98F",
/* pixels */
"t R.l.S c ! D ! / p.5.^ p.A U W j.P D 3.c.7.W ^ c ! S 7 r 3 - X t R.y.S v ! D N x A P _ *.P W 5.5.1.( | x ^ ( Z Z.Y K v n e , O ",
"w T.&.N v ^ H [ 7.l.| ^ c.N U W 3.U P *.F.7.W ,.v ( c 7 i 3 - O t T.q.N c ! D N x Z P ^ 5.U P @.1.1.W @.x ^ E ^ u.P L v K e 5 O ",
"7 L.0.S Z ! ) 0.l.v.7.W *.A U ^ ^ A U ^ F./ L ,.S W c 7 i 3 * + 7 J.5.S Z ! D N K Z A ^ | D W t.t.t.W ( k | ( V.Z.D L n K f 5 o ",
"8 U.l.D v W 0.w.f.v.j.| 7.A U ^ I P ^ U ^ 3.D ^ T ! N 9 g 4 > + 8 U.l.D Z W D B L D P 3._ P 5.5.t.5.W ` k W 1.H.L.G b K K g , o ",
"s U.Z.T S W O.) l.f.d.` :.A *.^ ^ I / x I / P W O.! Z 9 p 4 , + s U.Z.T S W A N P Z U 3.| ^ j.*.5.1.W ^ k ^ ,.G.G.u.L L v h 5 o ",
"s U.H.T S ( W O.f.B.&.v.p.P &./ ^ U ,.M U Q I I O.! Z 9 i 4 > O s T.H.E S ^ N D P L I / j.| j._ j.( ( ^ j ( ^ V.H.u.L E K z 6 o ",
"p T.U.W S ^ T ! d.J.@.A.p.W _ / / P o.I U W ^ U q.T v 8 g 3 > + y T.U.T S ^ c W ^ M ^ ( t.1.j./ 5.^ ( W l ^ ( 1.R.V.R R L x 6 O ",
"A ~.U.T S E W E p.J.t.H.5.P W ^ I U Q U Q I ,.U q.T Z w g 4 > & D ^.U.T Z W c ! ,.Z ^ ^ t.t.c./ j.W ( ^ c @.E 1.H.r.E R E v 5 O ",
"/ ^.U.T S Y ! E &.K.t.l.j.D W | I P W W D D o.F t.T A w g 3 > & / ^.R.I S T v ^ ^ A I *.*.@.c.| p.( ( ^ x E W 1.J.( R R E v 2 @ ",
"J /.L.E v ,.! ( d.G.t.0.t.D P @.P U P / A D 7.F 0.W Z w r 3 > & J ^.U.W v ( c W | Z W | / ` *.*.5.( ^ | v ,.^ >.H.r.n R E v 2 o ",
"Q W.H.T v 5.@.W &.G.l.` &.D P ` A U P v.Q A / I ( E Z w f 3 > O Q W.G.I x 5.p T ,.A o._ / ^ ,.6.F.@.( @.k ( 1.t.l.! L n Y z 2 @ ",
"7.^.H.P x j.q.T 5.J.l.^ s.W W 7.U P P M./ U I I ! S P 8 e 5 , + :.~.Z.T c u.c S ^ P o.| I 3./ / t.1.W 1.Z 1.1.1.H.q.n Y P z 6 : ",
"Q ^.7.I Z 1.` P @.K.t.W v.D ` :.W W D M./ *.P U ( G T w u , , & U ^.l.P A ,.N L K U / 7.I 7./ ^ 5.t.T 1.D u.0.l.A.y.b Y L z 4 : ",
"A ^.7.U D / / ^ ( l.@.P F.A ! &.` P F o./ :.D ` ! F S w i 3 - + F W.0.W D ( S P D I 7.7.I 7.o.o.1.t.E ( L r.@.@.f.@.b R L k 6 @ ",
":.W.3.F P o.o.*.! V.^ D G.M U :.Q F ~ Q ~ s.` ! W F D w u 4 - + 7.W.:.D P *.A T P Q / 7.U 7.7.,.3.^ ^ ^ Z u.&.T p.0.b R Z k 6 @ ",
"M.^.@.H P ` o.p.W V.( P M.N Q ` W W ~ :.Q o.[ W ~ W W p h q = = C.^.*.F P O.S L P I Q 7.I :.7.7.5.E W W S V.( S v.l.b R v z 5 @ ",
"7./.@.D T &./ M.P u.@.D v.D Q W Q F [ B.~ w.! Q Q ! H p i 4 > @ p./.@.C W p.P v P U o./ / ^ M.7.| W I W S u.( E L.y.b n v h 2 @ ",
"M.W.d.B D ! ^ j.D Z.O.T v.D :.U Q W [ w.Q w.! [ W w.U p j q < + n.W.w.S D ^ &.v P P 7.^ 5.| p.7.&.3.P W L r.W ! Z.8.b L v i 2 @ ",
"I.>.5.D A P P j.T Z.q.! 0.D o.W W U o.B.&.w.f.:.F :.o.p i u > @ K.>.q.D A D l.Z P I _ _ l.7.&.c.l.p.I P v u.! G 8.! b Y b u 2 @ ",
"!.V.I D I W P 5.L u.O.! @.W [ W Q F [ B.:.f.A.O.F ! [ a k e > & !.G.T D P ^ l.S I ^ | 5.v.Q.^ c.l.p.^ W S y.( E 8.) n R b 6 2 @ ",
"!.T.@.A W ( ( t.G u.! q.! T [ ! ! H :.f.o.w.A.[ / W ^ k c q 2 * !.W.*.A E ( t.D I ^ ^ 3.t.R.U c.*.j.E T Z >.O.O.l.u.S L v u 2 @ ",
"I.E.&.T ^ ( ( t.! u.y.E r.D &.! Q F :.f.w.8.w.o._ ^ U p c q 2 * I.E.7.P ( ( y.D U 3.U _ ! K.D &.| t.P T L 1.) t.H.l.S P b 6 : @ ",
"Q.~.V.P E t.W @.q.u.q.T l.D 0.~ ` W Q [ B.! d.@.o./ D k i q > * Q.W.l.P E t.O.T P 3.^ ,.W p.T p.^ j.T W I 1.,.y.Z.y.S P L f 2 = ",
"!.W.Z.S P ( ! @.q.u.q.G l.S 8.) Q W o.w.w.B.[ o.7._ A l k 3 + - !.W.V.A P ( &.^ I ^ _ / ! H.D ` &.l.Y P P O.u.t.K.d.S I n 6 2 : ",
"I./.5.N T T W 0.) Z.q.G l.S ) ~ Q W Q B.Q *.:.H ` &.P p Z q & : K.(.&.A P E 0.O.P U ^ / ^ K.D W &.Z.! T E y.u.t.A.H.D E S 6 > : ",
"j.).3.Z Z T ! y.E Z.q.T w.D ! ) Q H Q f.! Q w.W W w.U l l q * & c.).&.N b P 0.~ I P ^ I ` G.D W | u.( Y T O.@.t.A.t.T @.b u > > ",
"K._.H.k S E W y.W y.l.E y.S H ! ! U ! :.U ~ M.H W / / M x q = & C._.A.l P T O.! ^ ^ _ I O.K.D ^ ( H.E T E ^ @.@.H.l.) y.v f 2 > ",
"w.(.l.M S T T q.W O.y.! 8.D ) ! F D ^ F v.~ A.W U / U l x q ; * w.).A.N S P ! Q ^ ^ | P ` H.C &.@.V.E T ^ 1.^ 1.A.l.! y.b f 2 : ",
"s./.0.N S S G 0.O.! ! ! O.S ) ! U D ^ D / A W W T | U D j 4 , * w./.w.N Z S T ! ^ ^ ^ W t.O.S O.( A.P S Z ^ | 5.u.u.T d.v u 2 : ",
"C./.w.N Z D S ) r.( ! T q.D O.` ` U D W N D W ! W ( W k N 3 , , C./.0.N Z S D W | ^ ( ( ( P S P O.K.I L b ^ ( &.q.( W d.S f 2 @ ",
"M.!.M.N v v H ) W O.! G q.D 8.~ o.U A B.F D &.W T ! ! M l 4 , - C.~.d.v v c Z W ( T ^ &.! I T ( ^ H.T S z ^ @.O.t.! W t.b z 6 = ",
":.).w.l c c ! 0.E ) ( G y.T ~ ~ :.D A H.K.M :.W F ( ` l j q ; * w.).0.d x c P D 1.P W @.! T P ( ^ Z.L A z W 0.! u.q.W &.v g 5 & ",
"Q ).o.l c N ~ 8.W ) 8.T y.W :.:.7.Z P 3.K.l p.P D Q W x k q - & :./.` d N N D D P L ^ ^ 5.P W | T u.D Z z W 5.` &.W T &.Z g 5 @ ",
"Q /.` p N G ! 0.! ! 8.H d.F Q [ ^ Z ^ ,.K.Z l.D A ~ P N p q 2 = Q /.` a Z P U W T P / ` ( P Y ^ ( H.P S x ^ 1.| @.W W &.Z z 6 + ",
"A ).) p A T H 8.W 8.) W q.S Q w.Q Z | ^ | L 5.Z Z W W c i q , * A ).o.a A ! ! U U W Q *.E W W W T O.P S x ^ w.&.P W D 0.x h 2 O ",
"W ~.0.N S G H [ W 8.! ! ) D F :.U _ I ,.V.W 1.Z N A A l i q , % W ~.:.N Z D U P W W *.*.W t.W W W ( T S k ^ &.&.T W P &.L g 2 o ",
"A U.| A c S G H ! ! 0.0.0.! Q :.W 7.^ I u.>.y.Z N U S M r 3 < & A U.) Z c S D D / W :.Q ( &.^ W P ^ W Z k ^ w.&.W P I *.v x , o ",
"N U.@.x k s 8.8.! O.@.l.f.` Q o./ p.H.I y.u.u.b D D D l e 3 , + N U.q.l k j N G / / 7.W ^ I 5.I Z | P v z W &.p.E W D _ v z , o ",
"Z F.t.l p c w.w.W O.W A.t.o.Q :./ j.K.>.E u.u.A C D Z c 3 4 < + Z j.t.x p c s D ! / o.W ^ W 3.Z x ^ I L z ! &.p.W ! L W Y g , O ",
"N H.` l c D w.w.W p.! &.w.` Q :.*.G.G.V.u.>.y.D T D D c 4 6 > + Z H.` c k L s W ^ / W W T P _ K D >.T L z ` p.p.! ! L E I z : O ",
"l V.| l k P 5.w.! 0.&.! W W ~ w.Q t.U.V.u.I >.U ! D P c 4 4 - + c V.( x c T s T ! / ` W A P 3.D ( t.T S k T 0.p.! r.S ! Y z 6 O ",
"P | V.x k W [ [ ) O.&.A.H F o.w./ 6.H.u.u.E 1.P ` P D x 3 4 * + D | j.l k T c G ! / ^ ( I ^ / P W ` ^ Z g W *.p.O.r.P E W z 5 o ",
"F I R.x v T H ! ! O.q.d.~ Q [ ` 7.| u.H.6.! u.x ` Q A j - 4 & O F I T.x v T N P ^ ( ` P P D ,.U U t.` Z q T &.5.q.q.L L Z z 5 O ",
"F ^ R.M S l D w.! t.@.w.[ o.:.~ :.( ^ Z.j.` V.Z W Q A A 0 - & X U ^ R.v S s F D W W 5.S L W ^ T ( | @.S q I ` d.q.! L L v x 3 O ",
"U ^ T.c S p G w.O.l.&.d.o.~ &.Q 5.( ,.t.V.H.H.S D J A x 4 < = o F / E.N P p ~ F I @.( I T W W W &.^ 5.l i W ( p.p.! K P c v 3 O ",
"J ^ T.c Z c T 0.~ d.0.d.w.o.~ / Q ,.^ V.1.H.1.P L U A M 4 3 -   J ^ E.x Z l Q S I ,.^ P ( I I ^ *.^ @.v i P ^ t.f./ j I x v 3 O ",
"F 6.l.c Z S ( 0.O.0.p.d.w.w.Q o.W *.P 5.1.l.,.x Z A M l q 3 > X A 7.7.x N S H N P O.^ A ^ U U W *.W @.c g W ! &.d.! j I x v 0 @ ",
"M 6.( x c W @.! O.` 0.f.0.w.Q ~ W Q P / >.V.^ I P D B M 3 3 2 o A 7.,.M x W C l D 1.T P W P ^ ^ / ! @.v k ^ ^ ` d.0.x P j Z 5 @ ",
"M 7.,.k Z ( ( ! ( O.` A.f.:.~ ~ D W ^ / s.7.r.( T D N l 1 < 2   M ,.( l Z ! H s v ^ D L D W ^ | / ( | Z k ( @.&.f.&.L P g v 2 O ",
"M C.o.k S W ! H ! ! ! f.v.[ Q Q D U j.I j.t.E ( I F N D ; ; -   M l.O.s S W H i l E D W U ( I E / _ 3.D k W ( @.v.` S T j z 2 O ",
"a n.o.l Z T ! C ~ ~ ~ w.M.~ ~ :.A W 7.W 5.V.L ,.W P B U ; - -   a n.( l Z G Q 9 v ^ A ,.l.| W W ^ _ ^ P k T ! @.l.q.Z T j z 2 # ",
"a R.! l A ! T V ~ ! ~ w.s.~ ~ w.A Q / ^ t.V.P ,.W D N P < $ % X a !.! l S ! D w v U K W j.W I P W o.I L j D W 0.d.t.L L x k , * ",
"a G.O.p D W S V [ Q ~ w.:.W ~ :.U :.W U 5.F.P E U F N Z ; % =   a G.` p S W d i x P L P s.^ I P ^ / I P j A E 0.y.q.P L l x , O ",
"m c.@.l D U D D ~ ~ ~ :.p.F o.p.:.^ F U ,.,.L R U N Z M 3 ; -   m c.` l D U d k x P D U o.*.^ U U I P A p P T 0.) O.L S k x , O ",
"C U.&.s S W N T H [ 0.` w.W :.:.M._ ^ I ^ v.L ^ K U M M 7 1 % . C H.&.d S W a p x Z Z ^ &.W W ^ / I U Z j W L @.( G Z Z k h , * ",
"B J.p.l x ! A W H w.o.0.:.D ~ :./ ,.7.W W v.P ( U A M M ; 3 # o B L.d.l x ^ B j x Z P W 7.! U P ^ / I P i E S W ) S b Z g r , # ",
"a V.w.M k ` A ~ H B.~ [ 0.W s.w.U @.t.>.W F.Z T W A l l ; e # X d F.w.M k ` C k j M I W 5.! S H / ` P D i L T T O.L b S c f > + ",
"a F.:.m p W v W H w.o.` 7.W w.Q A | 6.V.^ j.A W T S D i 3 w * . a c.:.l p W C l j D P T &.0.W ! &.p.D S i P P E ! v c L h u 2 O ",
"d L.:.l p U P D ~ :.~ ` p.W Q Q P U ^ 5.5.1.P ! P D Z w 0 r ;   d U.7.m i T C c r P A ! *.0.O.W &.p.D A i P 1.P T v v b z f , o ",
"a R.&.B p W A P ! :.` W p.T B ~ U N W *.v.^ P U T D M 8 q r * . a U.*.A s W V Z w I D W &.[ ` ` :.G.D S i S ( T O.v v S k f 2 + ",
"w R.~ F s W S ! ! o.w.P p.A F W U M W ^ K.P ! ! P D L 7 q w * . 9 L.~ H s T N N w W D ! [ W D ` :.V.D W i ^ ( S u.Z c v k 6 2 @ ",
"; C.Q F s H ! W W [ p.! :.N U U U M ^ P B.^ D ( D S Z 7 q 3 * . 1 B.Q D d H C N i I I ! 0.S A ^ &.F.D ( i ^ ,.S Z.Z b v v f > @ ",
"w l.~ C c W W W Q Q :.^ :.N F W W M / ! w.p.l ~ S S L 0 q 3 - O w F.~ D v W V d p P ^ W @.D Z @.&.F.P ~ j ( O.v G.L n b v u > @ ",
"y U.~ D l G W H ! ` *.W o.B F Q / A ^ / :.:.S ^ N P D 7 r 4 % O w J.) S d T C V j A W ` &.D P ( 5.p.W o.k ^ R Z u.L n v v e 2 + "
};
