/* XPM */
static char *c3RyaXBwZWRfYWNhY2lhX2xvZ190b3A_[] = {
/* columns rows colors chars-per-pixel */
"64 64 193 2 ",
"   c #15100E",
".  c #161310",
"X  c #1A1612",
"o  c #1E1813",
"O  c #2C1C14",
"+  c #2F2118",
"@  c #35251C",
"#  c #3A261C",
"$  c #3B291F",
"%  c #37281D",
"&  c #3C2C22",
"*  c #372A20",
"=  c #3F3124",
"-  c #472D1E",
";  c #62331F",
":  c #432E22",
">  c #492F22",
",  c #522F23",
"<  c #443125",
"1  c #4B3224",
"2  c #453428",
"3  c #4C362A",
"4  c #4E392C",
"5  c #533425",
"6  c #543629",
"7  c #5B372A",
"8  c #543A2C",
"9  c #5B3B2C",
"0  c #533E30",
"q  c #5D3C30",
"w  c #653522",
"e  c #6A3B26",
"r  c #643C2C",
"t  c #6C3D2D",
"y  c #673823",
"u  c #783D27",
"i  c #713E2F",
"p  c #7B3F29",
"a  c #633E30",
"s  c #693E30",
"d  c #554133",
"f  c #5C4132",
"g  c #63402F",
"h  c #6E422D",
"j  c #74442E",
"k  c #79422C",
"l  c #644333",
"z  c #6C4432",
"x  c #6D4935",
"c  c #6F4738",
"v  c #6D4B3B",
"b  c #654837",
"n  c #734532",
"m  c #7B4632",
"M  c #754935",
"N  c #7C4A35",
"B  c #754C3A",
"V  c #7C4D3A",
"C  c #744738",
"Z  c #7F5037",
"A  c #76513F",
"S  c #7D513D",
"D  c #6E4E40",
"F  c #754F41",
"G  c #7D5342",
"H  c #745040",
"J  c #834C35",
"K  c #894F36",
"L  c #824E39",
"P  c #894F3C",
"I  c #804733",
"U  c #845036",
"Y  c #8B5135",
"T  c #84523C",
"R  c #8B543C",
"E  c #8D593D",
"W  c #935636",
"Q  c #90553D",
"!  c #945B3D",
"~  c #9A5D3D",
"^  c #95603E",
"/  c #9A613F",
"(  c #845542",
")  c #8B5641",
"_  c #855A45",
"`  c #8C5B44",
"'  c #835749",
"]  c #865C48",
"[  c #8C5D49",
"{  c #915740",
"}  c #935C43",
"|  c #995E45",
" . c #925E49",
".. c #995E4B",
"X. c #8C6047",
"o. c #87614A",
"O. c #8D624C",
"+. c #966244",
"@. c #9B6345",
"#. c #9D6845",
"$. c #94634B",
"%. c #9A654B",
"&. c #97684A",
"*. c #9C694C",
"=. c #8E6250",
"-. c #956551",
";. c #9A6750",
":. c #966A53",
">. c #9C6B52",
",. c #9C6D5A",
"<. c #966C58",
"1. c #9D7254",
"2. c #9E745B",
"3. c #9D785D",
"4. c #947055",
"5. c #A16545",
"6. c #A1664A",
"7. c #A36A4D",
"8. c #A86E4C",
"9. c #A3714F",
"0. c #A9704B",
"q. c #A46D52",
"w. c #A86D50",
"e. c #A37354",
"r. c #AB7454",
"t. c #A57855",
"y. c #AC7956",
"u. c #A2745A",
"i. c #AB7559",
"p. c #A47A5C",
"a. c #AC7C5C",
"s. c #B17D57",
"d. c #B17E5B",
"f. c #9E7862",
"g. c #A47D63",
"h. c #AB7D61",
"j. c #A57C68",
"k. c #B57F60",
"l. c #AD815E",
"z. c #B4825E",
"x. c #B9835E",
"c. c #A68164",
"v. c #AC8364",
"b. c #AE8866",
"n. c #AD856A",
"m. c #AE8A6B",
"M. c #B38463",
"N. c #B88563",
"B. c #B48965",
"V. c #BB8A65",
"C. c #B18669",
"Z. c #B98669",
"A. c #B58968",
"S. c #B38B6B",
"D. c #BB8E6A",
"F. c #B98D6B",
"G. c #B4916D",
"H. c #B9916D",
"J. c #BB916D",
"K. c #AD8B71",
"L. c #B38D71",
"P. c #B49273",
"I. c #BB9473",
"U. c #BF9875",
"Y. c #B5957A",
"T. c #BB957A",
"R. c #BD997A",
"E. c #C0916D",
"W. c #C19672",
"Q. c #C19974",
"!. c #C29C7C",
"~. c #C3A07F",
"^. c #B39B85",
"/. c #BD9D84",
"(. c #B69D88",
"). c #BC9F88",
"_. c #B59781",
"`. c #BFA087",
"'. c #BAA18B",
"]. c #C59F81",
"[. c #C4A184",
"{. c #C3A48C",
"}. c #CBA98B",
"|. c #C9A382",
" X c #C3A793",
".X c #C6AA95",
"XX c #CEAE92",
"oX c #C6AC98",
"OX c #CFB197",
"+X c #C8B09C",
"@X c #D1B49B",
"#X c #CEB5A0",
"$X c #D0B7A1",
/* pixels */
"X * h ` ` T [ M ( ] ( { i.6.} T ;.` ' G & . * s 9 , 7 G R S N T G z 6 l 7 9 b 6 5 @ o % 6 x 8 S N g G o.` G l B 9 9 z P C t @   ",
"1 = G R.I.H.H.B.a.M.M.N.E.V.N.F.S.H.I.F & 6 & c Y.L.C.L.J.B.a.v.v.a.a.g.l.t.p.v.v & 1 2 v m.v.v.b.l.l.z.M.a.y.0.e.i.y.z.N.x $ 6 ",
"a F ].v.B.v.e.#.5.! ~ ! | w.6.@.w.i.d.J.q r x #X}.Q.F.p.q.+.R E E *.t.e.a.m.v.l.{.G 9 S {.z.A.m.e.#.#.W } ! 5.w.7.5.i.i.z.J.9 g ",
"V L.h.h.p.v.+.@.*.Q Y L Q | ! %.a.6.d.i.F.) ].T.S.C.*.e.! $.` R T E *.e.&.t.u.v.N.Y.V P.l.v.a.n./ @.*.! K K Q | ~ *.a.6.z.i.F.` ",
"d l.v.2.3.@.7.} R ..} { ! { ..;.n.i.7.k.F.` [.Z.i.e.T.u.( I U ` U ` &.} &.&.p.p.A.l.8 c.c.e.p.+.7.} R @.{ { { { ..>.n.i.7.k.F.` ",
"1 p.v.t.&.+.@.R E } I L { K Q ;.>.*.w.w.I.S ].M.8.e.,.T $.) O._ U T >.` %.} +.n.b.l.1 p.v.p.&.+.+.E E ! m L ) K R -.>.%.q.r.I.S ",
"` m.c.&.>.+.` $.L N m N m ( J ) { Q ! r.F._ S.d.d.%.p -.C B T n N ( N ` R *.@.+.e.m.] S.v.+.>.+.E $.U N m N k T m ) { ! ! r.F._ ",
"c L.e.7.} E ` X.R N N N L L m N K *.+.e.H.z j.k.q.K $.V N ( [ _ _ ( L ` ` R %.+.#.S.c S.1.e. .E ` O.( V N C N V m m K $.@.e.H.n ",
"G G.e.*.&.$.T T V _ ( ` C n ( L T ) q.e.N.( I.k.` R V S ( R S ( S S V R R V Q | 5.a.' G.t.#.&.$.T U Z ( ( ` C h ( N L ) q.q.M.' ",
"v b.*.T ` Z [ T S ` [ ` L N r ( ` E %.7.h._ I.i.` E M T Z B [ =.[ X.O.h L { } ! ~ t.D v.*.T  .U [ ( B _ ) ` L L r ( ` ) ..8.v.` ",
"d p.! ` I ` N G T O.<.' $.( V L I U +.8.g.( I.a.E U X.M j =.B [ =.[ ..h m K K } ~ 2.0 3.! ` L ` L ( S [ :.' -._ V ( m L +.q.p.G ",
"M 1.! ` U $.M B o.O. .O.] L [ L N N  .7.v.) Q.a.R T $.T z O.G O.O.` $.M m ) K } W 9.M 1.! ` L &.B V ] [ [ =.] U  .V m N  .7.v.{ ",
"< *.E ` N $.S S _ [ B ( o.m T j k N %.q.S.i.].e.` T X.N C ) O.] &.C L V m } L | / *.1 *.E } N &.T S ] _ V G o.N T n k N @.e.C.y.",
"3 t.@.` L T _ T Z _ O.o.( ) z V L N $.y.P...L.a.$.` U U L T N Z T V n n ) K K | 0.*.2 p.+.` J _ X.( Z _ o.O.T ` z N V N $.y.L.%.",
"F S.e.R  .) U N S M m U V N n ` +.O.q.z.b.` S.N.R &.[ ` N C U ` _ s V m ) P ;.K 7.y.B m.e.R ` ) U Z S m N U L N m ` +.O.7.N.m.` ",
"A G.p.e.,.R [ _ T N h n M N ` ` _ u.r.d.I.T U.N.h.>.&.) ` V n M B V P ) P  .u.| 6.v.F P.a.q.,.R [ ) _ Z h M M N ` ` _ u.r.d.I.L ",
"2 m.H.*.K.j.u ` T L [ $.[ R &.] >.*.y.V.[.$.!.F.y.>.>.` X.L k L I  .} J P j.u.a.i.t.2 m.L.*.n.j.u [ T T O.$.O.R &.[ ,.*.y.F.~.&.",
"l Y.I.v.e.%.*.{ L N S T S U $.q.;.d.F.W.{.( [.I.V.z.7.p.$.L N T ` T L &.6.{ q.7.y.v.b T.I.M.e.%.*.{ L V S R T U +.,.%.d.H.E.{.( ",
"&.{.[.A.i.8.r.| %.>.+.! &.q.} w.s.Z.J.!.).F _.R.J.F.a.r.q.7.*.| @.*.k.@.K q.7.d.M.I.:.{.[.Z.y.0.r.@.%.&.| { $.q.+.q.s.F.H.[.`.G ",
"B B oXT.V.Z.d.N.r.8.r.i.w.r.N.N.J.W.!.(.d B d _.~.Q.V.z.z.r.7.7.8.6.6.q.s.i.N.d.H.F B A +XR.F.Z.N.N.i.q.r.r.7.i.N.V.H.Q.!.(.d S ",
"q & l T.L.G.b.c.P.m.v.B.p.2.c.m.m.T.).f 2 f : 2 n.L.S.C.c.c.1.:.$.&.>.p.u.g.t.e.< & l & 4 v.v.B.p.g.P.H.F.B.v.u.,.h.C.I.P.8 & f ",
"X & l V 9 1 ' v G v 4 x - 3 v x 2 l >.G & . & r , 9 6 B _ n z l 5 6 6 7 : 4 9 < - % o % : : 7 9 3 v V A v f l r 1 > 6 j z z %   ",
"6 : 0 P.m.3.b.c.P.m.3.o.:.c.P.P.K.`.].v : , $ 0 C.L.S.H.B.c.B.M.a.e.g.>.,.b.K.K.6 & 7 < 2 g.v.e.p.g.P.P.c.O.t.v.v.h.S.].P.q : 5 ",
"t l oXF.v.M.B.v.l.e.&.#.@.*.h.S.I.].OX X4 s 3 ).!.Q.J.N.N.z.y.N.N.M.B.V.Z.F.F.!.#XC t x oXF.v.B.C.v.l.e.&.&.+.*.h.F.I.[.@X X4 s ",
"r n.I.a.v.t.3.%.^ E E U U &.+.*.g.L.!.XXC.6 L.|.J.F.s.k.@.*.) U U ` } 7.k.8.y.F.}.Y.7 n.I.a.c.t.p.&.! R ` U U $.+.>.h.L.!.XXL.7 ",
"r h.M.h.2.*.%.+.1.} E ` ) E ( >.p.a.d.H.L.6 L.Q.F.z.p.>.) E X.` R ) ) Y ..u.e.v.U.L.7 M.M.v.2.*.%.+.e.` R ` E E T >.u.p.a.H.C.9 ",
"8 a.A.n.2.>.E &.E &..._ $.$.p >.,.a.y.N.S.9 m.V.y.a...$.>.T ) ] G V T &.p ,.Y.&.F.m.6 a.A.v.2.>.E &.E $.| ( $. .k >.2.a.y.M.S.9 ",
"T S.a.u.! &.&.R ` T L R ( V ( E $.| r.M.S.B S.z.z.2. .` S n M Z n Z V B -.) ;.u.a.P.T S.a.p.! %.$.R _ R N S S M ( R $...r.M.F.F ",
" .H.#.^ *.@.L ` O.m T o._ B ] V K ..r.N.v.) v.N.y._ %.V M T V N j V ( V n %.) ` >.I.O.F.#.! *.+.U ) ` n B [ ( M _ B J | r.N.v.) ",
"B a.5.+.} N ;.$.L ( S B B V M R ( R R M.C.( v.d.%.Y C N M R V G _ S Z T _ N K ` +.M.M z.5.@.} N &.[ V S B S A S n S ( E R k.m.L ",
"x t./ | @.) U R T ` <.[ ( M M V Z U -.y.A.m p.y.) R i n T h O.G M ] ( G T O.N } W t.z t.@.| @.) J L Z [ -.O.` V V V V L -.y.A.N ",
"z e.~ R Q { Y N &.[ $.G B G r n ( V $.i.F.G u.r.E T m L ( U ' o._ O.o.S M -.N +.E 1.h 9.~ R { ! J M $.) -.( _ o.h n ( M ..a.F.V ",
"5 7.@.K R R P i &.$.=.[ z A n j [ N } i.J.S 1.r.{ T I ( C L &.=.<.O.S [ V ` j @.R e.6 *./ Y R { K s &.-.-.O.V o.V n ` N ` i.F.S ",
"6 *.~ Q P } P n -.) ] ' v M h B O.V | y.G.l 1.r...R ` ( r ( L ] $.) _ T _ E L +.*.u.6 *.~ W P } L i  .) O.O.G _ N V O.S | y.b.l ",
"6 7.8.} { E L ( i V V ( A z B N R T &.d.p.1 e.i.q.R  .L ( s ( ..$.$.T n T >.` *.e.p.5 *.8.} { R P ( s L U =.o.Z ( N T T %.a.p.4 ",
"9 @.r.{ } p ..L M x T M e M n T R ` } A.1.g a.r.} *.p ` N m m N V N V [ &.R %.&.t.u.9 %.e.! | k ..L V C ] R k V M U R `  .N.1.l ",
"< q.%.} ,.;.m P J T s r 7 j ` R O.>.%.V.b.8 t.s.~ | E L ) ) m n j m E >.` ` e.+.l.3.: q.| } ,.;.m U L ( s t y n X.)  .<.*.V.v.7 ",
"4 e.r.q.q.;.) L ) T ) ( N U T ` &.$.N.D.v.8 v.r.q.} g.$.L K | { K } ` Y { 7._ t.B.3.4 1.q.q.q.;.) R R ) ` ) N T R ` $.+.N.D.c.9 ",
"f 2.i.q.p...6.} L J ) ( L V R u. .y.N.Q.P.f y.N.w.q.u.i.6.K K R E E L %.e.T 2.e.v.l.q 2.a.w.i.&.;.} L J ) ( L V R 3.+.y.z.Q.G.b ",
"1 *.d.q.r.@.R %.$.%.} E E ` >.*.z.z.I.I.L.1 u.i.k.6.h.{ R 6.@.! } @.0.^ R b.h.v.l.j.1 %.k.w.r.#.R %.%.%.| R Q +.,.>.N.N.J.Q.m.5 ",
"- 7 z.i.i.7.5.7.} +.%.*.q.q.r.d.N.H.I. X6 5 < H.z.y.i.6.6.@.W K R K ! #.e.S.F.M.{.b : 9 x.y.y.7.7.*.+.@.*.w.u.i.s.z.V.J.W. X4 5 ",
"O % M M.J.H.F.B.F.M.M.l.A.H.I.E.Q.[.).B & # @ l i.e.i.v.N.i.d.a.d.t.7.i.l.c.c.v.x * O % z t.v.M.z.l.b.B.v.y.e.y.a.a.B.I.U.x % $ ",
"X $ r ) ( B ) x ( _ ( E i.%.} ) %._ _ ( < X # z a 6 9 S ) R V ( A x 6 g 6 9 b 3 , O . % 6 l 3 c M f S ' ) V z n 9 9 z N M i @ X ",
"@ @ B {.{.U.R.H.M.M.v.H.U.!.I.I.H.R./.o.< - & B m.a.h.B.A.s.y.h.l.t.9.9.i.1.i.i.9 @ # % c T.Y.F.D.B.S.M.v.n.v.l.l.l.l.B.H.V & > ",
"2 4 @X}.I.F.p.>.+.R ! E &.9.e.p.v.v.a.{.B 1 c {.M.A.m.t.5.@.! | ~ / r.8.6.i.a.N.Q.2 2 8 #X}.!.L.t.>.+.R E E *.e.e.l.n.v.a.{.B 6 ",
"< n.].Z.v.*.e.+.$.` R T R *.e.@.e.1.v.M.b.x n.l.v.a.m.^ @.7.Q Y J W | { ..k.6.k.s.t.: K.!.F.C.&.e.+.&.E R R E &.e.+.p.e.v.M.b.x ",
"; v.D.i.q.Y.2.L L U E U ` &. .&.&.3.p.A.v.8 c.v.1.p.+.7.} R @.{ } { Q } q.j.i.q.Z.0.; S.F.y.e.Y.2.T I R ` J  .&.` *.&.3.p.S.v.4 ",
"9 b.Z.8.u.f.T %.R X.[ S T >.E @. .+.n.b.z.A v.M.p.&.+.%.R ! ` J P E K { -.>.6.w.r.a.9 S.Z.0.t.,.T %.R o._ Z T >.E +.} @.n.S.M.B ",
"2 g.N.M.%.p -.n S S M V _ N ` E *.| +.t.M.m B.p.&.q.+.E $.U L m L I T L P ` Q | i.p.2 p.N.k.%.p -.n B S n m _ N ` E *.@.+.t.M.N ",
"B f.N.6.K $.V V ( ( T _ S L ` [ R %.} 5.l.l v.9.e.` E X.[ ` L L L L L m N K &.+.r.m.v f.N.6.P $.V N ( ` _ _ S V [ ` R %.! #.l.l ",
"V P.N.` E B T _ Z B A x V M ) E J E | 5.l.( G.e.*.&.$.R T U [ `  .V i ` L L E q.0.M.B P.z.` E V S ( T S G B V N ( E N R +.#.l.G ",
"S F.a.` ) M Z N B G ] [ ` [ n L } } ! W l.] G.&.R ` U [ ( V  .[ [ L L r ( ` R $.r.p.A F.d.` ) M Z V S ] =.O.` ` h N | } ~ ! z.] ",
"v S.d.E L [ n h ] C ] =.[ +.z m P L } ! b.` B.E ` N ` U ( G [ <.' -.( B U N U | r.1.v S.d.E L [ m j =.M $.=. . .n m P L ! ! v.` ",
"f B.d.R T $.Z h o.G [ O.[ $.N L E J ! W l.G p.! ` U &.M V o.O.[ [ ] U ` V N N ..9.1.f S.d.E L -.T h O.G O.O.] $.m I ) K ! W l.G ",
"l v.d.` T [ V n ) =.] -.N L L m } P @.! y.x p.R } N &.( S _ ( M G ] n L t k N %.y.>.z S.a.` T [ V M _ O.] :.m N m m } L | ~ y.b ",
"r u.B...` U N T T m T ) L m C ` P P | 8.0.n a.+.` L ( ` G Z S o.] V ( s V L N *.z.u.r 1.M.$.E P Z T T N U ( V C C ] K K %.q.0.M ",
"6 1.Z.E &.` ) m M Z ` ` z G m E P ..K 7.w.7 h.e.R } ` L S S n j V m n n ) +.O.7.V.>.6 e.Z.E &.[ ` N n L ` _ t V m Q P ;.K w.w.7 ",
"1 a.V.k.>.&.) ` V n n V L L ) )  .u.| 6.i.9 S.a.q.,.R [ ( R V t h x N _ X._ p.r.z.p.> p.V.M.;.&.) ` V n V B T L ` P  .u.{ 6.y.9 ",
"9 n.D.d.>.>.O.` V k L I [ } I P h.u.k.i.p.l F.L.&.K.j.u ` T T O.$.X.T &.` >.7.a.V.n.7 S.H.s.>.>. .` L k J I [  .K P g.u.h.i.y.z ",
"N I.W.F.d.*.u.$.L N U ` R L %.@.) i.6.i.z.J R.I.v.e.%.*.{ L N L T T U $.u.*.s.H.W.R.N P.W.F.d.7.p.$.N J T ` Y L $.@.{ r.6.i.M.L ",
"l L.!.F.H.a.0.r.6.*.@.$.*.h.#.K 7.7.d.z.z.n R.{.F.i.0.r.| %.&.+.{ &.q.+.q.d.F.J.|.R.l L.!.J.H.a.r.r.7.%.| +.7.a.*.Y w.7.d.N.N.M ",
"r 4 (.!.Q.V.z.x.r.7.*.0.6.%.8.i.e.N.y.J.l r z +XR.F.N.z.z.i.w.i.i.8.i.N.V.E.Q.!.'.3 r 8 ^.~.Q.H.z.x.r.7.*.8.7.*.q.y.r.M.s.J.l t ",
"# % 3 P.P.m.m.g.c.3.4.$.&.1.M.v.b.B.R.f # # # a L.n.C.B.v.P.M.l.v.g.>.1.g.v.S.j.< # $ @ & g.S.v.p.p.c.p.3.<.q.e.y.u.h.z.M.8 # # ",
"X @ 9 B d 1 ( v ( v 8 M 1 4 B A 2 B 2.S $ O & t 7 9 9 B ` M g r 6 7 1 6 : 4 f 1 - + o + & - y 9 < v A G B l l s 6 1 a N x a @ O "
};
