/* XPM */
static char *_c2dece96d2549f9ca6b53a260ccac4ejwBuVhpCtAU6Hbtg[] = {
/* columns rows colors chars-per-pixel */
"64 64 237 2 ",
"   c #2B1C17",
".  c #3A2C25",
"X  c #3E342D",
"o  c #3F3A36",
"O  c #3F3E3B",
"+  c #3C3431",
"@  c #4B3C2F",
"#  c #48372B",
"$  c #563B2A",
"%  c #443C35",
"&  c #4B3D33",
"*  c #423E3B",
"=  c #433833",
"-  c #543E32",
";  c #42413D",
":  c #4B423B",
">  c #4E4237",
",  c #534334",
"<  c #5B4534",
"1  c #534639",
"2  c #54493E",
"3  c #5B4B3D",
"4  c #5D4935",
"5  c #62452E",
"6  c #614D3D",
"7  c #654835",
"8  c #66513E",
"9  c #79573C",
"0  c #434240",
"q  c #4B4540",
"w  c #4E4842",
"e  c #544C43",
"r  c #5A4D41",
"t  c #574F49",
"y  c #5D5145",
"u  c #5A534B",
"i  c #5F5851",
"p  c #625243",
"a  c #695543",
"s  c #64564A",
"d  c #6B5A4B",
"f  c #695949",
"g  c #745B44",
"h  c #7C5B43",
"j  c #735D4A",
"k  c #755945",
"l  c #675C51",
"z  c #6F5446",
"x  c #7C634C",
"c  c #76614D",
"v  c #6D6156",
"b  c #736152",
"n  c #7A6553",
"m  c #73665B",
"M  c #7B6A5A",
"N  c #766D62",
"B  c #79736D",
"V  c #835D3B",
"C  c #96663C",
"Z  c #815F41",
"A  c #82644C",
"S  c #8B6B4C",
"D  c #896847",
"F  c #946A44",
"G  c #946B4A",
"H  c #9C734C",
"J  c #9D7349",
"K  c #836B55",
"L  c #8A6D52",
"P  c #836E59",
"I  c #846953",
"U  c #8C7255",
"Y  c #86725C",
"T  c #8C735C",
"R  c #8B785F",
"E  c #947354",
"W  c #9A7552",
"Q  c #9C7953",
"!  c #9B7C5C",
"~  c #95775B",
"^  c #A5764C",
"/  c #A7774A",
"(  c #A47B53",
")  c #AA7D53",
"_  c #A37E5C",
"`  c #AA7F5A",
"'  c #837363",
"]  c #8A7562",
"[  c #8C7B68",
"{  c #947C64",
"}  c #9B7E62",
"|  c #927E6B",
" . c #837C72",
".. c #A37E61",
"X. c #9F825E",
"o. c #AD8254",
"O. c #A3825D",
"+. c #AA845C",
"@. c #AC8A5C",
"#. c #B58A5B",
"$. c #BB8B5C",
"%. c #B58657",
"&. c #BA9059",
"*. c #9D8164",
"=. c #95816C",
"-. c #9C836A",
";. c #9F896F",
":. c #9B8672",
">. c #9B8876",
",. c #8D8376",
"<. c #A38364",
"1. c #AA8564",
"2. c #AD8A65",
"3. c #A4866B",
"4. c #A5896D",
"5. c #AB8B6B",
"6. c #A78767",
"7. c #B38C64",
"8. c #B18E6C",
"9. c #B88E64",
"0. c #AD906C",
"q. c #B59164",
"w. c #BB9363",
"e. c #B4926D",
"r. c #BB956B",
"t. c #BD9A6C",
"y. c #A58B73",
"u. c #AA8E73",
"i. c #A48E7A",
"p. c #A98F7A",
"a. c #AD9274",
"s. c #A5917C",
"d. c #AC947C",
"f. c #AF997B",
"g. c #B39474",
"h. c #B99673",
"j. c #B69976",
"k. c #BC9A74",
"l. c #B2967B",
"z. c #B49A7D",
"x. c #BB9D7B",
"c. c #BB9579",
"v. c #B08E70",
"b. c #BDA17E",
"n. c #BFA074",
"m. c #C2925E",
"M. c #C39C6D",
"N. c #C69968",
"B. c #C29D74",
"V. c #C29F7A",
"C. c #C99D73",
"Z. c #C8A26D",
"A. c #C5A175",
"S. c #CAA475",
"D. c #C3A37C",
"F. c #CBA47C",
"G. c #CDAA7E",
"H. c #C5A97F",
"J. c #D1A574",
"K. c #CEB07D",
"L. c #9E8E81",
"P. c #A69382",
"I. c #AB9682",
"U. c #AE9984",
"Y. c #AE9B89",
"T. c #B19781",
"R. c #B49C83",
"E. c #B99E82",
"W. c #B39E8A",
"Q. c #B89F8B",
"!. c #B29F90",
"~. c #B7A184",
"^. c #BCA284",
"/. c #B5A28C",
"(. c #BBA48B",
"). c #BEA98D",
"_. c #B5A492",
"`. c #BAA692",
"'. c #BDAA94",
"]. c #BCAC9A",
"[. c #B8A799",
"{. c #BFB09A",
"}. c #BCAEA1",
"|. c #BEB1A0",
" X c #C09F82",
".X c #C2A584",
"XX c #C5A985",
"oX c #CBAB84",
"OX c #C2A68A",
"+X c #C4AA8C",
"@X c #CBAE8C",
"#X c #CBA684",
"$X c #D1AD81",
"%X c #CDB28C",
"&X c #D3B48C",
"*X c #D5B487",
"=X c #C3AD93",
"-X c #C9AE91",
";X c #C2AE9A",
":X c #C4AA95",
">X c #C6B195",
",X c #CBB294",
"<X c #C4B29C",
"1X c #CBB59B",
"2X c #CEB99D",
"3X c #D2B593",
"4X c #D4B994",
"5X c #D2B799",
"6X c #D3BB9C",
"7X c #D8BB9A",
"8X c #C5B4A2",
"9X c #CAB6A2",
"0X c #C7B8A5",
"qX c #CCBAA4",
"wX c #CCBCAB",
"eX c #C4B8A9",
"rX c #D2BDA3",
"tX c #D2BEAA",
"yX c #D6BCA2",
"uX c #CEBFB0",
"iX c #DBC29F",
"pX c #CEC0AC",
"aX c #D4C0A6",
"sX c #D4C1AB",
"dX c #DAC5AA",
"fX c #DCC8AD",
"gX c #DAC3A5",
"hX c #CFC2B2",
"jX c #D3C4B2",
"kX c #DAC5B2",
"lX c #DCC9B3",
"zX c #DACBBA",
"xX c #D7C9B7",
"cX c #DFD3BE",
"vX c #E0CFBA",
"bX c #E0CBAE",
"nX c #E1D4C4",
/* pixels */
"qX<XR.z.(.'.(.qXdX>XS E F / / ) A.%X,X`.=X>X).aXaX<X_./.1X<Xa.O ^.%X^.f.'.pX0X0XhXwX[._.!.].].qXjXpX{.|.B ,X2X,X`.0X<XW.`.W./.i.",
"6X>XW.z.).=X`.qXrX2XU ~ J / ) o.h.XX%X(.<X1X<X<X{.{.>X{.<X`.y.O f.%X+XR.(.<X0X{.hXjXeX[.[.<X[.qXpX<X]._.N @X@X+X(.<X;X/.(.:X/.d.",
",X(.f.U.:X'.`.9XqX,XP <.( / o.) #.A.XX^./.).'.'.'.qXaX<X{.{.s.O a.@X,X)./.{.<X].8XwXwX8X[.].'.<X<X).Y.s.v .XoXH.b.:X:X~.(.:X:X/.",
"^.z.T./.`.!.Q.9XrX:Xc { ( ) %.#.2.e..X>X>X,X2XaXaXpX<X<X{.0Xy.; ;.,X1X+X)./.{.{.}.8X8X].].{.'.'.~.R.U.=.t e.D.D.j.^.=X`.W.).=X+X",
"a.d.~./.Q./.;XtXqXi.e x S ( %.N.t.j.l.+X=X+X=X-X2X2X'.'.1X1XR O ' OX,X,X).~./.].{.{.8X<X<X<X).^.z.E.u.b : E h.b.j.T.+X:XU.U.E.z.",
"E.z.R.E.R.'.9XtX'.d O : k Q &.M.oX+X(.).-X(.(.OX~.~.).,XiXf.d 0 u ,.+X+X+X).~.`.<XeXeXeX1X=XW.T.~.y.M : O 4 ! j.~.E.T./.^.d.f.E.",
"E.d.d.T.:X1X1X/.[ O O % 1 h o.A.3X7X6XrXrXrXqX2X4X+X+X,Xf.g 4 Y f.j.z.OX%X@X'.(.].8X8X<X_.W.I.E.i.m w ; : e g y.XX.Xz.d.z.x.^.+X",
"l.d.(.+X,X:XR.Y o % a a.#X2.E 5.oX7XdXfXbXkXbXbXgXiX%Xa.a } +XiX*XK.x.E.+X2XqX0X].<X]._.T.R.p.[ l l f U e.t.<.K l..X~.g.4.a.z.^.",
"z.(.:X1X:XT.] % & 1.h.B.@X@X X9.7.x.5XyXdXdXdXyX5X@X3.h 6.0.&XgX%XG.oXg.f._.pXpXpXhXpX|.W.:.b b .XZ.S.*X*X4XiX4XK s.x.u.<.6.8.a.",
"+X>X1X1XI.d * 1 e.r.1.2.h.V.c.V.h.G } j.3XyX6X.X4.j j <.@.@.b.,X>X.Xb.%Xb.y.M =.s._.Y.' a & K oX%Xb.b.b.^.^.aXfXz.p P 3.2.v.j.x.",
"(.).Q.| * * * | V.v.l..X+Xg.g.r.N.%., : w w : ; = - Q.c.8.0.e.(.~.0.z.~.%X4X4XgX1X4 . O O > G.H.j.f.@XqX2X'.1XfXdXT = r T 3.a.R.",
"O O O O O O * (.[.8X:X^.OXE.e.w.N.N.< r OXQ.= + # R.j.c.<.5.~.>X).XX).f.f.+XXXiX,Xa.# O 1 M.x.(.(.).<X2X<X].<XpXcXR.1 * * O O * ",
"p.L 6 1 * * : 1X_.8XW.R.g.x.r.` 9.N.9 5XaX+X`.X L V.e.g.5.x.+X>XaXXX.Xb.j.z.^.2XaXiXS ; L S.^.>X).).~.`.>X1X<X<XsX^.r % t P i.Y.",
"+Xj.<.E A y q !.:X`.R.I.d.j.2.<.C.C.L tXzX0X[.< l.V.5.g.x.~.~.+X>X).b.+X^.E.(.0X>XaX^.1 X.H..X+X+XW.(.(.(.1X<X'.,X3.3 n y.z. X-X",
").(.x.a.5.! j ] Q.:X;X;X:X(.l.u.V.@XT rXaX'.I.4 ~.b.a.^.a.z.T.a.).(.~.~.=X>X/.(.<XfXaX3 @.r.0.h.^.).<X>X(.>X).z.@XP I u.E.E.Q..X",
"qX1X).W.z.k...6 5.OX`./.T.z.k.F.#Xf x aX,X).s.5 b.D.^..X+X~.=X/.).`.{.~./.<X<X>XpXdX2X1 ( %.#.+.D..X/.~.d./.).:Xj.K u.#XE.Q.,X1X",
"yXtX<X(.b.b.w.S , G 8.` ..9.^ ^ < = %  X+XW.k P .Xx.j.^.,Xd.`.].I._.].~./.<XeX<X[.tX5Xr D / ) ( @.r.j.^.W.).1X=X] z..Xb.z.+XqXaX",
",X1X=X).j.g.w.( 6 = # V F F $ = = * 0 0 * : = } 6Xj.z.:X^.U._.].[.|.<X`.Y.d.qXwX8X9X5X* L J C ^ ( 2.x./.:X1X1X' ~.rX).(.).'.>X6X",
"R.E.R.x.j.q.o.J k = = & - Z _  X-XOXu.I 3 & @ :.3X^.^.(.`.Y.].uX[.|.0X<X>X`.0XeX_.tX-X* r } ( ^ o.N.&X5X,Xd.i m fXsX{.qX1X>X(.+X",
"+XE.T.j.k.q.( J V & , n T.#X XV.#X-X-X,XR.b - I +X,X(.^.=X].}.wXpXhXqX0X(.'.1XwX_.,X@X* * d { G Q +.5.<.a ; O =.vXlX<XpXpX>X1X1X",
"W.R.f.j.e.q.H J V 8 P z.@X.Xj.c.5.^.).=X;XR.n a 2X,X/.R.<X8X[.|.pX0X|.[.(.<X<X/.].<X+X* & < 9 H &.J.F.8.L 6 : y.fXfX<XaXaX{.2XaX",
"d.(.(.l.a.q.( F V S V..Xj.f.5.5.5.a.z.U.].].i.a +X1X/.U.R.eX}.`.].!.[.].].]./.W.:X.X3X% 1 L B.F.C.M.F.*X@Xd.j (.dXaX'.pXdX{.<X(.",
"y.).:X^.h.e.) J C <.j.l.4.y.y.u.g.j.E.U.Y.[._.:.>.aX).).d.W.{.]._.eX0X<X|.).d.^.,X.X^., ..V.B.r.M.r.k.@X4XyXOX5XfXgX'.aXaX{.qX2X",
").>X).x.g.e.) J F 2.a.4.4.d.OXE.5.j.x./.I.Y._.s.n aXdX1Xd.W._.{.pXwX0X_.`.T.e.b.H.,Xk h r.q.1.2.2.@.q.b.@XyXrX5XfXaX'.qXaX{.'.qX",
">X<X^.x.j.5.O.H F 6.3.! u.R.E.u.z.3.d.).Q.W.Y.Y.=.:.qX+X:XU./.`.0X8X;X[.qXx.7.t..Xy.$ Q 7.+.1.v.j.7.O.e.l.:XrX+XiXiX).,XaXqX{.,X",
"(.(.E.W.x.5.1.) ( 5.u.y.a.R.R.P.i.3.p.T.'./.P._.d.x `.rX=X(.(.`.`.{.'.<XyX@Xt.e.j.- 5 ) +.` 1.h.j.c.v.c.g.E.1X+X4X&XXX^.+X<X'.~.",
"(.,X).(..Xh.c.+.1.v.3.z.R.R.P.I./.U.I.I./.`.I.=X(.{ 1 2X>X2X1XsX1X1X:XrX2X%XH.<.& = Z ` +.8.2.3.l.p.g.l.l.d.OX,XA.oXoXb.b.).(.z.",
"XX+X^.~.E.x.B.7.8.c.4.l.R.d.d.W.8X<X`.W.`.(.W.).).a., , T `.rX,XaX<XaX6X6X@XY > = = G ) +.5.3.y.p.I.I.I.^.l.XX,Xr.t.S.H.x.j.b.H.",
"^.b.x.x.H.S.<.v.c.v.y.z.R.y.T.[.P.8X8X[.;X;XW.).+X(.3 ~ y.-.;.=XsX].aXi.b 1 & * % O E ( 1.c.v.v.p.s.R.Y.).R.OXoXe.Q w.Z.M.h.j.A.",
"n.t.t.B.D.6.p c.j.v.u.y.:XY.I.!.!.].;X!.].:XT.(.b.g.y.~.).(.d.W.R.P , : : % % o O O L ` 7.v.v.g.p.p.R.I.OXz.#XA.@.9 x o.&.w.h.A.",
"A.Z.M.w.E w O { x.E.y.p.I.W.I.Y.!.`.[.!.:X'.I.l.0.X.d.'.<X].'.].9X;Xp * = & 7 j = % h ..` v.u.p.y.p.P.I.(.l.D.t.J 1 % 5 J %.$.t.",
"#.@.D 2 O ; O x  Xj.y.3.p.I.I.P.Q.[._.Y.`./.d.j.2.X.U.`.`./.`.=XwXwXj . x oX%XD.k.{ 5 ....a.g.E.p.p.p.T./.z.D.n.V ; O * % 9 J o.",
"} x p 2 0 O ; 1 E.z.I.} p.Q.Q.R.I.T.Y.Y.Y.I.d.E.<.<.W.W.I.Y.R.Q.<XdXx j h.,X/.j.b.@Xh A O.<.u.R.R.T.T.T.W.E.OXv.4 % * & 6 9 h L ",
"z.0.6.*.M e ; @ L z.d.y.I.Q.`.!.!.[.;X[.Y.U././.T 6.~.R.s.y.I.Q.9XrXg x.j.'./.`./.qX/.1 W e.l.E.T.p.T.W.].1X+XK & * 3 n <.g.z.E.",
"j.0.r.h.g.[ t % 3 } l.T.Y.I.I.!.:X!.}.[.!.].=Xf.s U .X'.I.d.E.-XtXqX6 @X(.].]._.].pXkX% 1 } .X+XOXOX:X,X1X1X' 2 & a T e.x.x.z.E.",
".X0.5.k..X^.[ e = d T.OX'._.W.W.I.!.!.!.'.8X].' : @ E.-Xx..X1X3X:Xd 1 @X'.{.].!.].qXtX* p j P u. X@XOXOXi.m e : a ~ 6.x.+XE..X@X",
"XXj.a.g.^.+X^.M * = a (.:X1X:X'.Q.:X;X8X<XeXN : ; * & T c.+X,XQ.r & * 1X4XaXpX|.9X2Xl...C.@XM.8 s z z s t q ; 3 U 2.0.g.~.).+X<X",
"f.U.b.b.E.@X4X~.p * & t :.Q./.:X;X;X:X}.L.s : : * % @ @ $ 5 z 7 $ #     3 N P._.:XQ.[ 4XgX3XC.%.* 0 * * 0 0 : I <.5.0.f.).>X>X,X",
"R.f._.).~./.,XqXK * * * * d ' :.:.| ' l 1 ; ; ; ; 3 n f.OXc.V.1._ E E z 7 - N ,.b = Y.vXbX3XC.N.0 0 0 0 0 0 r u.<.O.0.b.(._.].<X",
"'.(.{.<X'.(.0XkXI.O O % & p Y P z $ & 0 ; ; : > f ;.,X5X@X XC.8.1.( _ ~ E 8 < . + + M bXvXyX@XOX* : 0 0 * ; k j.X.<.f.~._.>XqXaX",
"2X`.'.2X{.[.aXxX0Xo o @ } OX@X,Xl.e.Z , % % & b g.@X+X+Xx.a.6.5..._ ..5.6.6.6.A # + = G V.C.) - : : : ; ; O R j.6.g.E./.`.qXpXwX",
"0X'.'.pXqX].pXzXzXo > *.&X-X1X5XyX5XD.1.@ % 3 R..X+X^.U.d.R.z.R.E.R.p.R.g.x..Xx.-.@ o o & p } OX+XR.R y : O 4.b.5.j.^./.{.pXeX[.",
"[.{.[.0XqX].pXcXnX: U .X@X(.,X:X;X5X5XoXD # T x.j.j.l.T.)._.Q.i.R.s.T.(.T.'.+XOXOXI # = | OX+X3X,X,X+X~.R o z..Xa.z.).'.{.|.<X].",
"pX<X[.qX0X{.pXxXzXM 6X>X(.R.=XOX`.Q..Xj.^ 7 +X^.a.l.d.I.I._._._.`.!.p.Q.`.R.Q.).@Xg.6 ' -X1X1X2X,X^.,XqX>XM j.XXl.z.).'.].].1X].",
"pX|.[.qX<X'.qXsX8X/.sX>X<X2X=X+X^.XXa.+.C g a.x.z.^.(.`.Q.].;X8X;XeX/.s.`././.Q.:X+X| l.+X:X<X'.U.R.:X8X9X9X4.+X(.z.).<X{.|.wXeX",
"}.].].0X{.(.<XaXs.,XxX0XqX`.'.).R.~.6.H D U ~ j.l.=X=X=X:X:X:X].].tX;X/.W.;X:X`.1XqX`.p.Q.`.'./.W.'.W.:XwXtX<.+X+X~.(.>X<X{.|.{.",
"hXwXwX{.).^.,X,XM %X2X).2X{.2X'./.E.a.E 9 -.E 6.(.2X1X9X8X/.P.W./.0XqX`.Y.<X'./.1X9X;Xy.I.R.;X8X'.;X[._.].wX<.,X>X^.~./.{.pXjXhX",
"xXhX{./.~.).@Xu.3 iX'.`.>X].0X(.+XE.j.W V 4.X.W .X;X'.8X;X].Y.W.Y.<X1X`.`.8X<XQ.1X1X:Xi.T._.9X;XW._.Y./.Y.>Xy.s.>X+X~.~.`.qXjXzX",
"hX8X'./.(.+Xs.v 1 @X+X'.2X{.'.~.U.d.a.Q D z.8.W j.qX`.`._.8XY.P.s.).'.U.Q.].'.I.,XtX`.s.Y.Y.`.Q.U.W.I.>.P._./.n T.+XOX(.R.'.qXjX",
"].].).~.(.d.m : > i.^.b.).'.{.`.:X^.l.X.H -.E.5.*.1XqX/.[.].Y._.`.].`.<X;X].:XW.1XsX:Xd.W.I.`.R.s.E.z.s.W.Q.-Xp ' z.+X-X=X'.].8X",
"uX9X).T.>.v w O ; c S.b.^.XX).%X=X(.^.j.( x OXx...Q.tX_.!._.P._.`./._.8X8X]._.`.9X1Xa.j.(.W.'.).d.E.~.R.`.W.).1 e K I.:X0XwXsXxX",
"jX:XI.] u 0 ; ; O > J q.n.b.l.n.~.(.%XD.E > z.x.l.3.;X8X8X`.'.9X8X<X_.[._.].W.`.;Xy.U j.(./.).+XOX^.).+X'.Q.:.* O w b >.].8XuXxX",
"_.] p & * O O O O o , H &.w.D.b.A.k.G.e., & d +X X<.a._.`.].8X_.]._._.].`.:X:X:XQ.s 7 l.-XI.z..X+X+X/.Q.Q.P.1 o O O * w f ' P.8X",
"Q.L.' O O O 0 O O O o # 9 %.m.S.J.J.1.j d l s x <.2.~ (.'.8X].W._._._.=X1XtXqXwX| * # { XX^.u.x.(.).z.R.T.j % o O * O * ] d.E.(.",
"1XOXR.4.] y O O * O O O X 7 V D W E j.&X4X4X&X5.S *.E 6.wXsX9XjXqXtX2X2XOX3.A h h E } I A <.} 4.z.Q.T.f.P % * O O y T a.+X@X+X,X",
"-X-X@X+X+Xf.' O O 0 ; * O & a H M.K.*X*X4X&XF.M.O.D K T Q.,X1XqXaXqX).d.{ ~ v.#X3X5X@X#Xx.8.} 4.z.R.U.p % * O O ' W.+XOX+X,X,X,X",
" X X:XqXyXqXQ.P 0 ; ; ; 0 d <.A.*X*X*XH.oXD.A.x.q.@.X.L c M s.~.'.I.M A 5..X&X&XiX4X%X$XH.S.D.x.=.u O O O ; O ] =X1X,X:X+X+X,X:X",
"l.T.;XtXtXkX9X`.' ; ; 0 f X.A.*X4X3X%X^.b.k.x..X^.t.t.q.Q x 2 2 i s I 5.n.%XiX5X,X%XoXb.n.n.A.XX^.:.u ; ; & M :XyX1XOXQ.W.(.(.E.",
"`.Q.Q.9XkXkXtXtX[.d ; q H r.oX*X4X2X=X=X+X.Xb.b.XX.Xx.t.M.2.3 ; > j 4.h.H.%X%X~.(.).b.f.f.n.z.z..X@X;.u O a R.rX5X:XQ./.:X<X>X=X",
"qX:X`.:XeXkXzXlXtX:.; z ` N.F.@X+X'.).=X2X).).+X^.b..Xb.b.k.U % a X.g.D.H.).)._.{.<X>X).).).).~.^.+X=X[ : y.1XqX;X/./.:XqXqX0XwX",
"wX8X].`.].wXxXxXtXf.8 D o.w.C.k.j.).=X+X>X/.'.<X>X~.XX+X^.oXu.2 T E.r.j.b.~./.{.pX2X<X<X>X>X'.(././.>Xs.d :X1X,X/.`.].<XqX0X1XeX",
"`.:X<X<X`.].wXkXtXl.I G o.$.r.8.j.+X-X/.(.(.4XaXpX<X(.>X+X^.z.e } A.j.a.f./.{.<X{.[.'./.'.`./.{.>X`.'.'.N 1XrX:XOX;X;X_.>X].'._.",
";X'.<XeX;X`.8XtXdXl.E J ) %.$.9.b.%X=X~.>XW.>X<XpXaX4X<X6X=X~.d a.D.b.a.f.'.{.'.].].{.[.<X{.{.2XqX0X<XqX .1XrX1X[.8X9X`.<X9X'._.",
"=X/./.1X'.I.W.9XdX(.! F / %.#.2.oX6X2X~./.u.).].aXsX<X<XrX2X^.x ~.XXb.f.).{._._.{.pX|.'.0XpX].pXjXwX|.xX,.5XrX9X'.8X8X'.].<X/.s."
};
