/* XPM */
static char *c3RyaXBwZWRfYmlyY2hfbG9n[] = {
/* columns rows colors chars-per-pixel */
"64 64 190 2 ",
"   c #665645",
".  c #685847",
"X  c #66574D",
"o  c #675B4E",
"O  c #6C5D4E",
"+  c #735E45",
"@  c #735F48",
"#  c #675C52",
"$  c #6C5E53",
"%  c #6F604F",
"&  c #776047",
"*  c #74614C",
"=  c #7A644C",
"-  c #7E684F",
";  c #6D6154",
":  c #6D6258",
">  c #736354",
",  c #7A6651",
"<  c #7E6953",
"1  c #756559",
"2  c #76695D",
"3  c #7B6C5D",
"4  c #7D6F61",
"5  c #7E7163",
"6  c #82674B",
"7  c #84694E",
"8  c #816750",
"9  c #836C52",
"0  c #886F54",
"q  c #846F5B",
"w  c #8D7256",
"e  c #87725F",
"r  c #8D745A",
"t  c #8E785F",
"y  c #957555",
"u  c #997755",
"i  c #977956",
"p  c #997956",
"a  c #92765A",
"s  c #94795C",
"d  c #9C7C5A",
"f  c #A27F5C",
"g  c #837363",
"h  c #8A7663",
"j  c #8C7965",
"k  c #81766C",
"l  c #8D7C69",
"z  c #957D62",
"x  c #997F63",
"c  c #917E6B",
"v  c #9F815D",
"b  c #A3825D",
"n  c #A8855F",
"m  c #978064",
"M  c #9B8265",
"N  c #94826D",
"B  c #9C856B",
"V  c #968471",
"C  c #9B8771",
"Z  c #9D8A74",
"A  c #A48462",
"S  c #A98662",
"D  c #A48867",
"F  c #AB8A65",
"G  c #A18669",
"H  c #A3896B",
"J  c #AD8D6A",
"K  c #B28E66",
"L  c #B28E6A",
"P  c #AE916D",
"I  c #B69267",
"U  c #B3926C",
"Y  c #B9956D",
"T  c #BB996D",
"R  c #A18C74",
"E  c #AA8E75",
"W  c #A28E78",
"Q  c #AD9274",
"!  c #A5917B",
"~  c #AC947C",
"^  c #AE997D",
"/  c #B49572",
"(  c #BA9572",
")  c #B69874",
"_  c #BC9B74",
"`  c #B1967C",
"'  c #B89779",
"]  c #B4997D",
"[  c #BC9D7B",
"{  c #BFA077",
"}  c #BEA17D",
"|  c #C19D75",
" . c #C19E79",
".. c #C3A176",
"X. c #C3A37C",
"o. c #C9A67D",
"O. c #C7A87F",
"+. c #CBA97E",
"@. c #A59380",
"#. c #AC9783",
"$. c #AB9A83",
"%. c #B09680",
"&. c #B49C82",
"*. c #B99E82",
"=. c #B79F88",
"-. c #BCA284",
";. c #B3A28B",
":. c #BCA58B",
">. c #BFA88D",
",. c #BBA790",
"<. c #B8A895",
"1. c #C4A582",
"2. c #C9A782",
"3. c #C6A984",
"4. c #CCAC84",
"5. c #C2A689",
"6. c #C4AB8C",
"7. c #CBAE8A",
"8. c #D0AE84",
"9. c #D0AF8A",
"0. c #CFB086",
"q. c #CDB18D",
"w. c #D2B186",
"e. c #D2B48C",
"r. c #D8B68C",
"t. c #D6B88E",
"y. c #D9B98E",
"u. c #C5AD92",
"i. c #C9AF91",
"p. c #C6B095",
"a. c #CCB393",
"s. c #C5B29A",
"d. c #CDB69A",
"f. c #CEB89C",
"g. c #D2B794",
"h. c #D2B797",
"j. c #D0B695",
"k. c #D2B692",
"l. c #D8B791",
"z. c #D5B991",
"x. c #D5B892",
"c. c #D3B997",
"v. c #D7BA95",
"b. c #D6B995",
"n. c #D5B994",
"m. c #D9BB96",
"M. c #DABC96",
"N. c #D9BB94",
"B. c #D0B799",
"V. c #D1B99A",
"C. c #D5BA98",
"Z. c #D5BB9A",
"A. c #D6B898",
"S. c #D7BC99",
"D. c #D3BB9C",
"F. c #D3BD9E",
"G. c #D4BD9E",
"H. c #D7BE9C",
"J. c #D4BB9B",
"K. c #D8BA9A",
"L. c #D9BD98",
"P. c #D9BE99",
"I. c #D9BE9A",
"U. c #D9BF9E",
"Y. c #D9BE9B",
"T. c #CDBBA4",
"R. c #D3BDA0",
"E. c #D5BDA1",
"W. c #D3BDA2",
"Q. c #D9BFA0",
"!. c #D1BDA8",
"~. c #DDC096",
"^. c #DDC19D",
"/. c #DDC39F",
"(. c #DEC29D",
"). c #DCC19C",
"_. c #E0C69E",
"`. c #D6C1A5",
"'. c #DBC3A3",
"]. c #D7C4AA",
"[. c #D5C2AA",
"{. c #D9C4AB",
"}. c #DAC8AF",
"|. c #DDCAB3",
" X c #E1C6A3",
".X c #E1C6A3",
"XX c #E2C9A5",
"oX c #E3CAAA",
"OX c #E0CBB6",
"+X c #E1D1C0",
/* pixels */
"&.5.4.e.7.7.9.e.7.:.g % r F 7.T w.r.w.P.6.[ q.z.q.S.7.q.].R.:.3 + P v J T 4.C.e.t.k.0.).k.3.k.X.h.c.6.l 1 6 f K ( ..o.e. .7.' R ",
"&.[ +.0.k.e.4.L.3.6.g   w D O.{ w.w.w.XX0.[ C.N.q.N.X.c.H.D.>.* @ H d U T +.~.0.w.t.S.).z.3.k.O.k.n.6.Z 4 y A U | 1.o.l.4.1.' R ",
"] } X.+.K.e.9.E.i.6.g   s P O.{ w.+.z.P.7.0./.N.7.f.:.].D.R.6., @ Q p P { 4.).0.e.C.S.~.^.4.c.7.V.Y.a.W 2 y b Y (  .o.K.1.i.*.R ",
";.} +.0.e.l.9.6.5.5.g * m U O.T +.w.l.t.e.p./.a.6.-.-.R.V.R.>.* + Q v P { X.3.{ 0.n.n.q.^.q.q.q.a.P.c.! 1 s b U Y o.o.K.( 2.[ E ",
";.[ 4.0.t.e.k.i.q.>.3 % t / } ..+.w.y.t.z.0.N.k.-.3.a.H.d.E.u.> = H v U ....5.O.O.C.n.g.q.5.h.7.3.Z.Z.~ > a b I Y  . .K.F 5.[ ` ",
"&.) O.4.7.q.7.i.} -.3 % t T { { +.w.y.y.c.d.D.a.5.h.k.i.i.R.i.* = P v U X.X.'.z.} 3.q.7.5.1.k.5.p.V.n.! 1 s f Y | 2.o.9.f 6.' %.",
":.) 3.4.9.4.7.k.6.>.3 % m / { ..+.r.t.c.q.0.S.q.0.a.V.B.a.d.>.= = P v I X.+.t.0.4.z.n.C.~.a.a.O.X.V.a.W 1 a b _ L o.o.k.D 2. .&.",
":.' 4.0.x.7.7.'.q.;.1 % t ) O.O.4.w.e.e.4.q.).a.a.E.F.F.i.f.6.> = J b J O.+.e.r.0.0.4.3.k.z.l.1.-.Z.i.C > a n ( Y  .o.i.F 2.[ :.",
"&./ 1.4.k.k.7.B.q.^ , 1 t / } O.o.w.y.y.7.k.H.q.c.a.f.a.d.d.5.> = P v J o.4.t.) O.e.0.d.x.7.k.7.5.E.a.c 1 s f | Y  .| 2.| 7. .*.",
"` [ 4.9.l.a.1.Q.6.! 1 ; v / X.{ 8.e.N._.h.a.q.a.S.`.a.q.d.W.5., = M v K 4.+.w.q.q.n.).`.i.q.J.7.5.B.i.E 8 s f | |  . .9.| 9.1.=.",
"~ ) X.4.l.J.3.K.3.! 2 > m ) { T 8.8._.M.e.i.h.q.V.Y.q.p.u.!.:., = n v ) X.+.r.~.n.n.).f.q.k.Y.7.2.A.6.x 1 s f *.|  .o.9.| 5.1.:.",
"&.) X.8.k.x.7.x.3.$.2 ; m { } { 8.8.r.N.4.a.).a.Y.P.7.a.u.F.u., = D v ) ..+.y.y.w.).D.p.k.7.a.a.1.a.i.c 1 a f ' | | +.o. .7.1.=.",
"` } 4.4.4.n.c.Y.p.$.2 > t P } O.e.+.r.e.2.a.'.a.Z.{.i.a.5.W.u., = M v I ..O.r.y.e.~.).p.0.3.k.k.2.k.i.R > y f f | 2.o.2.| 2.5.*.",
"] 1.4.w.O.t.7.V.i.^ 1 > v P { T 4.+.e.7.4.7.'.7.'.Y.1.i.a.f.:.* = v v U X.X.r.y.0.n.q.q.a.X.a.Y.5.A.i.c > s f u | o.o.2. .5.5.5.",
"] 1.4.e.O.e.q.).j.W 1 > m U { { e.4.N.7.e.7.Y.e.'.Q.7.d.6.f.-.* & G d J o.+.w.+.+.0.0.n.e.3.D.D.7.A.i.E > x f f | o. .|  .5.1.&.",
"-.5.4.t.0.0.k.k.u.Z 1 > m } } { 9.4.l.n.x.e.n.n.Y.h.6.k.6.F.-.= = D v K o.X.w.r.w.e.e.0.S.3.k.H.7.h.i.W 1 s f | | 8.2.| 2.7. .&.",
"] -.O.0.w.q.q.n.q.Z 1 1 M ) 1.{ e.4.l.l.e.q.S.n.).c.5.D.a.f.*.& = v d U X.o.8.r.+.4.n.z.).1.d.).7.k.i.! 1 a f  . .4. . .2.k. .%.",
"' 1.4.q.e.0.n.n.f.V ; 1 B ) 1._ c.4.N.N.q.e.).n.).Y.a.H.6.V.*., = G d U 4...w.w.+.4.z.P.C.4.g.`.4.Z.a.W 1 z f _ | 2.2. .2.i.*.=.",
"] } X.w.4.4.e.a.f.V 1 1 m ' ) T e.w.e.q.0.n.XXe.H.f.d.T.>.c.-.= = D d L O...w.8.w.w.e.v.C.0.k.D.7.'.i.! , r p U  .o.2.( 2.5.1.*.",
"] 1...0.4.+.l.7.a.N ; 1 z ) [ Y 4.+.q.l.0.v.'.0.n.`.R.D.-.V.-.- < J d K 1.X.9.t.4.0.k.e.P.0.Z.E.1.'.a.R 1 w u K (  .8.( 5.1.5.*.",
"] X...y.4.4.l.1.p.W ; , m ) ) I 8.r.w.e.e.N.(.O.q.d.).'.a.F.:., - H b P X.| e.e.w.e.z.e. Xn.n.V.1.`.B.R > w d S  .2.2.' 2. .1.%.",
"` [ X.l.w.x.Y.a.p.! > > z / T Y 4.e.r.e.z.'. XC.'.C.f.}.a.H.&., = H d U [ O.8.8.4.w.k.t.^.n.z.q.4.`.d.C ; y A U | 1.9.L 5.1.5.*.",
"Q [ _ 4.e.a.'.q.6.W > ; B / / K 4.9.z.t.N.XXP.S.XXS.a.`.6.f.&.= & x i F _ O.w.e.3.3.a.k.).z.n.C.7.S.F.B > y f /  . .9.[ 1. .1.%.",
"] X.O.w.l.4.^.a.7.! 1 > B U [ I 9.8.N.z.e.XX/.n.'.).S.S.p.D.-., & s i J Y 4.4.w.{ X.d.c.).N.n.H.4.V.F.N $ a f / | | 2.( 5.1.3.%.",
"] 1.3.r.e.2.Q.B.d.@.1 * M { 3.I ..w.r.9.9. X XA.oXQ.`.Z.6.[.-.< = a y F ( 4.8.r.w.4.V.f.k.v.e.S.5.A.A.C $ a f f  .L 2.| 2.1.2.%.",
"` } | e.4.2.i.9.a.! 1 > B ) X.I o.w.o.9.t.I.L.k..Xh.S.h.d.f.-.q = 0 p F _ o.o.l.z.e.q.q.N.e.7.).9.A.T.c $ 8 f a | | *.| 2.5.i.f ",
"Q [ _ r.8.8.l.i.k.! 3 O B { X.T 8.9. .M.4.I.N.n.XXq.Y.d.6.).-.g < a u F | ..o.r.y.0.q.e.n.a.0.D.9.A.d.c 8 8 f f  .| 1.| 2.2.i.%.",
"E ) ..w.9.4.L.1.7.! 3 O B ) O._ 9.8.o.~.4.e.z.Y.'.3.).k.p.d.6.j = s s S ( 4.+.e.N.e.3.e.n.z.3.).A.i.5.e 8 8 f f ( L 2. .5.2.*.E ",
"E ) | e.e.4.h.2.7.^ 4 > M U } T 2.4.l.7.2.e.l.S./.e.n.q.q.f.6.h = a s J _ 4.4.9.l.t.q.q.e.k.9.Q.9.9.5.j X u f ( ( L 2.2.2. .5.' ",
"` [ _ t.9.9.x.7.u.^ 3 O m / { T 2.8.N.8.4.N.e.Y.'.a.p.f.a.j.6.h * a p L _ 4.2.8.N.t.7.e.9.k.9.U.A.9.u.h X y f f  .L 2.5.*.*.i.E ",
"~ [ _ e.4.4.k.*.6.^ 3 O m U { T 4.l.e.4.4.I.z.H.H.} -.q.0.p.3.l < a p F _ 1.( 4.z.e.1.4.e.e.9.K.A.a.s.e X 0 f ( ( L 2.i.*. .5.E ",
"%.( ..8.8.4.l. .a.] 5 O m J { T o.N.9.4.4.I.N.l.e.3.k.q.u.a.-.h < a s L _ 4.[ 7.e.4.3.q.3.3.9.Q.5.a.s.e X 8 f ( ( L 9.2.L %.5.%.",
"` ( | 8.o.9.7.3.O.^ 5 O m P { { o.N.e.4.0./.q.g.D.0.e.} 6.a.} g , w i P } +.0.z.4.) X.3.{ } 4.E.a.a.s.h o w f ( _ L 9.1.H ' 1.' ",
"` / ..8.o.x.i.4.7.-.g % m P } 4.+.~.N.e.e.oXq.g.S.7.q.0.i.p.-.j * y p K { +.X.0.r.4.q.D.0.q.4.q.6.7.u.g # a f ( _ L 9.5.' *.5.*.",
"Q [ o.8.k.x.c.Z.i.&.l % s U ) X.O.e.).S./.'.q.).`.S.i.u.a.j.-.t , w i F { +.o.e.e.+.O.6.0.q.0.k.6.7.:.l $ a A )  .Y 9.1.Q 1.1.%.",
"&.U  .e.4.k.4.5.7.] j ; M P ) ..+.r.).n.C./.0.C.).q.).6.f.>.-.e , a p F X.4.+.{ 1.+.} f.q.n.4.k.q.p.,.j $ z b (  .Y 4.[ 1.1.' ' ",
"%./ X.x.X.l.1.k.7.&.j $ M / ) X.q.z.C.} 3./.6.p.'.p.q.q.a.u.-.t < a p F _ y.4.Z.q.+.q.).q.e.0.n.0.u.6.l $ z A ( 2.f 2.2.2.5.1.%.",
"%.U  .e._ l.a.k.a.^ g O M P ) ..4.z.n.} 1.C.0.`.).q.q.7.>.p.-.j < s p F _ w.w./.).w.u.V.7.c.a.q.c.p.p.c $ r A ( 1.| 2.2.2.5.2.*.",
"&.P  .e._ l.7.7.7.&.g @ B P { { O.t.N.1.q.'.a.V.c.4.c.3.d.a.-.e < v v n _ t.r.~.y.q.p.F.4.z.1.q.q.q.s.l $ s A L | | 2.2.1.1.5.' ",
",./ X.a.( e.5.l.a.%.3 $ m P P { 0.).C.-.q.'.c.D.c.n.C.6.p.`.-.t < t v n _ w.w.~.r.q.h.H.4.x.4.6.n.a.p.N $ r f F  .f 2.*.1.| 5.*.",
"6.' { e.I e.a.Y.q.^ 5 % m / J { X.~.t.-.q./.C.).~.a.g.>.a.~.>.t < r d b _ 0.w.M.N.0.q.n.3.n.0.q.Z.i.<.l $ 0 u F  .| 2.2.1.*.1.%.",
"=.' [ O.T M.i.a.i.$.5 % B ) ) { O.t.t.O.q.~.g.f.j.u./.p.d.f.>.5 & r i b X.4.0.+.r.4.e.z.4.~.a.0.a.7.u.l $ 0 f S | f 2.2.1. .1.' ",
"&.Q _ 4._ l.4.k.q.} 3 % B / / T 4.t.v.7.q.~.q.k.0.~.~.q.f.a.>.N = s i d { 0.e.w.e.+.0.q.4.v.n.4.h.q.6.l # 0 d S | | 2. .2. .5.*.",
"%.' I 0...N.2.7.k.^ 5 % B U P { 0.~.~.k.~./.f.0.u.p.`.q.a.p.>.m , s d b { O.e.w.e.+.0.z.e.).e.q.a.q.u.l $ 0 d f f 1.2.*.1.*.5.%.",
"^ ) _ 9.o.t.2.a.~.^ 5 % Z Q ) } z.~.g.~./.~.6.z.f.~.}.f.g.p.6.N - z v b _ o.w.4.r.O.O.e.n.(.z.q.c.q.6.N : 0 S f S 1.7.X.1.1.5.&.",
"~ ' [ e...e.2.V.`.^ 5 > B P T } ~.).~.~./.~.6.q.`.[.`.`.q.6.>.N < B v b { O.w.w.r.+.4.).N.v.C.p.a.a.p.l : 0 f f 5.2.2.2. ./ 5.` ",
"&.` _ e.2.k.f.B.a.^ 5 % B P } 3.z./.~.~.).`.~.s.z.~.g.g.d.5.p.N < B d b T w.w.w.r.0.+.~.~.n.n.0.q.a.s.N : 8 y f D 2. . . .| 4.*.",
"#./ _ 7.4.E.7.E.a.<.5 % N P { } z.).j.~.).~.>.0.a.`.f.V.V.p.j.V , M p n U +.+.0.e.0.+.t.e.0.n.4.7.p.p.N $ 8 y f *. .1.i.4.5.5.%.",
"` ]  .4.7.a.k.7.d.=.4 $ t ~ / 4.C._.P.Y.'.`.c.S.3.D.f.f.a.p.u.C 7 M p J T +.w.w.w.+.X.0.0.4.k.4.d.0.f.V $ 9 x S (  .X.a. .1.5.] ",
"E ' X.o.k.7.i.i.6.<.5 O r / / 4.e./.P.h.H.S.B.Y.q.V.d.d.T.p.u.Z - D i F T +.w.+.w.+.+.w.e.q.e.4.q.p.d.N $ 8 p F  .2.2.2.S ' 3.] ",
"E [  .X.B.7.i.k.5.,.5 o t Q / 4.q.^.Z.n.n.k.S.`.g.).v.n.f.p.a.H - M u I I +.+.+.w.+.+.4.t.e.z.7.B.F.i.N $ 0 u F  .4. .4.7.} 7.&.",
"&.] X...i.4.d.k.3.;.4 # t ~ ) 3.e.^.F.c.z.q.H.`.q.).k.g.p.6.7.Z < v p n I o.+.+.w.+.X.0.e.e.z.7.a.f.6.N $ 0 p F _ 7. .O.X.a.0.-.",
"*.) 4.| f.4.2.7.6.;.5 o j Q } 3.7.^.!.d.S.a.l.K.C.).g.f.j.>.p.C - i i J I ..w.w.w.w.+.e.k.7.n.q.B.d.u.V $ r u K | 4.o.7._ 5.a.-.",
"%.( o.o.d.1.a.9.,.;.g O m Q ) 1.k.^.`.!.F.a.a.H.q.V.p.f.j.q.q.C = t v J T ..w.+.+.0.0.e.e.7.n.k.J.i.5.N $ j u U _ 4.O.1. .4.q.] ",
"&.) +...T.1.k.k.6.;.5 ; m ) ) 4.7.N.!.f.p.F.H.Y.k.a.6.d.p.a.d.V = a v U T X.0.+.0.0.0.q.k.4.n.a.!.d.:.l $ x y L  .e.O.7.X.7.q.] ",
"E / X...h.6.k.9.>.;.4 o N ` ) 0.e.N.K.W.W.d.p.Y.k.~.6.s.<.`.p.N & w v J I ..w.+.+.e.4.4.q.4.Z.H.{.7.u.c 1 x u L [ 7.1.4.1.a.7.[ ",
"^ [ +.+.j.d.~.k.p.;.5 ; m ^ / O.q.l.S.!.|.!.F.Q.k.a.7.f.:.d.a.c = 0 p J I _ O.4.4.r.4.} e.4.7.a.E.d.,.c $ s y L _ 9.2.1.i.7.p.*.",
"] { 3.+.f.`.C.q.f.^ g % B ) ) } 7.).h.`.OX!.E.Y.k.a.a.!.-.f.u.c & w d P Y { [ X.+.4.0.3.S.a.7.d.!.T.,.c $ 0 y /  .7.4.2.u.6.7.&.",
"&.) o.0.0.f.n.4.3.$.g % m U T } l.P.l.a.}.T.{.Y.q.a.7.s.=.d.p.j . w i ) Y _ 3.3.4.e.e.1.Z.q.q.a.{.V.5.c $ r y U ( 4.2.k.1.7.q.*.",
"^ [ X.+.n.).q.3.q.;.g ; m P / X.k.N.n.F.|.R.].J.h.n.7.F.:.i.p.h & - i P U _ O.8.e.k.e.7.S.q.h.a.B.d.-.c # q i / | 7.1.l.1.4.q.] ",
"` T } 4.).f.a.k.0.^ 3 % m / ) } z.n.n.B.|.}.}.V.a.h.a.a.5.i.s.h & 7 s / [ X.7.4.x.K.x.Z.'.q.n.5.h.a.5.V # 8 s (  .7.2.e.4.7.q.[ ",
"` T ..0.~.g.n.].i.^ 3 * B P ) } k.e.a.R.OX!.{.E.!.W.d.d.:.a.i.h * - a / / 4.4.k.7.B.'.c.).z.6.] k.a.5.V $ 6 f _ _ 2.4.7.e.q.7.-.",
"] T ..+./.f.z.V.a.$.4 % B P { { 9.l.Y.Q.OXW.E.n.V.W.H.f.:.s.,.z & = d J U X.4.h.F.Q.Z.q.z.k.6.] 7.B.5.W 1 r d [ _ o.4.e.4.q.q.-.",
"^ _ ..+.).6.q.~.a.;.5 % Z P 1.} k.N.h.V.[.d.n.c.a.).H.V.u.u.T.l @ = s J U X.X.q.x.).q.7.n.q.a.7.a.h.i.@.: 7 f X.X.2.t.e.7.a.q.-."
};
